<svg xmlns="http://www.w3.org/2000/svg" xmlns:xlink="http://www.w3.org/1999/xlink" width="2797" zoomAndPan="magnify" viewBox="0 0 2097.75 2097.749898" height="2797" preserveAspectRatio="xMidYMid meet" version="1.0"><defs><filter x="0%" y="0%" width="100%" height="100%" id="a44515b576"><feColorMatrix values="0 0 0 0 1 0 0 0 0 1 0 0 0 0 1 0 0 0 1 0" color-interpolation-filters="sRGB"/></filter><g/><clipPath id="87d679197c"><path d="M 0 23 L 2097.5 23 L 2097.5 2097.5 L 0 2097.5 Z M 0 23 " clip-rule="nonzero"/></clipPath><clipPath id="0a6728652a"><path d="M 17 0.0390625 L 2070 0.0390625 L 2070 2052 L 17 2052 Z M 17 0.0390625 " clip-rule="nonzero"/></clipPath><mask id="9e09989721"><g filter="url(#a44515b576)"><rect x="-461.505" width="3020.76" fill="#000000" y="-484.504978" height="3020.759854" fill-opacity="0.91"/></g></mask><clipPath id="04d2532f7f"><path d="M 1.234375 0.0859375 L 2052.566406 0.0859375 L 2052.566406 2051.414062 L 1.234375 2051.414062 Z M 1.234375 0.0859375 " clip-rule="nonzero"/></clipPath><clipPath id="8e9bccc548"><path d="M 1026.898438 0.0859375 C 460.441406 0.0859375 1.234375 459.289062 1.234375 1025.75 C 1.234375 1592.210938 460.441406 2051.414062 1026.898438 2051.414062 C 1593.359375 2051.414062 2052.566406 1592.210938 2052.566406 1025.75 C 2052.566406 459.289062 1593.359375 0.0859375 1026.898438 0.0859375 Z M 1026.898438 0.0859375 " clip-rule="nonzero"/></clipPath><clipPath id="933b3bf859"><path d="M 0.234375 0.0859375 L 2051.566406 0.0859375 L 2051.566406 2051.414062 L 0.234375 2051.414062 Z M 0.234375 0.0859375 " clip-rule="nonzero"/></clipPath><clipPath id="64f0a065a2"><path d="M 1025.898438 0.0859375 C 459.441406 0.0859375 0.234375 459.289062 0.234375 1025.75 C 0.234375 1592.210938 459.441406 2051.414062 1025.898438 2051.414062 C 1592.359375 2051.414062 2051.566406 1592.210938 2051.566406 1025.75 C 2051.566406 459.289062 1592.359375 0.0859375 1025.898438 0.0859375 Z M 1025.898438 0.0859375 " clip-rule="nonzero"/></clipPath><clipPath id="84bcf86c00"><rect x="0" width="2052" y="0" height="2052"/></clipPath><clipPath id="2b922730a9"><rect x="0" width="2053" y="0" height="2052"/></clipPath><clipPath id="b0461e592d"><rect x="0" width="1777" y="0" height="642"/></clipPath><clipPath id="68fe9ae2e8"><rect x="0" width="1620" y="0" height="526"/></clipPath><clipPath id="e2bbc33cae"><path d="M 1802.078125 988.636719 L 1973.066406 988.636719 L 1973.066406 1151.375 L 1802.078125 1151.375 Z M 1802.078125 988.636719 " clip-rule="nonzero"/></clipPath><clipPath id="f345db4c39"><path d="M 1802.078125 989 L 1973 989 L 1973 1151 L 1802.078125 1151 Z M 1802.078125 989 " clip-rule="nonzero"/></clipPath><clipPath id="4b66d85297"><path d="M 295.429688 286.648438 L 1802.074219 286.648438 L 1802.074219 1764.804688 L 295.429688 1764.804688 Z M 295.429688 286.648438 " clip-rule="nonzero"/></clipPath><clipPath id="989f18299e"><path d="M 1048.75 286.648438 C 632.703125 286.648438 295.429688 617.554688 295.429688 1025.746094 C 295.429688 1433.933594 632.703125 1764.839844 1048.75 1764.839844 C 1464.796875 1764.839844 1802.070312 1433.933594 1802.070312 1025.746094 C 1802.070312 617.554688 1464.796875 286.648438 1048.75 286.648438 Z M 1048.75 286.648438 " clip-rule="nonzero"/></clipPath><clipPath id="daf09026f9"><path d="M 124.078125 988.472656 L 295.066406 988.472656 L 295.066406 1151.210938 L 124.078125 1151.210938 Z M 124.078125 988.472656 " clip-rule="nonzero"/></clipPath><clipPath id="ea604ad638"><path d="M 124.078125 989 L 295 989 L 295 1150 L 124.078125 1150 Z M 124.078125 989 " clip-rule="nonzero"/></clipPath><clipPath id="4304b48ed4"><rect x="0" width="2098" y="0" height="2075"/></clipPath></defs><g clip-path="url(#87d679197c)"><g transform="matrix(1, 0, 0, 1, 0, 23)"><g clip-path="url(#4304b48ed4)"><g clip-path="url(#0a6728652a)"><g mask="url(#9e09989721)"><g transform="matrix(1, 0, 0, 1, 17, 0)"><g clip-path="url(#2b922730a9)"><g clip-path="url(#04d2532f7f)"><g clip-path="url(#8e9bccc548)"><g transform="matrix(1, 0, 0, 1, 1, 0)"><g clip-path="url(#84bcf86c00)"><g clip-path="url(#933b3bf859)"><g clip-path="url(#64f0a065a2)"><path fill="#fff0f0" d="M 0.234375 0.0859375 L 2051.566406 0.0859375 L 2051.566406 2051.414062 L 0.234375 2051.414062 Z M 0.234375 0.0859375 " fill-opacity="1" fill-rule="nonzero"/></g></g></g></g></g></g></g></g></g></g><path fill="#391125" d="M 615.761719 1293.328125 C 585.277344 1279.5625 556.558594 1263.898438 530.804688 1243.128906 C 495.859375 1214.949219 466.742188 1182.496094 452.257812 1138.898438 C 445 1117.0625 442.203125 1094.757812 446.222656 1072.09375 C 453.628906 1030.300781 478.039062 1001.3125 515.554688 982.664062 C 531.675781 974.648438 548.726562 970.105469 566.675781 968.890625 C 567.578125 968.832031 568.539062 968.894531 569.394531 969.152344 C 569.976562 969.328125 570.417969 969.953125 570.90625 970.367188 C 570.894531 974.003906 568.109375 974.144531 565.738281 974.929688 C 528.132812 987.402344 505.519531 1014.035156 494.867188 1051.3125 C 480.390625 1101.972656 492.363281 1148.285156 520.585938 1190.933594 C 548.265625 1232.761719 587.28125 1261.339844 632.160156 1282.691406 C 668.636719 1300.046875 706.917969 1311.546875 746.980469 1314.835938 C 779.851562 1317.535156 813 1317.5 845.886719 1312.019531 C 876.453125 1306.925781 906.425781 1299.804688 935.546875 1289.152344 C 944.902344 1285.730469 945.359375 1284.65625 942.390625 1274.933594 C 933.042969 1244.308594 924.667969 1213.359375 914.425781 1183.035156 C 902.355469 1147.292969 895.148438 1109.8125 877.449219 1076.050781 C 863.683594 1049.800781 843.683594 1028.824219 820.605469 1010.5625 C 783.816406 981.449219 742.113281 960.117188 702.277344 935.847656 C 671.414062 917.042969 641.089844 897.664062 616.109375 871.046875 C 590.167969 843.398438 574.917969 811.117188 576.5 772.855469 C 577.96875 737.242188 591.765625 706.054688 616.136719 679.820312 C 637.320312 657.015625 662.492188 640.34375 692.277344 630.914062 C 724.109375 620.839844 756.480469 619.015625 789.46875 623.847656 C 828.261719 629.53125 863.804688 643.460938 896.894531 664.222656 C 901.855469 667.335938 904.304688 670.90625 904.65625 676.972656 C 906.191406 703.328125 904.929688 729.699219 905.5 756.054688 C 905.558594 758.695312 906.015625 761.746094 902.535156 763.027344 C 899.394531 761.882812 899.9375 758.992188 899.28125 756.667969 C 885.820312 708.949219 861.058594 669.726562 815.609375 646.339844 C 796.226562 636.367188 775.640625 631.671875 753.648438 631.214844 C 727.109375 630.667969 702.109375 635.058594 679.128906 648.636719 C 650.199219 665.730469 629.25 689.183594 622.980469 723.167969 C 616.996094 755.589844 622.957031 785.402344 643.566406 812.046875 C 662.089844 835.988281 686.679688 852.460938 711.558594 868.378906 C 740.363281 886.800781 770.15625 903.664062 799.316406 921.539062 C 829.691406 940.15625 859.21875 959.945312 885.058594 984.789062 C 914.046875 1012.660156 933.847656 1046.015625 945.957031 1084.207031 C 961.640625 1133.679688 976.414062 1183.417969 990.6875 1233.3125 C 992.523438 1239.738281 994.59375 1246.097656 996.554688 1252.484375 C 998.957031 1260.304688 999.433594 1260.667969 1006.425781 1257.019531 C 1020.15625 1249.851562 1033.65625 1242.265625 1046.820312 1234.085938 C 1080.21875 1213.335938 1112.246094 1190.574219 1144.425781 1168.019531 C 1148.980469 1164.824219 1150.15625 1161.730469 1148.25 1156.390625 C 1138.410156 1128.796875 1128.941406 1101.070312 1119.242188 1073.425781 C 1112.445312 1054.0625 1104.886719 1034.949219 1098.757812 1015.382812 C 1092.371094 995 1079.796875 982.582031 1058.457031 979.457031 C 1057.109375 979.257812 1055.804688 978.714844 1054.527344 978.207031 C 1054.195312 978.078125 1054.046875 977.484375 1053.605469 976.753906 C 1055.066406 973.726562 1058.035156 974.21875 1060.625 974.214844 C 1105.265625 974.167969 1149.90625 974.160156 1194.546875 974.179688 C 1197.179688 974.179688 1200.101562 973.816406 1201.726562 976.878906 C 1199.703125 980.339844 1196.441406 979.78125 1193.613281 980.039062 C 1186.796875 980.65625 1180.480469 982.933594 1174.664062 986.273438 C 1163.660156 992.589844 1159.597656 1004.003906 1163.476562 1018.308594 C 1169.757812 1041.46875 1178.269531 1063.914062 1185.863281 1086.65625 C 1189.300781 1096.945312 1192.636719 1107.269531 1196.164062 1117.53125 C 1198.695312 1124.910156 1200.027344 1125.339844 1206.226562 1120.539062 C 1230.152344 1101.988281 1253.78125 1083.042969 1277.945312 1064.808594 C 1340.019531 1017.960938 1403.460938 973.132812 1475.429688 942.375 C 1501.277344 931.328125 1528.027344 922.585938 1556.515625 920.195312 C 1590.804688 917.324219 1623.042969 933.570312 1635.410156 960.449219 C 1652.507812 997.605469 1636.90625 1039.679688 1607.292969 1061.792969 C 1599.484375 1067.625 1591.0625 1072.476562 1581.839844 1075.757812 C 1578.257812 1077.03125 1573.976562 1079.507812 1572.136719 1073.632812 C 1570.574219 1068.640625 1574.671875 1067.132812 1578.152344 1065.996094 C 1587.757812 1062.847656 1596.097656 1057.53125 1604.054688 1051.515625 C 1628.640625 1032.929688 1638.949219 992.660156 1625.652344 965.003906 C 1614.824219 942.484375 1596.109375 931.375 1571.410156 930.421875 C 1556.589844 929.847656 1556.777344 930.226562 1551.710938 943.894531 C 1533.078125 994.15625 1512.945312 1043.820312 1492.425781 1093.335938 C 1458.28125 1175.746094 1423.050781 1257.691406 1387.289062 1339.414062 C 1359.5 1402.914062 1332.054688 1466.566406 1302.820312 1529.421875 C 1300 1535.492188 1297.378906 1541.65625 1294.695312 1547.789062 C 1293.9375 1549.519531 1293.191406 1551.335938 1291.019531 1551.5 C 1288.335938 1551.703125 1287.640625 1549.382812 1286.789062 1547.574219 C 1280.996094 1535.203125 1277.597656 1521.964844 1272.921875 1509.1875 C 1261.75 1478.664062 1250.535156 1448.15625 1239.664062 1417.527344 C 1226.859375 1381.449219 1214.5 1345.214844 1201.769531 1309.113281 C 1190.121094 1276.0625 1178.238281 1243.09375 1166.433594 1210.101562 C 1166.292969 1209.714844 1165.796875 1209.457031 1164.984375 1208.675781 C 1160.828125 1213.4375 1159.488281 1219.554688 1157.410156 1225.101562 C 1134.054688 1287.398438 1111.714844 1350.089844 1087.449219 1412.027344 C 1070.269531 1455.882812 1053.183594 1499.773438 1036.453125 1543.800781 C 1036.042969 1544.882812 1035.542969 1545.925781 1035.089844 1546.988281 C 1034.1875 1549.113281 1033.492188 1551.707031 1030.664062 1551.683594 C 1027.632812 1551.65625 1027.421875 1548.804688 1026.769531 1546.675781 C 1021.4375 1529.269531 1016.3125 1511.796875 1010.832031 1494.441406 C 1000.488281 1461.699219 989.8125 1429.066406 979.53125 1396.308594 C 969.882812 1365.566406 960.648438 1334.695312 951.046875 1303.941406 C 948.171875 1294.734375 947.875 1294.800781 938.429688 1298.207031 C 910.152344 1308.398438 881.300781 1315.988281 851.585938 1321.175781 C 812.949219 1327.917969 774.234375 1327.582031 735.578125 1324.820312 C 694.074219 1321.851562 654.570312 1309.53125 615.761719 1293.328125 M 1499.8125 1047.746094 C 1514.839844 1009.941406 1531.085938 972.59375 1544.378906 932.957031 C 1540.1875 933.25 1537.382812 933.085938 1534.753906 933.6875 C 1509.203125 939.527344 1484.976562 949.117188 1461.296875 960.140625 C 1413.953125 982.175781 1370.679688 1010.980469 1327.996094 1040.738281 C 1286.644531 1069.5625 1247.859375 1101.792969 1207.40625 1131.8125 C 1203.496094 1134.710938 1203.636719 1138.210938 1205.019531 1142.285156 C 1208.5 1152.546875 1211.726562 1162.894531 1215.242188 1173.140625 C 1226.628906 1206.296875 1237.914062 1239.488281 1249.582031 1272.546875 C 1271.925781 1335.851562 1292.851562 1399.632812 1314.03125 1463.328125 C 1314.863281 1465.828125 1315.453125 1468.667969 1318.351562 1469.902344 C 1325.285156 1459.472656 1467.484375 1128.523438 1499.8125 1047.746094 M 1046.234375 1422.839844 C 1050.832031 1434.445312 1052.015625 1447.214844 1058.03125 1459.8125 C 1059.660156 1456.378906 1060.773438 1454.378906 1061.582031 1452.261719 C 1071.222656 1427.011719 1080.855469 1401.757812 1090.414062 1376.476562 C 1112.796875 1317.28125 1134.949219 1257.996094 1157.6875 1198.941406 C 1161.4375 1189.203125 1157.238281 1182.414062 1153.699219 1174.402344 C 1152.0625 1175.15625 1151.171875 1175.429688 1150.429688 1175.925781 C 1147.550781 1177.855469 1144.679688 1179.808594 1141.871094 1181.839844 C 1099.160156 1212.757812 1055.980469 1242.953125 1008.832031 1266.917969 C 1003.578125 1269.585938 1002.203125 1272.546875 1004 1278.46875 C 1011.363281 1302.726562 1018.101562 1327.167969 1025.183594 1351.511719 C 1032.003906 1374.960938 1038.96875 1398.375 1046.234375 1422.839844 Z M 1046.234375 1422.839844 " fill-opacity="1" fill-rule="nonzero"/><path fill="#391125" d="M 1198.0625 745.074219 C 1189.921875 747.214844 1181.988281 748.636719 1174.238281 750.742188 C 1154.367188 756.140625 1142.308594 769.230469 1137.511719 789.144531 C 1136.484375 793.402344 1135.699219 797.722656 1134.523438 801.9375 C 1133.765625 804.644531 1133.894531 807.992188 1129.226562 809.976562 C 1124.78125 793.292969 1123.203125 775.433594 1110.109375 762.785156 C 1097.195312 750.308594 1079.703125 749.007812 1063.109375 745.605469 C 1064.480469 741.210938 1067.335938 741.523438 1069.699219 741.058594 C 1075.121094 739.996094 1080.566406 739.058594 1085.992188 738.003906 C 1108.941406 733.546875 1120.058594 717.804688 1125.550781 696.613281 C 1126.78125 691.859375 1127.273438 686.804688 1130.222656 682.023438 C 1134.300781 685.484375 1134.480469 689.941406 1135.410156 694.0625 C 1139.039062 710.085938 1145.457031 724.261719 1160.605469 732.839844 C 1170.085938 738.207031 1180.539062 739.71875 1191.09375 741.007812 C 1193.859375 741.347656 1197.402344 740.558594 1198.0625 745.074219 Z M 1198.0625 745.074219 " fill-opacity="1" fill-rule="nonzero"/><g transform="matrix(1, 0, 0, 1, 155, 85)"><g clip-path="url(#b0461e592d)"><g fill="#391125" fill-opacity="1"><g transform="translate(115.530718, 626.244581)"><g><path d="M 18.953125 -78.640625 C 19.273438 -79.273438 19.804688 -79.691406 20.546875 -79.890625 L 27.78125 -81.859375 C 29.96875 -76.347656 30.894531 -70.5625 30.5625 -64.5 C 30.238281 -58.445312 28.265625 -51.945312 24.640625 -45 C 21.503906 -38.988281 17.613281 -34.066406 12.96875 -30.234375 C 8.320312 -26.410156 3.210938 -23.742188 -2.359375 -22.234375 C -7.941406 -20.734375 -13.867188 -20.394531 -20.140625 -21.21875 C -26.410156 -22.050781 -32.707031 -24.113281 -39.03125 -27.40625 C -45.351562 -30.695312 -50.628906 -34.710938 -54.859375 -39.453125 C -59.097656 -44.191406 -62.164062 -49.351562 -64.0625 -54.9375 C -65.96875 -60.519531 -66.648438 -66.375 -66.109375 -72.5 C -65.578125 -78.625 -63.726562 -84.726562 -60.5625 -90.8125 C -57.445312 -96.789062 -53.742188 -101.5625 -49.453125 -105.125 C -45.160156 -108.695312 -40.46875 -111.367188 -35.375 -113.140625 L -32.109375 -106.65625 C -31.835938 -106.226562 -31.671875 -105.757812 -31.609375 -105.25 C -31.554688 -104.75 -31.691406 -104.1875 -32.015625 -103.5625 C -32.378906 -102.851562 -33.207031 -102.1875 -34.5 -101.5625 C -35.789062 -100.945312 -37.332031 -100.0625 -39.125 -98.90625 C -40.914062 -97.757812 -42.832031 -96.15625 -44.875 -94.09375 C -46.914062 -92.039062 -48.875 -89.21875 -50.75 -85.625 C -53 -81.289062 -54.304688 -76.9375 -54.671875 -72.5625 C -55.046875 -68.195312 -54.484375 -63.972656 -52.984375 -59.890625 C -51.492188 -55.804688 -49.070312 -51.972656 -45.71875 -48.390625 C -42.375 -44.816406 -38.128906 -41.6875 -32.984375 -39 C -27.753906 -36.269531 -22.695312 -34.585938 -17.8125 -33.953125 C -12.9375 -33.316406 -8.40625 -33.554688 -4.21875 -34.671875 C -0.03125 -35.796875 3.722656 -37.738281 7.046875 -40.5 C 10.367188 -43.269531 13.097656 -46.707031 15.234375 -50.8125 C 16.535156 -53.300781 17.5625 -55.628906 18.3125 -57.796875 C 19.070312 -59.960938 19.582031 -62.054688 19.84375 -64.078125 C 20.101562 -66.097656 20.132812 -68.085938 19.9375 -70.046875 C 19.738281 -72.003906 19.351562 -74.054688 18.78125 -76.203125 C 18.539062 -77.160156 18.597656 -77.972656 18.953125 -78.640625 Z M 18.953125 -78.640625 "/></g></g></g><g fill="#391125" fill-opacity="1"><g transform="translate(171.003216, 524.235956)"><g><path d="M -17.828125 -59.40625 C -15.691406 -62.425781 -14.171875 -65.359375 -13.265625 -68.203125 C -12.367188 -71.046875 -12.046875 -73.722656 -12.296875 -76.234375 C -12.546875 -78.753906 -13.328125 -81.066406 -14.640625 -83.171875 C -15.953125 -85.273438 -17.738281 -87.128906 -20 -88.734375 C -24.613281 -91.972656 -29.15625 -92.90625 -33.625 -91.53125 C -38.09375 -90.164062 -42.453125 -86.460938 -46.703125 -80.421875 L -54.78125 -68.984375 L -25.59375 -48.40625 Z M 47.25 -67.015625 L 40.703125 -57.734375 C 39.359375 -55.828125 37.632812 -54.945312 35.53125 -55.09375 L -6.265625 -54.484375 C -7.554688 -54.492188 -8.632812 -54.28125 -9.5 -53.84375 C -10.375 -53.40625 -11.332031 -52.445312 -12.375 -50.96875 L -17.96875 -43.046875 L 14.296875 -20.296875 L 6.953125 -9.875 L -70.375 -64.375 L -54.953125 -86.234375 C -51.515625 -91.117188 -48.039062 -94.992188 -44.53125 -97.859375 C -41.03125 -100.734375 -37.523438 -102.671875 -34.015625 -103.671875 C -30.515625 -104.671875 -27.046875 -104.796875 -23.609375 -104.046875 C -20.179688 -103.304688 -16.832031 -101.78125 -13.5625 -99.46875 C -10.820312 -97.539062 -8.570312 -95.304688 -6.8125 -92.765625 C -5.050781 -90.234375 -3.800781 -87.484375 -3.0625 -84.515625 C -2.332031 -81.546875 -2.128906 -78.410156 -2.453125 -75.109375 C -2.785156 -71.816406 -3.664062 -68.441406 -5.09375 -64.984375 C -3.394531 -65.773438 -1.484375 -66.148438 0.640625 -66.109375 Z M 47.25 -67.015625 "/></g></g></g><g fill="#391125" fill-opacity="1"><g transform="translate(236.540129, 434.718902)"><g><path d="M 39.84375 -59.03125 L 47.5 -51.921875 L 8.15625 -8.90625 L -61.65625 -72.765625 L -22.3125 -115.78125 L -14.625 -108.75 L -45.328125 -75.1875 L -22.125 -53.96875 L 2.75 -81.15625 L 10.15625 -74.375 L -14.71875 -47.1875 L 9.09375 -25.40625 Z M 39.84375 -59.03125 "/></g></g></g><g fill="#391125" fill-opacity="1"><g transform="translate(307.991343, 358.688176)"><g><path d="M 25.09375 -67 L -11.046875 -86.875 C -12.117188 -87.476562 -13.328125 -88.207031 -14.671875 -89.0625 C -16.023438 -89.914062 -17.421875 -90.851562 -18.859375 -91.875 C -17.273438 -88.550781 -16.09375 -85.664062 -15.3125 -83.21875 L -1.953125 -44.25 Z M 68.109375 -57.28125 L 60.53125 -50.90625 C 59.65625 -50.164062 58.757812 -49.785156 57.84375 -49.765625 C 56.9375 -49.753906 56.066406 -49.972656 55.234375 -50.421875 L 33.765625 -62.203125 L 1.28125 -34.875 L 9.21875 -11.703125 C 9.519531 -10.921875 9.582031 -10.054688 9.40625 -9.109375 C 9.226562 -8.160156 8.71875 -7.332031 7.875 -6.625 L 0.296875 -0.25 L -31.625 -97.015625 L -21.734375 -105.34375 Z M 68.109375 -57.28125 "/></g></g></g><g fill="#391125" fill-opacity="1"><g transform="translate(398.442986, 284.693808)"><g><path d="M 55.046875 -89.75 C 58.773438 -83.726562 61.210938 -77.65625 62.359375 -71.53125 C 63.515625 -65.414062 63.441406 -59.519531 62.140625 -53.84375 C 60.847656 -48.175781 58.359375 -42.863281 54.671875 -37.90625 C 50.992188 -32.957031 46.195312 -28.648438 40.28125 -24.984375 L 10.265625 -6.359375 L -39.59375 -86.765625 L -9.578125 -105.390625 C -3.660156 -109.054688 2.328125 -111.4375 8.390625 -112.53125 C 14.460938 -113.632812 20.332031 -113.492188 26 -112.109375 C 31.675781 -110.734375 37 -108.164062 41.96875 -104.40625 C 46.945312 -100.65625 51.304688 -95.769531 55.046875 -89.75 Z M 43.875 -82.828125 C 40.8125 -87.765625 37.398438 -91.757812 33.640625 -94.8125 C 29.878906 -97.875 25.925781 -99.984375 21.78125 -101.140625 C 17.632812 -102.304688 13.363281 -102.507812 8.96875 -101.75 C 4.582031 -100.988281 0.21875 -99.265625 -4.125 -96.578125 L -23.25 -84.71875 L 15.703125 -21.921875 L 34.828125 -33.78125 C 39.171875 -36.46875 42.65625 -39.613281 45.28125 -43.21875 C 47.90625 -46.832031 49.625 -50.738281 50.4375 -54.9375 C 51.25 -59.144531 51.117188 -63.609375 50.046875 -68.328125 C 48.984375 -73.054688 46.925781 -77.890625 43.875 -82.828125 Z M 43.875 -82.828125 "/></g></g></g><g fill="#391125" fill-opacity="1"><g transform="translate(507.751257, 219.104126)"><g><path d="M 73.078125 -82.421875 C 75.847656 -75.898438 77.359375 -69.472656 77.609375 -63.140625 C 77.859375 -56.816406 76.929688 -50.890625 74.828125 -45.359375 C 72.734375 -39.835938 69.503906 -34.867188 65.140625 -30.453125 C 60.773438 -26.046875 55.394531 -22.476562 49 -19.75 C 42.601562 -17.03125 36.304688 -15.632812 30.109375 -15.5625 C 23.921875 -15.488281 18.109375 -16.613281 12.671875 -18.9375 C 7.234375 -21.269531 2.328125 -24.71875 -2.046875 -29.28125 C -6.429688 -33.851562 -10.007812 -39.398438 -12.78125 -45.921875 C -15.5625 -52.453125 -17.070312 -58.878906 -17.3125 -65.203125 C -17.5625 -71.523438 -16.640625 -77.457031 -14.546875 -83 C -12.460938 -88.550781 -9.25 -93.539062 -4.90625 -97.96875 C -0.570312 -102.40625 4.789062 -105.984375 11.1875 -108.703125 C 17.582031 -111.429688 23.890625 -112.820312 30.109375 -112.875 C 36.328125 -112.925781 42.160156 -111.773438 47.609375 -109.421875 C 53.054688 -107.078125 57.96875 -103.625 62.34375 -99.0625 C 66.71875 -94.5 70.296875 -88.953125 73.078125 -82.421875 Z M 61 -77.28125 C 58.71875 -82.625 55.941406 -87.113281 52.671875 -90.75 C 49.410156 -94.394531 45.816406 -97.113281 41.890625 -98.90625 C 37.972656 -100.707031 33.769531 -101.585938 29.28125 -101.546875 C 24.800781 -101.515625 20.210938 -100.5 15.515625 -98.5 C 10.847656 -96.519531 6.953125 -93.925781 3.828125 -90.71875 C 0.703125 -87.519531 -1.582031 -83.882812 -3.03125 -79.8125 C -4.488281 -75.738281 -5.039062 -71.257812 -4.6875 -66.375 C -4.332031 -61.5 -3.015625 -56.390625 -0.734375 -51.046875 C 1.535156 -45.703125 4.296875 -41.222656 7.546875 -37.609375 C 10.796875 -34.003906 14.394531 -31.300781 18.34375 -29.5 C 22.289062 -27.707031 26.492188 -26.835938 30.953125 -26.890625 C 35.421875 -26.953125 39.988281 -27.972656 44.65625 -29.953125 C 49.351562 -31.953125 53.273438 -34.539062 56.421875 -37.71875 C 59.566406 -40.90625 61.851562 -44.535156 63.28125 -48.609375 C 64.707031 -52.679688 65.25 -57.140625 64.90625 -61.984375 C 64.570312 -66.835938 63.269531 -71.9375 61 -77.28125 Z M 61 -77.28125 "/></g></g></g><g fill="#391125" fill-opacity="1"><g transform="translate(632.805855, 170.016827)"><g/></g></g><g fill="#391125" fill-opacity="1"><g transform="translate(693.589124, 152.50381)"><g><path d="M 30.96875 -52.125 C 34.5625 -52.789062 37.640625 -53.859375 40.203125 -55.328125 C 42.773438 -56.796875 44.84375 -58.554688 46.40625 -60.609375 C 47.976562 -62.671875 49.015625 -64.976562 49.515625 -67.53125 C 50.023438 -70.09375 50.015625 -72.800781 49.484375 -75.65625 C 48.378906 -81.582031 45.679688 -85.867188 41.390625 -88.515625 C 37.109375 -91.171875 31.25 -91.804688 23.8125 -90.421875 L 8.890625 -87.640625 L 16.046875 -49.34375 Z M 21.96875 -100.34375 C 27.851562 -101.4375 33.097656 -101.707031 37.703125 -101.15625 C 42.304688 -100.613281 46.265625 -99.351562 49.578125 -97.375 C 52.898438 -95.40625 55.597656 -92.773438 57.671875 -89.484375 C 59.742188 -86.203125 61.1875 -82.375 62 -78 C 62.8125 -73.664062 62.789062 -69.5625 61.9375 -65.6875 C 61.09375 -61.820312 59.453125 -58.316406 57.015625 -55.171875 C 54.585938 -52.035156 51.351562 -49.335938 47.3125 -47.078125 C 43.28125 -44.828125 38.453125 -43.175781 32.828125 -42.125 L 17.90625 -39.34375 L 24.40625 -4.5625 L 11.875 -2.21875 L -5.484375 -95.21875 Z M 21.96875 -100.34375 "/></g></g></g><g fill="#391125" fill-opacity="1"><g transform="translate(798.871055, 133.882597)"><g><path d="M 97.375 -51.515625 C 97.675781 -44.441406 96.832031 -37.894531 94.84375 -31.875 C 92.851562 -25.863281 89.90625 -20.640625 86 -16.203125 C 82.09375 -11.765625 77.320312 -8.242188 71.6875 -5.640625 C 66.050781 -3.046875 59.757812 -1.597656 52.8125 -1.296875 C 45.863281 -0.992188 39.476562 -1.894531 33.65625 -4 C 27.832031 -6.113281 22.785156 -9.210938 18.515625 -13.296875 C 14.242188 -17.378906 10.859375 -22.328125 8.359375 -28.140625 C 5.867188 -33.960938 4.472656 -40.410156 4.171875 -47.484375 C 3.859375 -54.578125 4.691406 -61.125 6.671875 -67.125 C 8.660156 -73.132812 11.609375 -78.375 15.515625 -82.84375 C 19.421875 -87.3125 24.179688 -90.851562 29.796875 -93.46875 C 35.410156 -96.09375 41.691406 -97.554688 48.640625 -97.859375 C 55.585938 -98.160156 61.984375 -97.242188 67.828125 -95.109375 C 73.671875 -92.984375 78.726562 -89.863281 83 -85.75 C 87.269531 -81.632812 90.65625 -76.671875 93.15625 -70.859375 C 95.65625 -65.054688 97.0625 -58.609375 97.375 -51.515625 Z M 84.25 -50.9375 C 83.988281 -56.75 82.96875 -61.929688 81.1875 -66.484375 C 79.40625 -71.035156 76.992188 -74.835938 73.953125 -77.890625 C 70.921875 -80.953125 67.300781 -83.253906 63.09375 -84.796875 C 58.882812 -86.335938 54.226562 -87 49.125 -86.78125 C 44.0625 -86.5625 39.5 -85.503906 35.4375 -83.609375 C 31.382812 -81.710938 27.960938 -79.109375 25.171875 -75.796875 C 22.390625 -72.484375 20.304688 -68.484375 18.921875 -63.796875 C 17.535156 -59.109375 16.972656 -53.859375 17.234375 -48.046875 C 17.484375 -42.253906 18.5 -37.09375 20.28125 -32.5625 C 22.0625 -28.039062 24.476562 -24.25 27.53125 -21.1875 C 30.59375 -18.125 34.222656 -15.832031 38.421875 -14.3125 C 42.628906 -12.800781 47.265625 -12.15625 52.328125 -12.375 C 57.429688 -12.59375 62.015625 -13.632812 66.078125 -15.5 C 70.140625 -17.375 73.550781 -19.96875 76.3125 -23.28125 C 79.082031 -26.601562 81.160156 -30.59375 82.546875 -35.25 C 83.929688 -39.914062 84.5 -45.144531 84.25 -50.9375 Z M 84.25 -50.9375 "/></g></g></g><g fill="#391125" fill-opacity="1"><g transform="translate(931.977469, 130.930043)"><g><path d="M 42.984375 -44.71875 C 46.660156 -44.34375 49.957031 -44.460938 52.875 -45.078125 C 55.789062 -45.691406 58.28125 -46.722656 60.34375 -48.171875 C 62.40625 -49.628906 64.03125 -51.445312 65.21875 -53.625 C 66.414062 -55.8125 67.15625 -58.28125 67.4375 -61.03125 C 68 -66.644531 66.582031 -71.0625 63.1875 -74.28125 C 59.800781 -77.5 54.4375 -79.472656 47.09375 -80.203125 L 33.15625 -81.609375 L 29.578125 -46.0625 Z M 81.59375 8.203125 L 70.28125 7.0625 C 67.957031 6.832031 66.34375 5.765625 65.4375 3.859375 L 44.390625 -32.234375 C 43.742188 -33.359375 43.015625 -34.191406 42.203125 -34.734375 C 41.398438 -35.285156 40.101562 -35.648438 38.3125 -35.828125 L 28.65625 -36.796875 L 24.703125 2.484375 L 12.015625 1.203125 L 21.484375 -92.9375 L 48.109375 -90.25 C 54.054688 -89.65625 59.132812 -88.535156 63.34375 -86.890625 C 67.550781 -85.253906 70.953125 -83.15625 73.546875 -80.59375 C 76.148438 -78.03125 77.96875 -75.070312 79 -71.71875 C 80.03125 -68.363281 80.347656 -64.695312 79.953125 -60.71875 C 79.617188 -57.382812 78.78125 -54.320312 77.4375 -51.53125 C 76.09375 -48.75 74.3125 -46.304688 72.09375 -44.203125 C 69.875 -42.109375 67.242188 -40.394531 64.203125 -39.0625 C 61.171875 -37.726562 57.796875 -36.832031 54.078125 -36.375 C 55.609375 -35.28125 56.878906 -33.800781 57.890625 -31.9375 Z M 81.59375 8.203125 "/></g></g></g><g fill="#391125" fill-opacity="1"><g transform="translate(1043.103508, 144.887276)"><g/></g></g><g fill="#391125" fill-opacity="1"><g transform="translate(1104.278218, 156.481692)"><g><path d="M 135.15625 -53.84375 L 104.59375 35.6875 L 93.96875 32.078125 L 116.421875 -33.71875 C 116.722656 -34.59375 117.078125 -35.519531 117.484375 -36.5 C 117.890625 -37.476562 118.304688 -38.476562 118.734375 -39.5 L 68.90625 6 C 67.300781 7.5625 65.519531 8.007812 63.5625 7.34375 L 61.8125 6.734375 C 59.851562 6.066406 58.71875 4.628906 58.40625 2.421875 L 46.21875 -64.53125 C 45.726562 -62.226562 45.160156 -60.140625 44.515625 -58.265625 L 22.0625 7.53125 L 11.4375 3.90625 L 42 -85.625 L 50.9375 -82.578125 C 52.007812 -82.210938 52.800781 -81.828125 53.3125 -81.421875 C 53.832031 -81.015625 54.203125 -80.242188 54.421875 -79.109375 L 66.53125 -13.4375 C 66.6875 -12.257812 66.816406 -11.046875 66.921875 -9.796875 C 67.035156 -8.554688 67.113281 -7.304688 67.15625 -6.046875 C 67.945312 -7.023438 68.757812 -7.988281 69.59375 -8.9375 C 70.4375 -9.882812 71.296875 -10.757812 72.171875 -11.5625 L 121.328125 -56.265625 C 122.160156 -57.054688 122.910156 -57.445312 123.578125 -57.4375 C 124.253906 -57.4375 125.132812 -57.253906 126.21875 -56.890625 Z M 135.15625 -53.84375 "/></g></g></g><g fill="#391125" fill-opacity="1"><g transform="translate(1244.469949, 207.674799)"><g><path d="M 47.65625 13.890625 C 51.113281 15.734375 54.515625 16.796875 57.859375 17.078125 C 61.203125 17.359375 64.375 16.945312 67.375 15.84375 C 70.375 14.75 73.144531 13.007812 75.6875 10.625 C 78.226562 8.25 80.429688 5.3125 82.296875 1.8125 L 109.34375 -48.921875 L 120.578125 -42.9375 L 93.53125 7.796875 C 90.96875 12.617188 87.820312 16.679688 84.09375 19.984375 C 80.375 23.285156 76.285156 25.679688 71.828125 27.171875 C 67.367188 28.660156 62.625 29.160156 57.59375 28.671875 C 52.5625 28.191406 47.476562 26.585938 42.34375 23.859375 C 37.21875 21.117188 33.050781 17.796875 29.84375 13.890625 C 26.632812 9.984375 24.394531 5.757812 23.125 1.21875 C 21.863281 -3.320312 21.5625 -8.054688 22.21875 -12.984375 C 22.882812 -17.921875 24.5 -22.800781 27.0625 -27.625 L 54.109375 -78.359375 L 65.359375 -72.359375 L 38.34375 -21.671875 C 36.476562 -18.179688 35.265625 -14.71875 34.703125 -11.28125 C 34.140625 -7.84375 34.238281 -4.566406 35 -1.453125 C 35.769531 1.648438 37.207031 4.519531 39.3125 7.15625 C 41.425781 9.800781 44.207031 12.046875 47.65625 13.890625 Z M 47.65625 13.890625 "/></g></g></g><g fill="#391125" fill-opacity="1"><g transform="translate(1353.71719, 269.327897)"><g><path d="M 55.375 -1 C 52.332031 3.320312 49.070312 6.816406 45.59375 9.484375 C 42.125 12.148438 38.523438 13.9375 34.796875 14.84375 C 31.066406 15.75 27.25 15.769531 23.34375 14.90625 C 19.4375 14.039062 15.519531 12.226562 11.59375 9.46875 C 8.03125 6.957031 4.75 3.882812 1.75 0.25 C 2.5625 -0.726562 3.378906 -1.691406 4.203125 -2.640625 C 5.023438 -3.597656 5.832031 -4.550781 6.625 -5.5 C 7.125 -6.070312 7.695312 -6.410156 8.34375 -6.515625 C 8.988281 -6.628906 9.707031 -6.410156 10.5 -5.859375 C 11.144531 -5.398438 11.882812 -4.632812 12.71875 -3.5625 C 13.550781 -2.5 14.863281 -1.332031 16.65625 -0.0625 C 19.039062 1.601562 21.421875 2.734375 23.796875 3.328125 C 26.171875 3.929688 28.523438 3.921875 30.859375 3.296875 C 33.191406 2.679688 35.515625 1.429688 37.828125 -0.453125 C 40.148438 -2.335938 42.453125 -4.90625 44.734375 -8.15625 L 80.53125 -59.015625 L 91.015625 -51.640625 Z M 55.375 -1 "/></g></g></g><g fill="#391125" fill-opacity="1"><g transform="translate(1422.396839, 318.950738)"><g><path d="M 59.65625 38.90625 L 52.671875 46.671875 L 9.046875 8.015625 L 71.796875 -62.796875 L 115.421875 -24.140625 L 108.5 -16.34375 L 74.453125 -46.515625 L 53.609375 -22.984375 L 81.1875 1.453125 L 74.53125 8.96875 L 46.953125 -15.46875 L 25.546875 8.6875 Z M 59.65625 38.90625 "/></g></g></g><g fill="#391125" fill-opacity="1"><g transform="translate(1499.543317, 389.427253)"><g><path d="M 61.9375 -3.296875 C 64.375 -0.515625 66.867188 1.644531 69.421875 3.1875 C 71.972656 4.726562 74.492188 5.671875 76.984375 6.015625 C 79.484375 6.367188 81.914062 6.15625 84.28125 5.375 C 86.644531 4.601562 88.867188 3.304688 90.953125 1.484375 C 95.191406 -2.222656 97.171875 -6.410156 96.890625 -11.078125 C 96.609375 -15.753906 94.035156 -20.875 89.171875 -26.4375 L 79.953125 -36.96875 L 53.0625 -13.4375 Z M 54 61.71875 L 46.515625 53.171875 C 44.972656 51.410156 44.519531 49.523438 45.15625 47.515625 L 54.4375 6.765625 C 54.738281 5.515625 54.78125 4.410156 54.5625 3.453125 C 54.34375 2.492188 53.640625 1.335938 52.453125 -0.015625 L 46.0625 -7.3125 L 16.34375 18.6875 L 7.953125 9.09375 L 79.15625 -53.203125 L 96.765625 -33.078125 C 100.703125 -28.578125 103.648438 -24.285156 105.609375 -20.203125 C 107.566406 -16.128906 108.617188 -12.269531 108.765625 -8.625 C 108.910156 -4.988281 108.21875 -1.59375 106.6875 1.5625 C 105.15625 4.726562 102.882812 7.628906 99.875 10.265625 C 97.351562 12.472656 94.648438 14.132812 91.765625 15.25 C 88.878906 16.363281 85.90625 16.925781 82.84375 16.9375 C 79.789062 16.957031 76.703125 16.414062 73.578125 15.3125 C 70.453125 14.21875 67.367188 12.570312 64.328125 10.375 C 64.710938 12.21875 64.632812 14.164062 64.09375 16.21875 Z M 54 61.71875 "/></g></g></g><g fill="#391125" fill-opacity="1"><g transform="translate(1571.079264, 474.226686)"><g><path d="M 47.96875 52.640625 L 39.265625 58.40625 L 6.734375 10.03125 L 85.25 -42.75 L 117.78125 5.625 L 109.125 11.4375 L 83.75 -26.3125 L 57.671875 -8.765625 L 78.21875 21.8125 L 69.890625 27.40625 L 49.34375 -3.171875 L 22.546875 14.828125 Z M 47.96875 52.640625 "/></g></g></g><g fill="#391125" fill-opacity="1"><g transform="translate(1627.975423, 562.182864)"><g><path d="M 98.578125 17.65625 C 97.804688 17.601562 97.164062 17.445312 96.65625 17.1875 C 96.15625 16.925781 95.753906 16.5 95.453125 15.90625 C 95.117188 15.25 95.054688 14.296875 95.265625 13.046875 C 95.472656 11.796875 95.632812 10.289062 95.75 8.53125 C 95.875 6.78125 95.78125 4.78125 95.46875 2.53125 C 95.15625 0.289062 94.3125 -2.179688 92.9375 -4.890625 C 91.644531 -7.429688 90.160156 -9.5 88.484375 -11.09375 C 86.804688 -12.6875 85.046875 -13.835938 83.203125 -14.546875 C 81.359375 -15.265625 79.472656 -15.554688 77.546875 -15.421875 C 75.617188 -15.285156 73.734375 -14.75 71.890625 -13.8125 C 69.535156 -12.613281 67.878906 -11.035156 66.921875 -9.078125 C 65.960938 -7.128906 65.414062 -4.925781 65.28125 -2.46875 C 65.144531 -0.0078125 65.289062 2.628906 65.71875 5.453125 C 66.144531 8.273438 66.570312 11.164062 67 14.125 C 67.425781 17.09375 67.710938 20.0625 67.859375 23.03125 C 68.015625 26 67.753906 28.851562 67.078125 31.59375 C 66.398438 34.332031 65.15625 36.890625 63.34375 39.265625 C 61.539062 41.640625 58.894531 43.71875 55.40625 45.5 C 51.71875 47.375 47.9375 48.503906 44.0625 48.890625 C 40.195312 49.285156 36.453125 48.890625 32.828125 47.703125 C 29.203125 46.515625 25.804688 44.515625 22.640625 41.703125 C 19.472656 38.890625 16.753906 35.25 14.484375 30.78125 C 11.679688 25.289062 10.132812 19.800781 9.84375 14.3125 C 9.550781 8.832031 10.285156 3.648438 12.046875 -1.234375 L 19.125 -0.6875 C 19.71875 -0.613281 20.273438 -0.421875 20.796875 -0.109375 C 21.328125 0.203125 21.726562 0.628906 22 1.171875 C 22.257812 1.679688 22.347656 2.363281 22.265625 3.21875 C 22.191406 4.070312 22.046875 5.070312 21.828125 6.21875 C 21.617188 7.363281 21.414062 8.65625 21.21875 10.09375 C 21.019531 11.53125 20.945312 13.082031 21 14.75 C 21.0625 16.425781 21.328125 18.226562 21.796875 20.15625 C 22.265625 22.09375 23.046875 24.140625 24.140625 26.296875 C 25.523438 29.003906 27.128906 31.226562 28.953125 32.96875 C 30.773438 34.707031 32.734375 35.96875 34.828125 36.75 C 36.929688 37.53125 39.125 37.832031 41.40625 37.65625 C 43.6875 37.488281 45.988281 36.8125 48.3125 35.625 C 50.851562 34.332031 52.640625 32.691406 53.671875 30.703125 C 54.710938 28.722656 55.304688 26.507812 55.453125 24.0625 C 55.597656 21.613281 55.429688 18.976562 54.953125 16.15625 C 54.484375 13.332031 54.007812 10.460938 53.53125 7.546875 C 53.0625 4.640625 52.734375 1.703125 52.546875 -1.265625 C 52.367188 -4.242188 52.640625 -7.101562 53.359375 -9.84375 C 54.085938 -12.59375 55.421875 -15.1875 57.359375 -17.625 C 59.304688 -20.070312 62.144531 -22.25 65.875 -24.15625 C 68.851562 -25.664062 72.03125 -26.550781 75.40625 -26.8125 C 78.78125 -27.082031 82.109375 -26.660156 85.390625 -25.546875 C 88.671875 -24.429688 91.785156 -22.582031 94.734375 -20 C 97.679688 -17.414062 100.222656 -14.023438 102.359375 -9.828125 C 104.753906 -5.117188 106.191406 -0.457031 106.671875 4.15625 C 107.148438 8.769531 106.722656 13.273438 105.390625 17.671875 Z M 98.578125 17.65625 "/></g></g></g></g></g><g transform="matrix(1, 0, 0, 1, 239, 1461)"><g clip-path="url(#68fe9ae2e8)"><g fill="#391125" fill-opacity="1"><g transform="translate(23.868376, 76.224598)"><g/></g></g><g fill="#391125" fill-opacity="1"><g transform="translate(66.424863, 135.68685)"><g><path d="M 35.90625 -18.265625 C 38.914062 -20.835938 42.234375 -22.679688 45.859375 -23.796875 C 49.492188 -24.910156 53.148438 -25.332031 56.828125 -25.0625 C 60.515625 -24.800781 64.054688 -23.832031 67.453125 -22.15625 C 70.847656 -20.488281 73.835938 -18.148438 76.421875 -15.140625 C 78.992188 -12.140625 80.859375 -8.816406 82.015625 -5.171875 C 83.171875 -1.535156 83.597656 2.117188 83.296875 5.796875 C 83.003906 9.484375 82.03125 13.035156 80.375 16.453125 C 78.726562 19.878906 76.398438 22.878906 73.390625 25.453125 C 70.421875 28.003906 67.128906 29.828125 63.515625 30.921875 C 59.898438 32.015625 56.257812 32.414062 52.59375 32.125 C 48.9375 31.84375 45.390625 30.851562 41.953125 29.15625 C 38.523438 27.457031 35.523438 25.109375 32.953125 22.109375 C 30.367188 19.097656 28.515625 15.785156 27.390625 12.171875 C 26.273438 8.554688 25.851562 4.914062 26.125 1.25 C 26.40625 -2.40625 27.363281 -5.929688 29 -9.328125 C 30.632812 -12.734375 32.9375 -15.710938 35.90625 -18.265625 Z M 35.90625 -18.265625 "/></g></g></g><g fill="#391125" fill-opacity="1"><g transform="translate(144.066025, 221.580879)"><g/></g></g><g fill="#391125" fill-opacity="1"><g transform="translate(196.230768, 270.39077)"><g><path d="M 59.578125 -11.28125 C 62.453125 -9.03125 65.289062 -7.425781 68.09375 -6.46875 C 70.894531 -5.519531 73.582031 -5.140625 76.15625 -5.328125 C 78.738281 -5.523438 81.15625 -6.28125 83.40625 -7.59375 C 85.664062 -8.90625 87.6875 -10.707031 89.46875 -13 C 93.175781 -17.738281 94.609375 -22.585938 93.765625 -27.546875 C 92.929688 -32.515625 89.53125 -37.328125 83.5625 -41.984375 L 71.578125 -51.328125 L 47.59375 -20.625 Z M 89.78125 -49.953125 C 94.5 -46.265625 98.171875 -42.515625 100.796875 -38.703125 C 103.429688 -34.898438 105.109375 -31.09375 105.828125 -27.28125 C 106.546875 -23.476562 106.359375 -19.710938 105.265625 -15.984375 C 104.171875 -12.265625 102.257812 -8.65625 99.53125 -5.15625 C 96.820312 -1.675781 93.734375 1.023438 90.265625 2.953125 C 86.796875 4.890625 83.078125 5.984375 79.109375 6.234375 C 75.140625 6.484375 70.972656 5.84375 66.609375 4.3125 C 62.253906 2.78125 57.828125 0.253906 53.328125 -3.265625 L 41.34375 -12.609375 L 19.5625 15.28125 L 9.515625 7.4375 L 67.75 -67.140625 Z M 89.78125 -49.953125 "/></g></g></g><g fill="#391125" fill-opacity="1"><g transform="translate(292.481904, 342.518848)"><g><path d="M 71.53125 1.234375 L 78.1875 -39.484375 C 78.394531 -40.691406 78.671875 -42.070312 79.015625 -43.625 C 79.367188 -45.175781 79.796875 -46.800781 80.296875 -48.5 C 77.691406 -45.894531 75.367188 -43.816406 73.328125 -42.265625 L 41.046875 -16.640625 Z M 76.78125 45.046875 L 68.234375 40.03125 C 67.242188 39.445312 66.59375 38.726562 66.28125 37.875 C 65.96875 37.03125 65.875 36.144531 66 35.21875 L 69.9375 11.015625 L 33.3125 -10.46875 L 14.125 4.78125 C 13.5 5.320312 12.707031 5.664062 11.75 5.8125 C 10.789062 5.96875 9.832031 5.765625 8.875 5.203125 L 0.34375 0.203125 L 80.859375 -62.265625 L 92.015625 -55.71875 Z M 76.78125 45.046875 "/></g></g></g><g fill="#391125" fill-opacity="1"><g transform="translate(406.481199, 405.938706)"><g><path d="M 54.15625 -30.234375 C 57.5625 -28.804688 60.75 -27.960938 63.71875 -27.703125 C 66.6875 -27.441406 69.375 -27.695312 71.78125 -28.46875 C 74.195312 -29.25 76.289062 -30.507812 78.0625 -32.25 C 79.832031 -34 81.253906 -36.148438 82.328125 -38.703125 C 84.503906 -43.898438 84.4375 -48.53125 82.125 -52.59375 C 79.820312 -56.664062 75.257812 -60.128906 68.4375 -62.984375 L 55.53125 -68.390625 L 41.734375 -35.4375 Z M 75.65625 31.65625 L 65.171875 27.265625 C 63.023438 26.367188 61.789062 24.875 61.46875 22.78125 L 51.859375 -17.890625 C 51.566406 -19.140625 51.113281 -20.144531 50.5 -20.90625 C 49.882812 -21.664062 48.75 -22.394531 47.09375 -23.09375 L 38.140625 -26.84375 L 22.90625 9.578125 L 11.140625 4.65625 L 47.671875 -82.640625 L 72.34375 -72.3125 C 77.875 -70 82.410156 -67.441406 85.953125 -64.640625 C 89.503906 -61.835938 92.148438 -58.832031 93.890625 -55.625 C 95.628906 -52.414062 96.503906 -49.054688 96.515625 -45.546875 C 96.523438 -42.035156 95.753906 -38.429688 94.203125 -34.734375 C 92.910156 -31.648438 91.21875 -28.972656 89.125 -26.703125 C 87.03125 -24.429688 84.609375 -22.613281 81.859375 -21.25 C 79.117188 -19.882812 76.109375 -19.007812 72.828125 -18.625 C 69.546875 -18.238281 66.054688 -18.363281 62.359375 -19 C 63.503906 -17.519531 64.28125 -15.742188 64.6875 -13.671875 Z M 75.65625 31.65625 "/></g></g></g><g fill="#391125" fill-opacity="1"><g transform="translate(521.647231, 451.380473)"><g><path d="M 69.296875 -17.78125 L 64.921875 -58.8125 C 64.796875 -60.03125 64.695312 -61.429688 64.625 -63.015625 C 64.550781 -64.609375 64.519531 -66.296875 64.53125 -68.078125 C 62.71875 -64.867188 61.039062 -62.242188 59.5 -60.203125 L 35.171875 -26.921875 Z M 85.96875 23.0625 L 76.40625 20.5 C 75.300781 20.195312 74.476562 19.675781 73.9375 18.9375 C 73.40625 18.207031 73.085938 17.375 72.984375 16.4375 L 70.359375 -7.921875 L 29.34375 -18.921875 L 14.875 0.859375 C 14.425781 1.546875 13.757812 2.085938 12.875 2.484375 C 11.988281 2.890625 11.007812 2.953125 9.9375 2.671875 L 0.375 0.09375 L 61.4375 -81.484375 L 73.9375 -78.140625 Z M 85.96875 23.0625 "/></g></g></g><g fill="#391125" fill-opacity="1"><g transform="translate(647.122662, 481.303023)"><g/></g></g><g fill="#391125" fill-opacity="1"><g transform="translate(720.750154, 493.047338)"><g><path d="M 113.28125 -91.296875 L 110.484375 3.28125 L 99.265625 2.9375 L 101.328125 -66.5625 C 101.347656 -67.488281 101.40625 -68.476562 101.5 -69.53125 C 101.601562 -70.582031 101.71875 -71.65625 101.84375 -72.75 L 67.609375 -14.59375 C 66.546875 -12.644531 64.976562 -11.695312 62.90625 -11.75 L 61.0625 -11.8125 C 58.988281 -11.875 57.472656 -12.910156 56.515625 -14.921875 L 25.140625 -75.296875 C 25.335938 -72.953125 25.410156 -70.789062 25.359375 -68.8125 L 23.296875 0.6875 L 12.078125 0.359375 L 14.875 -94.21875 L 24.3125 -93.9375 C 25.457031 -93.90625 26.332031 -93.769531 26.9375 -93.53125 C 27.550781 -93.289062 28.128906 -92.65625 28.671875 -91.625 L 59.625 -32.453125 C 60.113281 -31.378906 60.59375 -30.257812 61.0625 -29.09375 C 61.539062 -27.9375 61.984375 -26.757812 62.390625 -25.5625 C 62.859375 -26.738281 63.351562 -27.898438 63.875 -29.046875 C 64.394531 -30.203125 64.957031 -31.300781 65.5625 -32.34375 L 99.359375 -89.53125 C 99.921875 -90.53125 100.519531 -91.128906 101.15625 -91.328125 C 101.800781 -91.535156 102.695312 -91.617188 103.84375 -91.578125 Z M 113.28125 -91.296875 "/></g></g></g><g fill="#391125" fill-opacity="1"><g transform="translate(885.771544, 493.497267)"><g><path d="M 46.84375 -16.4375 C 50.726562 -16.945312 54.113281 -18.054688 57 -19.765625 C 59.882812 -21.472656 62.226562 -23.644531 64.03125 -26.28125 C 65.832031 -28.925781 67.078125 -31.957031 67.765625 -35.375 C 68.453125 -38.800781 68.535156 -42.476562 68.015625 -46.40625 L 60.5 -103.421875 L 73.125 -105.09375 L 80.640625 -48.078125 C 81.359375 -42.660156 81.15625 -37.523438 80.03125 -32.671875 C 78.914062 -27.816406 76.976562 -23.484375 74.21875 -19.671875 C 71.46875 -15.867188 67.898438 -12.703125 63.515625 -10.171875 C 59.140625 -7.648438 54.070312 -6.007812 48.3125 -5.25 C 42.5625 -4.488281 37.25 -4.757812 32.375 -6.0625 C 27.5 -7.375 23.21875 -9.507812 19.53125 -12.46875 C 15.851562 -15.425781 12.847656 -19.101562 10.515625 -23.5 C 8.179688 -27.894531 6.65625 -32.800781 5.9375 -38.21875 L -1.578125 -95.234375 L 11.0625 -96.90625 L 18.578125 -39.953125 C 19.097656 -36.023438 20.125 -32.492188 21.65625 -29.359375 C 23.195312 -26.234375 25.179688 -23.632812 27.609375 -21.5625 C 30.046875 -19.488281 32.890625 -17.988281 36.140625 -17.0625 C 39.390625 -16.132812 42.957031 -15.925781 46.84375 -16.4375 Z M 46.84375 -16.4375 "/></g></g></g><g fill="#391125" fill-opacity="1"><g transform="translate(1021.619302, 471.763438)"><g><path d="M 35.03125 -42.890625 C 36.363281 -37.785156 36.925781 -33.046875 36.71875 -28.671875 C 36.519531 -24.296875 35.554688 -20.394531 33.828125 -16.96875 C 32.109375 -13.539062 29.648438 -10.613281 26.453125 -8.1875 C 23.265625 -5.757812 19.347656 -3.941406 14.703125 -2.734375 C 10.492188 -1.628906 6.035156 -1.101562 1.328125 -1.15625 C 1.085938 -2.414062 0.875 -3.671875 0.6875 -4.921875 C 0.507812 -6.171875 0.304688 -7.398438 0.078125 -8.609375 C -0.0234375 -9.359375 0.0820312 -10.015625 0.40625 -10.578125 C 0.738281 -11.148438 1.375 -11.554688 2.3125 -11.796875 C 3.082031 -11.992188 4.144531 -12.0625 5.5 -12 C 6.863281 -11.945312 8.613281 -12.195312 10.75 -12.75 C 13.550781 -13.476562 15.945312 -14.554688 17.9375 -15.984375 C 19.9375 -17.421875 21.445312 -19.226562 22.46875 -21.40625 C 23.5 -23.582031 24.039062 -26.164062 24.09375 -29.15625 C 24.15625 -32.15625 23.6875 -35.570312 22.6875 -39.40625 L 7.015625 -99.609375 L 19.421875 -102.84375 Z M 35.03125 -42.890625 "/></g></g></g><g fill="#391125" fill-opacity="1"><g transform="translate(1113.814062, 446.042385)"><g><path d="M 62.03125 -35 L 65.71875 -25.234375 L 11.28125 -4.328125 L -22.640625 -92.671875 L 31.796875 -113.578125 L 35.546875 -103.828125 L -6.9375 -87.515625 L 4.328125 -58.1875 L 38.71875 -71.390625 L 42.3125 -62 L 7.921875 -48.796875 L 19.5 -18.671875 Z M 62.03125 -35 "/></g></g></g><g fill="#391125" fill-opacity="1"><g transform="translate(1222.118772, 401.910634)"><g><path d="M 10.625 -61.109375 C 13.875 -62.859375 16.535156 -64.800781 18.609375 -66.9375 C 20.679688 -69.082031 22.164062 -71.335938 23.0625 -73.703125 C 23.96875 -76.066406 24.304688 -78.484375 24.078125 -80.953125 C 23.847656 -83.429688 23.078125 -85.894531 21.765625 -88.34375 C 19.097656 -93.300781 15.457031 -96.160156 10.84375 -96.921875 C 6.238281 -97.691406 0.675781 -96.320312 -5.84375 -92.8125 L -18.171875 -86.1875 L -1.25 -54.734375 Z M 72.234375 -38.84375 L 62.21875 -33.46875 C 60.164062 -32.363281 58.226562 -32.34375 56.40625 -33.40625 L 18.75 -51.546875 C 17.59375 -52.117188 16.523438 -52.40625 15.546875 -52.40625 C 14.578125 -52.40625 13.296875 -51.976562 11.703125 -51.125 L 3.15625 -46.53125 L 21.859375 -11.765625 L 10.640625 -5.71875 L -34.1875 -89.046875 L -10.640625 -101.71875 C -5.359375 -104.5625 -0.515625 -106.476562 3.890625 -107.46875 C 8.304688 -108.46875 12.304688 -108.628906 15.890625 -107.953125 C 19.484375 -107.285156 22.644531 -105.851562 25.375 -103.65625 C 28.113281 -101.457031 30.429688 -98.59375 32.328125 -95.0625 C 33.910156 -92.113281 34.921875 -89.109375 35.359375 -86.046875 C 35.804688 -82.984375 35.695312 -79.957031 35.03125 -76.96875 C 34.363281 -73.988281 33.144531 -71.101562 31.375 -68.3125 C 29.613281 -65.519531 27.320312 -62.882812 24.5 -60.40625 C 26.363281 -60.363281 28.234375 -59.847656 30.109375 -58.859375 Z M 72.234375 -38.84375 "/></g></g></g><g fill="#391125" fill-opacity="1"><g transform="translate(1329.449001, 341.013084)"><g><path d="M 51.265625 -49.4375 L 57.265625 -40.921875 L 9.828125 -7.015625 L -45.1875 -84 L 2.25 -117.90625 L 8.328125 -109.421875 L -28.6875 -82.96875 L -10.421875 -57.40625 L 19.5625 -78.828125 L 25.40625 -70.640625 L -4.578125 -49.21875 L 14.1875 -22.953125 Z M 51.265625 -49.4375 "/></g></g></g><g fill="#391125" fill-opacity="1"><g transform="translate(1422.807609, 271.136245)"><g><path d="M -9.265625 -99.71875 C -9.117188 -98.96875 -9.101562 -98.3125 -9.21875 -97.75 C -9.332031 -97.195312 -9.632812 -96.695312 -10.125 -96.25 C -10.675781 -95.75 -11.578125 -95.429688 -12.828125 -95.296875 C -14.085938 -95.171875 -15.578125 -94.925781 -17.296875 -94.5625 C -19.023438 -94.195312 -20.929688 -93.570312 -23.015625 -92.6875 C -25.109375 -91.800781 -27.273438 -90.328125 -29.515625 -88.265625 C -31.617188 -86.335938 -33.210938 -84.351562 -34.296875 -82.3125 C -35.390625 -80.28125 -36.035156 -78.28125 -36.234375 -76.3125 C -36.429688 -74.34375 -36.203125 -72.445312 -35.546875 -70.625 C -34.890625 -68.800781 -33.867188 -67.128906 -32.484375 -65.609375 C -30.691406 -63.660156 -28.726562 -62.484375 -26.59375 -62.078125 C -24.46875 -61.671875 -22.195312 -61.734375 -19.78125 -62.265625 C -17.375 -62.796875 -14.867188 -63.640625 -12.265625 -64.796875 C -9.660156 -65.960938 -6.984375 -67.144531 -4.234375 -68.34375 C -1.484375 -69.550781 1.296875 -70.625 4.109375 -71.5625 C 6.921875 -72.5 9.738281 -73.003906 12.5625 -73.078125 C 15.382812 -73.160156 18.179688 -72.644531 20.953125 -71.53125 C 23.722656 -70.425781 26.429688 -68.429688 29.078125 -65.546875 C 31.867188 -62.492188 33.96875 -59.148438 35.375 -55.515625 C 36.789062 -51.890625 37.40625 -48.171875 37.21875 -44.359375 C 37.039062 -40.554688 36.019531 -36.753906 34.15625 -32.953125 C 32.289062 -29.148438 29.503906 -25.554688 25.796875 -22.171875 C 21.253906 -18.015625 16.378906 -15.0625 11.171875 -13.3125 C 5.972656 -11.5625 0.78125 -10.878906 -4.40625 -11.265625 L -5.765625 -18.25 C -5.847656 -18.84375 -5.8125 -19.429688 -5.65625 -20.015625 C -5.5 -20.609375 -5.191406 -21.113281 -4.734375 -21.53125 C -4.316406 -21.914062 -3.6875 -22.179688 -2.84375 -22.328125 C -2 -22.484375 -1 -22.609375 0.15625 -22.703125 C 1.320312 -22.804688 2.625 -22.953125 4.0625 -23.140625 C 5.5 -23.328125 7.015625 -23.671875 8.609375 -24.171875 C 10.203125 -24.679688 11.867188 -25.414062 13.609375 -26.375 C 15.359375 -27.34375 17.125 -28.648438 18.90625 -30.296875 C 21.144531 -32.335938 22.859375 -34.46875 24.046875 -36.6875 C 25.242188 -38.914062 25.9375 -41.148438 26.125 -43.390625 C 26.320312 -45.628906 26.03125 -47.820312 25.25 -49.96875 C 24.476562 -52.125 23.21875 -54.160156 21.46875 -56.078125 C 19.53125 -58.191406 17.460938 -59.476562 15.265625 -59.9375 C 13.078125 -60.40625 10.789062 -60.382812 8.40625 -59.875 C 6.019531 -59.363281 3.523438 -58.5 0.921875 -57.28125 C -1.671875 -56.070312 -4.304688 -54.847656 -6.984375 -53.609375 C -9.671875 -52.378906 -12.421875 -51.28125 -15.234375 -50.3125 C -18.054688 -49.34375 -20.882812 -48.84375 -23.71875 -48.8125 C -26.5625 -48.789062 -29.421875 -49.390625 -32.296875 -50.609375 C -35.171875 -51.828125 -38.019531 -53.976562 -40.84375 -57.0625 C -43.101562 -59.53125 -44.804688 -62.351562 -45.953125 -65.53125 C -47.109375 -68.71875 -47.585938 -72.039062 -47.390625 -75.5 C -47.191406 -78.96875 -46.238281 -82.460938 -44.53125 -85.984375 C -42.832031 -89.503906 -40.25 -92.851562 -36.78125 -96.03125 C -32.882812 -99.59375 -28.769531 -102.222656 -24.4375 -103.921875 C -20.101562 -105.617188 -15.65625 -106.414062 -11.09375 -106.3125 Z M -9.265625 -99.71875 "/></g></g></g><g fill="#391125" fill-opacity="1"><g transform="translate(1502.576743, 194.314533)"><g/></g></g><g fill="#391125" fill-opacity="1"><g transform="translate(1550.813947, 139.360359)"><g><path d="M -23.515625 -34.359375 C -26.253906 -36.367188 -28.445312 -38.785156 -30.09375 -41.609375 C -31.738281 -44.429688 -32.800781 -47.382812 -33.28125 -50.46875 C -33.769531 -53.550781 -33.660156 -56.671875 -32.953125 -59.828125 C -32.253906 -62.992188 -30.914062 -65.925781 -28.9375 -68.625 C -26.9375 -71.351562 -24.53125 -73.535156 -21.71875 -75.171875 C -18.90625 -76.804688 -15.945312 -77.863281 -12.84375 -78.34375 C -9.738281 -78.820312 -6.59375 -78.695312 -3.40625 -77.96875 C -0.226562 -77.25 2.726562 -75.882812 5.46875 -73.875 C 8.195312 -71.875 10.375 -69.472656 12 -66.671875 C 13.632812 -63.867188 14.679688 -60.914062 15.140625 -57.8125 C 15.597656 -54.71875 15.46875 -51.585938 14.75 -48.421875 C 14.03125 -45.253906 12.671875 -42.304688 10.671875 -39.578125 C 8.691406 -36.878906 6.300781 -34.710938 3.5 -33.078125 C 0.707031 -31.453125 -2.222656 -30.40625 -5.296875 -29.9375 C -8.378906 -29.476562 -11.503906 -29.597656 -14.671875 -30.296875 C -17.835938 -31.003906 -20.785156 -32.359375 -23.515625 -34.359375 Z M -23.515625 -34.359375 "/></g></g></g></g></g><g clip-path="url(#e2bbc33cae)"><path fill="#391125" d="M 1241.695312 1756.363281 C 1203.464844 1739.09375 1167.445312 1719.449219 1135.144531 1693.398438 C 1091.316406 1658.058594 1054.796875 1617.355469 1036.628906 1562.675781 C 1027.527344 1535.285156 1024.023438 1507.308594 1029.058594 1478.882812 C 1038.351562 1426.46875 1068.964844 1390.109375 1116.015625 1366.722656 C 1136.234375 1356.667969 1157.621094 1350.972656 1180.132812 1349.449219 C 1181.265625 1349.375 1182.472656 1349.453125 1183.546875 1349.777344 C 1184.269531 1350 1184.828125 1350.78125 1185.441406 1351.300781 C 1185.421875 1355.863281 1181.933594 1356.035156 1178.960938 1357.023438 C 1131.789062 1372.667969 1103.433594 1406.070312 1090.074219 1452.820312 C 1071.914062 1516.359375 1086.929688 1574.445312 1122.328125 1627.9375 C 1157.042969 1680.398438 1205.980469 1716.238281 1262.265625 1743.019531 C 1308.015625 1764.785156 1356.027344 1779.210938 1406.273438 1783.335938 C 1447.5 1786.71875 1489.074219 1786.679688 1530.320312 1779.804688 C 1568.65625 1773.414062 1606.25 1764.484375 1642.773438 1751.121094 C 1654.507812 1746.828125 1655.082031 1745.484375 1651.359375 1733.289062 C 1639.632812 1694.878906 1629.128906 1656.0625 1616.285156 1618.03125 C 1601.144531 1573.199219 1592.105469 1526.191406 1569.90625 1483.847656 C 1552.644531 1450.925781 1527.558594 1424.617188 1498.613281 1401.710938 C 1452.46875 1365.199219 1400.167969 1338.445312 1350.203125 1308.003906 C 1311.5 1284.421875 1273.464844 1260.117188 1242.136719 1226.730469 C 1209.597656 1192.058594 1190.472656 1151.566406 1192.453125 1103.582031 C 1194.300781 1058.914062 1211.601562 1019.800781 1242.167969 986.894531 C 1268.738281 958.292969 1300.304688 937.382812 1337.664062 925.554688 C 1377.585938 912.921875 1418.1875 910.636719 1459.558594 916.695312 C 1508.214844 923.824219 1552.796875 941.292969 1594.292969 967.332031 C 1600.515625 971.238281 1603.589844 975.710938 1604.03125 983.320312 C 1605.953125 1016.378906 1604.371094 1049.453125 1605.089844 1082.507812 C 1605.164062 1085.820312 1605.738281 1089.648438 1601.367188 1091.253906 C 1597.429688 1089.816406 1598.109375 1086.191406 1597.289062 1083.277344 C 1580.40625 1023.429688 1549.351562 974.234375 1492.347656 944.902344 C 1468.039062 932.394531 1442.21875 926.503906 1414.636719 925.933594 C 1381.351562 925.246094 1349.996094 930.753906 1321.175781 947.785156 C 1284.886719 969.226562 1258.617188 998.636719 1250.75 1041.265625 C 1243.246094 1081.925781 1250.722656 1119.320312 1276.570312 1152.730469 C 1299.800781 1182.761719 1330.640625 1203.421875 1361.847656 1223.386719 C 1397.972656 1246.492188 1435.339844 1267.640625 1471.914062 1290.058594 C 1510.011719 1313.40625 1547.042969 1338.226562 1579.449219 1369.386719 C 1615.808594 1404.34375 1640.644531 1446.179688 1655.828125 1494.078125 C 1675.5 1556.125 1694.03125 1618.511719 1711.929688 1681.089844 C 1714.234375 1689.144531 1716.832031 1697.121094 1719.292969 1705.132812 C 1722.304688 1714.9375 1722.902344 1715.398438 1731.667969 1710.820312 C 1748.890625 1701.832031 1765.820312 1692.316406 1782.332031 1682.058594 C 1824.222656 1656.03125 1864.390625 1627.484375 1904.75 1599.195312 C 1910.460938 1595.191406 1911.9375 1591.3125 1909.546875 1584.609375 C 1897.207031 1550 1885.332031 1515.226562 1873.164062 1480.554688 C 1864.640625 1456.273438 1855.160156 1432.296875 1847.472656 1407.757812 C 1839.460938 1382.195312 1823.695312 1366.621094 1796.925781 1362.699219 C 1795.238281 1362.453125 1793.597656 1361.769531 1791.996094 1361.136719 C 1791.582031 1360.972656 1791.398438 1360.226562 1790.839844 1359.3125 C 1792.675781 1355.515625 1796.402344 1356.132812 1799.648438 1356.128906 C 1855.636719 1356.066406 1911.625 1356.054688 1967.609375 1356.078125 C 1970.914062 1356.082031 1974.578125 1355.628906 1976.617188 1359.46875 C 1974.078125 1363.808594 1969.988281 1363.109375 1966.445312 1363.429688 C 1957.894531 1364.207031 1949.96875 1367.058594 1942.675781 1371.25 C 1928.875 1379.171875 1923.78125 1393.488281 1928.644531 1411.429688 C 1936.519531 1440.476562 1947.195312 1468.628906 1956.722656 1497.148438 C 1961.03125 1510.054688 1965.21875 1523.003906 1969.636719 1535.875 C 1972.816406 1545.128906 1974.488281 1545.667969 1982.257812 1539.644531 C 2012.269531 1516.382812 2041.90625 1492.621094 2072.210938 1469.746094 C 2150.0625 1410.992188 2229.632812 1354.769531 2319.898438 1316.191406 C 2352.316406 1302.339844 2385.863281 1291.371094 2421.597656 1288.375 C 2464.601562 1284.773438 2505.035156 1305.152344 2520.546875 1338.863281 C 2541.988281 1385.460938 2522.421875 1438.230469 2485.28125 1465.964844 C 2475.488281 1473.28125 2464.921875 1479.367188 2453.355469 1483.480469 C 2448.863281 1485.078125 2443.496094 1488.1875 2441.1875 1480.820312 C 2439.230469 1474.558594 2444.371094 1472.667969 2448.734375 1471.238281 C 2460.78125 1467.292969 2471.238281 1460.621094 2481.21875 1453.074219 C 2512.058594 1429.765625 2524.980469 1379.261719 2508.308594 1344.574219 C 2494.726562 1316.328125 2471.253906 1302.398438 2440.273438 1301.199219 C 2421.6875 1300.480469 2421.921875 1300.957031 2415.566406 1318.101562 C 2392.203125 1381.136719 2366.945312 1443.425781 2341.214844 1505.53125 C 2298.390625 1608.890625 2254.203125 1711.664062 2209.347656 1814.160156 C 2174.496094 1893.800781 2140.078125 1973.632812 2103.410156 2052.46875 C 2099.871094 2060.082031 2096.585938 2067.8125 2093.21875 2075.503906 C 2092.269531 2077.675781 2091.335938 2079.953125 2088.609375 2080.160156 C 2085.242188 2080.414062 2084.367188 2077.503906 2083.304688 2075.234375 C 2076.039062 2059.722656 2071.777344 2043.113281 2065.910156 2027.089844 C 2051.902344 1988.808594 2037.832031 1950.546875 2024.199219 1912.132812 C 2008.140625 1866.882812 1992.636719 1821.4375 1976.671875 1776.15625 C 1962.058594 1734.703125 1947.160156 1693.355469 1932.351562 1651.972656 C 1932.179688 1651.492188 1931.554688 1651.167969 1930.535156 1650.191406 C 1925.320312 1656.160156 1923.644531 1663.832031 1921.039062 1670.789062 C 1891.746094 1748.921875 1863.722656 1827.546875 1833.292969 1905.230469 C 1811.742188 1960.238281 1790.3125 2015.28125 1769.332031 2070.503906 C 1768.816406 2071.859375 1768.1875 2073.167969 1767.621094 2074.503906 C 1766.488281 2077.164062 1765.617188 2080.421875 1762.070312 2080.390625 C 1758.269531 2080.355469 1758.003906 2076.777344 1757.1875 2074.109375 C 1750.5 2052.277344 1744.070312 2030.367188 1737.195312 2008.59375 C 1724.222656 1967.53125 1710.835938 1926.601562 1697.9375 1885.515625 C 1685.835938 1846.960938 1674.257812 1808.242188 1662.210938 1769.671875 C 1658.605469 1758.125 1658.238281 1758.207031 1646.390625 1762.476562 C 1610.921875 1775.261719 1574.738281 1784.78125 1537.46875 1791.285156 C 1489.011719 1799.742188 1440.453125 1799.324219 1391.972656 1795.855469 C 1339.917969 1792.132812 1290.371094 1776.683594 1241.695312 1756.363281 M 2350.476562 1448.347656 C 2369.328125 1400.933594 2389.699219 1354.089844 2406.375 1304.378906 C 2401.117188 1304.746094 2397.597656 1304.539062 2394.300781 1305.292969 C 2362.257812 1312.621094 2331.871094 1324.648438 2302.171875 1338.472656 C 2242.792969 1366.113281 2188.515625 1402.238281 2134.984375 1439.558594 C 2083.121094 1475.714844 2034.476562 1516.132812 1983.742188 1553.785156 C 1978.839844 1557.421875 1979.015625 1561.8125 1980.746094 1566.921875 C 1985.113281 1579.789062 1989.15625 1592.765625 1993.570312 1605.617188 C 2007.851562 1647.203125 2022.003906 1688.835938 2036.636719 1730.296875 C 2064.660156 1809.691406 2090.90625 1889.6875 2117.472656 1969.574219 C 2118.515625 1972.710938 2119.253906 1976.273438 2122.890625 1977.820312 C 2131.585938 1964.738281 2309.929688 1549.660156 2350.476562 1448.347656 M 1781.597656 1918.796875 C 1787.363281 1933.351562 1788.851562 1949.363281 1796.394531 1965.164062 C 1798.433594 1960.859375 1799.835938 1958.351562 1800.847656 1955.695312 C 1812.9375 1924.027344 1825.019531 1892.351562 1837.007812 1860.644531 C 1865.082031 1786.402344 1892.863281 1712.046875 1921.382812 1637.980469 C 1926.085938 1625.765625 1920.820312 1617.253906 1916.378906 1607.203125 C 1914.328125 1608.144531 1913.210938 1608.492188 1912.28125 1609.113281 C 1908.667969 1611.535156 1905.066406 1613.980469 1901.546875 1616.53125 C 1847.976562 1655.308594 1793.824219 1693.179688 1734.6875 1723.234375 C 1728.097656 1726.582031 1726.371094 1730.296875 1728.628906 1737.726562 C 1737.863281 1768.144531 1746.3125 1798.804688 1755.195312 1829.332031 C 1763.75 1858.746094 1772.484375 1888.105469 1781.597656 1918.796875 Z M 1781.597656 1918.796875 " fill-opacity="1" fill-rule="nonzero"/></g><g clip-path="url(#f345db4c39)"><path fill="#391125" d="M 1972.023438 1068.738281 C 1961.8125 1071.421875 1951.859375 1073.203125 1942.140625 1075.847656 C 1917.21875 1082.617188 1902.09375 1099.03125 1896.078125 1124.007812 C 1894.792969 1129.347656 1893.808594 1134.769531 1892.332031 1140.054688 C 1891.382812 1143.449219 1891.542969 1147.648438 1885.6875 1150.136719 C 1880.113281 1129.214844 1878.128906 1106.816406 1861.707031 1090.949219 C 1845.515625 1075.300781 1823.574219 1073.671875 1802.761719 1069.402344 C 1804.484375 1063.894531 1808.0625 1064.28125 1811.027344 1063.699219 C 1817.828125 1062.367188 1824.660156 1061.191406 1831.460938 1059.871094 C 1860.246094 1054.28125 1874.191406 1034.535156 1881.074219 1007.957031 C 1882.621094 1001.992188 1883.238281 995.65625 1886.933594 989.65625 C 1892.050781 994 1892.277344 999.589844 1893.445312 1004.753906 C 1897.996094 1024.855469 1906.042969 1042.632812 1925.042969 1053.390625 C 1936.933594 1060.125 1950.042969 1062.019531 1963.28125 1063.640625 C 1966.753906 1064.0625 1971.195312 1063.074219 1972.023438 1068.738281 Z M 1972.023438 1068.738281 " fill-opacity="1" fill-rule="nonzero"/></g><g clip-path="url(#4b66d85297)"><g clip-path="url(#989f18299e)"><path stroke-linecap="butt" transform="matrix(0.749951, 0, 0, 0.749951, 295.423568, 286.650199)" fill="none" stroke-linejoin="miter" d="M 1004.501228 -0.00234889 C 449.735619 -0.00234889 0.00815966 441.234969 0.00815966 985.525932 C 0.00815966 1529.811686 449.735619 1971.049004 1004.501228 1971.049004 C 1559.266837 1971.049004 2008.994296 1529.811686 2008.994296 985.525932 C 2008.994296 441.234969 1559.266837 -0.00234889 1004.501228 -0.00234889 Z M 1004.501228 -0.00234889 " stroke="#391125" stroke-width="24" stroke-opacity="1" stroke-miterlimit="4"/></g></g><g clip-path="url(#daf09026f9)"><path fill="#391125" d="M -436.304688 1756.199219 C -474.535156 1738.933594 -510.554688 1719.285156 -542.855469 1693.238281 C -586.683594 1657.894531 -623.203125 1617.191406 -641.371094 1562.511719 C -650.472656 1535.121094 -653.976562 1507.148438 -648.941406 1478.722656 C -639.648438 1426.304688 -609.035156 1389.949219 -561.984375 1366.558594 C -541.765625 1356.507812 -520.378906 1350.808594 -497.867188 1349.289062 C -496.734375 1349.210938 -495.527344 1349.289062 -494.453125 1349.613281 C -493.726562 1349.835938 -493.171875 1350.621094 -492.558594 1351.136719 C -492.578125 1355.699219 -496.066406 1355.875 -499.039062 1356.859375 C -546.210938 1372.503906 -574.566406 1405.90625 -587.925781 1452.660156 C -606.085938 1516.199219 -591.070312 1574.285156 -555.671875 1627.773438 C -520.957031 1680.234375 -472.019531 1716.078125 -415.734375 1742.855469 C -369.984375 1764.621094 -321.972656 1779.046875 -271.726562 1783.171875 C -230.5 1786.554688 -188.925781 1786.515625 -147.679688 1779.640625 C -109.34375 1773.25 -71.75 1764.320312 -35.226562 1750.960938 C -23.492188 1746.667969 -22.917969 1745.324219 -26.640625 1733.128906 C -38.367188 1694.714844 -48.871094 1655.898438 -61.714844 1617.867188 C -76.855469 1573.035156 -85.894531 1526.03125 -108.09375 1483.6875 C -125.355469 1450.761719 -150.441406 1424.453125 -179.386719 1401.550781 C -225.53125 1365.039062 -277.832031 1338.285156 -327.796875 1307.84375 C -366.5 1284.261719 -404.535156 1259.953125 -435.863281 1226.570312 C -468.402344 1191.894531 -487.527344 1151.40625 -485.546875 1103.417969 C -483.699219 1058.753906 -466.398438 1019.636719 -435.828125 986.730469 C -409.261719 958.128906 -377.695312 937.21875 -340.335938 925.394531 C -300.410156 912.757812 -259.8125 910.472656 -218.441406 916.53125 C -169.785156 923.660156 -125.203125 941.128906 -83.707031 967.167969 C -77.484375 971.074219 -74.410156 975.550781 -73.96875 983.160156 C -72.046875 1016.214844 -73.628906 1049.289062 -72.910156 1082.347656 C -72.835938 1085.65625 -72.261719 1089.484375 -76.632812 1091.09375 C -80.570312 1089.652344 -79.890625 1086.027344 -80.710938 1083.117188 C -97.59375 1023.269531 -128.648438 974.074219 -185.652344 944.742188 C -209.960938 932.234375 -235.78125 926.34375 -263.363281 925.773438 C -296.648438 925.082031 -328.003906 930.59375 -356.824219 947.621094 C -393.113281 969.0625 -419.382812 998.472656 -427.25 1041.101562 C -434.753906 1081.765625 -427.277344 1119.15625 -401.429688 1152.570312 C -378.199219 1182.597656 -347.359375 1203.257812 -316.152344 1223.222656 C -280.027344 1246.332031 -242.660156 1267.480469 -206.085938 1289.894531 C -167.988281 1313.246094 -130.957031 1338.066406 -98.550781 1369.222656 C -62.191406 1404.183594 -37.355469 1446.015625 -22.171875 1493.914062 C -2.5 1555.964844 16.03125 1618.347656 33.929688 1680.925781 C 36.234375 1688.984375 38.832031 1696.957031 41.292969 1704.96875 C 44.304688 1714.777344 44.902344 1715.234375 53.667969 1710.65625 C 70.890625 1701.667969 87.820312 1692.15625 104.332031 1681.894531 C 146.222656 1655.871094 186.390625 1627.320312 226.75 1599.03125 C 232.460938 1595.027344 233.9375 1591.148438 231.546875 1584.445312 C 219.207031 1549.839844 207.332031 1515.0625 195.164062 1480.394531 C 186.640625 1456.109375 177.160156 1432.136719 169.472656 1407.597656 C 161.464844 1382.03125 145.695312 1366.460938 118.925781 1362.539062 C 117.238281 1362.289062 115.597656 1361.605469 113.996094 1360.972656 C 113.582031 1360.808594 113.398438 1360.0625 112.839844 1359.148438 C 114.675781 1355.351562 118.402344 1355.96875 121.648438 1355.964844 C 177.636719 1355.902344 233.625 1355.890625 289.613281 1355.917969 C 292.917969 1355.917969 296.578125 1355.464844 298.617188 1359.304688 C 296.078125 1363.648438 291.988281 1362.945312 288.445312 1363.265625 C 279.894531 1364.042969 271.96875 1366.898438 264.675781 1371.085938 C 250.875 1379.007812 245.78125 1393.324219 250.644531 1411.265625 C 258.519531 1440.3125 269.195312 1468.464844 278.722656 1496.984375 C 283.03125 1509.894531 287.21875 1522.84375 291.640625 1535.710938 C 294.816406 1544.964844 296.488281 1545.503906 304.257812 1539.480469 C 334.269531 1516.21875 363.90625 1492.457031 394.210938 1469.585938 C 472.0625 1410.828125 551.632812 1354.609375 641.898438 1316.03125 C 674.316406 1302.175781 707.863281 1291.207031 743.597656 1288.214844 C 786.601562 1284.609375 827.035156 1304.988281 842.546875 1338.699219 C 863.988281 1385.300781 844.421875 1438.066406 807.28125 1465.804688 C 797.488281 1473.117188 786.921875 1479.203125 775.355469 1483.320312 C 770.863281 1484.917969 765.496094 1488.023438 763.191406 1480.65625 C 761.230469 1474.394531 766.371094 1472.503906 770.734375 1471.074219 C 782.78125 1467.128906 793.238281 1460.457031 803.21875 1452.914062 C 834.058594 1429.605469 846.980469 1379.097656 830.308594 1344.410156 C 816.730469 1316.164062 793.253906 1302.234375 762.273438 1301.035156 C 743.6875 1300.316406 743.921875 1300.792969 737.566406 1317.9375 C 714.203125 1380.972656 688.945312 1443.265625 663.214844 1505.367188 C 620.390625 1608.726562 576.203125 1711.5 531.347656 1813.996094 C 496.496094 1893.640625 462.078125 1973.46875 425.410156 2052.304688 C 421.871094 2059.917969 418.585938 2067.648438 415.21875 2075.339844 C 414.269531 2077.511719 413.335938 2079.789062 410.609375 2079.996094 C 407.242188 2080.25 406.371094 2077.34375 405.304688 2075.070312 C 398.039062 2059.558594 393.777344 2042.953125 387.910156 2026.925781 C 373.902344 1988.644531 359.832031 1950.382812 346.199219 1911.96875 C 330.140625 1866.71875 314.636719 1821.273438 298.671875 1775.992188 C 284.058594 1734.542969 269.160156 1693.191406 254.351562 1651.8125 C 254.179688 1651.328125 253.554688 1651.003906 252.535156 1650.027344 C 247.320312 1655.996094 245.644531 1663.671875 243.039062 1670.625 C 213.746094 1748.757812 185.722656 1827.386719 155.292969 1905.070312 C 133.746094 1960.074219 112.3125 2015.117188 91.332031 2070.34375 C 90.816406 2071.695312 90.1875 2073.003906 89.621094 2074.339844 C 88.488281 2077.003906 87.617188 2080.257812 84.070312 2080.226562 C 80.269531 2080.195312 80.003906 2076.617188 79.1875 2073.949219 C 72.5 2052.117188 66.070312 2030.203125 59.195312 2008.429688 C 46.222656 1967.371094 32.835938 1926.4375 19.9375 1885.355469 C 7.835938 1846.800781 -3.742188 1808.082031 -15.789062 1769.507812 C -19.390625 1757.960938 -19.761719 1758.042969 -31.609375 1762.3125 C -67.078125 1775.097656 -103.261719 1784.617188 -140.53125 1791.121094 C -188.988281 1799.578125 -237.546875 1799.160156 -286.027344 1795.691406 C -338.082031 1791.96875 -387.628906 1776.519531 -436.304688 1756.199219 M 672.480469 1448.1875 C 691.328125 1400.769531 711.699219 1353.929688 728.375 1304.214844 C 723.117188 1304.582031 719.597656 1304.378906 716.300781 1305.132812 C 684.257812 1312.460938 653.871094 1324.484375 624.171875 1338.308594 C 564.792969 1365.949219 510.515625 1402.078125 456.984375 1439.398438 C 405.121094 1475.550781 356.476562 1515.972656 305.742188 1553.621094 C 300.839844 1557.261719 301.015625 1561.648438 302.746094 1566.757812 C 307.113281 1579.628906 311.15625 1592.605469 315.570312 1605.457031 C 329.851562 1647.039062 344.003906 1688.671875 358.636719 1730.132812 C 386.660156 1809.53125 412.90625 1889.523438 439.472656 1969.414062 C 440.515625 1972.546875 441.253906 1976.109375 444.890625 1977.660156 C 453.585938 1964.578125 631.929688 1549.496094 672.480469 1448.1875 M 103.597656 1918.632812 C 109.363281 1933.1875 110.851562 1949.199219 118.394531 1965.003906 C 120.433594 1960.695312 121.835938 1958.1875 122.847656 1955.535156 C 134.9375 1923.863281 147.019531 1892.1875 159.007812 1860.480469 C 187.082031 1786.238281 214.863281 1711.882812 243.382812 1637.816406 C 248.085938 1625.601562 242.820312 1617.089844 238.378906 1607.042969 C 236.328125 1607.984375 235.210938 1608.328125 234.28125 1608.953125 C 230.667969 1611.371094 227.066406 1613.816406 223.546875 1616.367188 C 169.976562 1655.148438 115.824219 1693.019531 56.6875 1723.070312 C 50.097656 1726.421875 48.371094 1730.132812 50.628906 1737.5625 C 59.863281 1767.980469 68.3125 1798.640625 77.195312 1829.171875 C 85.75 1858.582031 94.484375 1887.945312 103.597656 1918.632812 Z M 103.597656 1918.632812 " fill-opacity="1" fill-rule="nonzero"/></g><g clip-path="url(#ea604ad638)"><path fill="#391125" d="M 294.023438 1068.574219 C 283.8125 1071.257812 273.859375 1073.042969 264.140625 1075.683594 C 239.21875 1082.453125 224.09375 1098.867188 218.078125 1123.84375 C 216.792969 1129.183594 215.808594 1134.605469 214.332031 1139.890625 C 213.382812 1143.285156 213.542969 1147.484375 207.6875 1149.972656 C 202.113281 1129.050781 200.132812 1106.652344 183.707031 1090.785156 C 167.515625 1075.136719 145.574219 1073.507812 124.761719 1069.238281 C 126.484375 1063.730469 130.0625 1064.117188 133.027344 1063.539062 C 139.828125 1062.203125 146.660156 1061.03125 153.460938 1059.707031 C 182.246094 1054.117188 196.191406 1034.375 203.078125 1007.792969 C 204.621094 1001.832031 205.238281 995.496094 208.933594 989.496094 C 214.050781 993.835938 214.277344 999.425781 215.445312 1004.59375 C 219.996094 1024.691406 228.042969 1042.472656 247.042969 1053.226562 C 258.933594 1059.960938 272.042969 1061.855469 285.28125 1063.476562 C 288.753906 1063.902344 293.195312 1062.914062 294.023438 1068.574219 Z M 294.023438 1068.574219 " fill-opacity="1" fill-rule="nonzero"/></g></g></g></g></svg>