<svg xmlns="http://www.w3.org/2000/svg" xmlns:xlink="http://www.w3.org/1999/xlink" width="2797" zoomAndPan="magnify" viewBox="0 0 2097.1199 2097.749898" height="2797" preserveAspectRatio="xMidYMid meet" version="1.0"><defs><clipPath id="c70f1c6b0b"><path d="M 458.246094 488.691406 L 1637.894531 488.691406 L 1637.894531 1608.382812 L 458.246094 1608.382812 Z M 458.246094 488.691406 " clip-rule="nonzero"/></clipPath></defs><g clip-path="url(#c70f1c6b0b)"><path fill="#000000" d="M -3399.636719 5774.183594 C -3662.835938 5655.3125 -3910.804688 5520.046875 -4133.191406 5340.714844 C -4434.929688 5097.402344 -4686.339844 4817.183594 -4811.429688 4440.730469 C -4874.085938 4252.160156 -4898.222656 4059.574219 -4863.535156 3863.875 C -4799.570312 3503.003906 -4588.796875 3252.707031 -4264.878906 3091.679688 C -4125.683594 3022.480469 -3978.441406 2983.246094 -3823.46875 2972.777344 C -3815.671875 2972.25 -3807.371094 2972.785156 -3799.972656 2975.035156 C -3794.972656 2976.550781 -3791.152344 2981.945312 -3786.917969 2985.507812 C -3787.046875 3016.925781 -3811.082031 3018.125 -3831.539062 3024.910156 C -4156.28125 3132.609375 -4351.507812 3362.582031 -4443.488281 3684.441406 C -4568.5 4121.878906 -4465.132812 4521.78125 -4221.4375 4890.039062 C -3982.433594 5251.214844 -3645.527344 5497.960938 -3258.023438 5682.316406 C -2943.058594 5832.164062 -2612.511719 5931.492188 -2266.589844 5959.882812 C -1982.761719 5983.175781 -1696.539062 5982.898438 -1412.582031 5935.566406 C -1148.652344 5891.574219 -889.851562 5830.097656 -638.402344 5738.113281 C -557.613281 5708.558594 -553.660156 5699.300781 -579.289062 5615.34375 C -660.015625 5350.894531 -732.335938 5083.660156 -820.757812 4821.839844 C -924.992188 4513.191406 -987.203125 4189.574219 -1140.046875 3898.054688 C -1258.894531 3671.382812 -1431.59375 3490.273438 -1630.875 3332.582031 C -1948.542969 3081.210938 -2308.621094 2897.023438 -2652.605469 2687.445312 C -2919.074219 2525.09375 -3180.925781 2357.753906 -3396.605469 2127.914062 C -3620.609375 1889.199219 -3752.292969 1610.441406 -3738.640625 1280.082031 C -3725.933594 972.574219 -3606.8125 703.28125 -3396.367188 476.730469 C -3213.464844 279.824219 -2996.132812 135.867188 -2738.925781 54.453125 C -2464.078125 -32.539062 -2184.570312 -48.269531 -1899.734375 -6.542969 C -1564.765625 42.527344 -1257.851562 162.800781 -972.148438 342.0625 C -929.3125 368.941406 -908.15625 399.761719 -905.109375 452.144531 C -891.878906 679.730469 -902.769531 907.433594 -897.820312 1135.007812 C -897.324219 1157.789062 -893.375 1184.15625 -923.449219 1195.21875 C -950.5625 1185.3125 -945.878906 1160.355469 -951.535156 1140.304688 C -1067.753906 728.277344 -1281.554688 389.589844 -1674.003906 187.65625 C -1841.355469 101.546875 -2019.121094 60.992188 -2209.019531 57.0625 C -2438.160156 52.324219 -2654.023438 90.25 -2852.453125 207.488281 C -3102.273438 355.09375 -3283.148438 557.585938 -3337.296875 851.054688 C -3388.949219 1131 -3337.484375 1388.425781 -3159.535156 1618.460938 C -2999.609375 1825.195312 -2787.28125 1967.433594 -2572.433594 2104.875 C -2323.746094 2263.960938 -2066.472656 2409.566406 -1814.683594 2563.886719 C -1552.40625 2724.640625 -1297.457031 2895.519531 -1074.34375 3110.035156 C -824.019531 3350.703125 -653.054688 3638.707031 -548.511719 3968.480469 C -413.089844 4395.652344 -285.511719 4825.148438 -162.273438 5255.960938 C -146.40625 5311.433594 -128.542969 5366.332031 -111.59375 5421.492188 C -90.851562 5489.003906 -86.753906 5492.15625 -26.386719 5460.648438 C 92.171875 5398.761719 208.738281 5333.265625 322.410156 5262.636719 C 610.792969 5083.464844 887.359375 4886.921875 1165.191406 4692.164062 C 1204.515625 4664.597656 1214.6875 4637.878906 1198.234375 4591.746094 C 1113.261719 4353.484375 1031.515625 4114.074219 947.738281 3875.378906 C 889.066406 3708.207031 823.804688 3543.152344 770.871094 3374.210938 C 715.730469 3198.210938 607.167969 3091 422.886719 3063.996094 C 411.273438 3062.292969 399.976562 3057.585938 388.949219 3053.222656 C 386.09375 3052.09375 384.820312 3046.964844 380.988281 3040.667969 C 393.632812 3014.535156 419.269531 3018.773438 441.617188 3018.75 C 827.070312 3018.324219 1212.523438 3018.25 1597.972656 3018.417969 C 1620.726562 3018.429688 1645.949219 3015.3125 1659.976562 3041.746094 C 1642.507812 3071.636719 1614.324219 3066.800781 1589.9375 3069.015625 C 1531.066406 3074.359375 1476.519531 3094.015625 1426.304688 3122.84375 C 1331.296875 3177.394531 1296.21875 3275.957031 1329.707031 3399.472656 C 1383.929688 3599.4375 1457.421875 3793.265625 1522.996094 3989.613281 C 1552.675781 4078.472656 1581.5 4167.628906 1611.929688 4256.230469 C 1633.8125 4319.9375 1645.320312 4323.648438 1698.820312 4282.179688 C 1905.4375 4122.019531 2109.449219 3958.433594 2318.09375 3800.972656 C 2854.074219 3396.464844 3401.871094 3009.410156 4023.320312 2743.8125 C 4246.503906 2648.429688 4477.460938 2572.925781 4723.457031 2552.3125 C 5019.523438 2527.507812 5297.886719 2667.800781 5404.679688 2899.886719 C 5552.300781 3220.703125 5417.609375 3583.992188 5161.910156 3774.9375 C 5094.472656 3825.292969 5021.75 3867.1875 4942.101562 3895.523438 C 4911.1875 3906.523438 4874.222656 3927.910156 4858.347656 3877.191406 C 4844.855469 3834.078125 4880.242188 3821.066406 4910.292969 3811.222656 C 4993.234375 3784.066406 5065.214844 3738.140625 5133.9375 3686.195312 C 5346.242188 3525.726562 5435.222656 3178.007812 5320.421875 2939.207031 C 5226.941406 2744.746094 5065.320312 2648.835938 4852.050781 2640.585938 C 4724.097656 2635.632812 4725.699219 2638.910156 4681.949219 2756.941406 C 4521.085938 3190.925781 4347.222656 3619.769531 4170.070312 4047.316406 C 3875.230469 4758.902344 3571.023438 5466.453125 3262.230469 6172.085938 C 3022.285156 6720.394531 2785.324219 7270 2532.886719 7812.75 C 2508.515625 7865.15625 2485.914062 7918.386719 2462.722656 7971.335938 C 2456.179688 7986.277344 2449.757812 8001.957031 2430.996094 8003.382812 C 2407.804688 8005.144531 2401.800781 7985.109375 2394.476562 7969.476562 C 2344.445312 7862.683594 2315.101562 7748.351562 2274.71875 7638.015625 C 2178.269531 7374.476562 2081.410156 7111.0625 1987.554688 6846.59375 C 1877.003906 6535.074219 1770.253906 6222.203125 1660.355469 5910.449219 C 1559.753906 5625.082031 1457.167969 5340.414062 1355.222656 5055.519531 C 1354.03125 5052.191406 1349.734375 5049.972656 1342.71875 5043.234375 C 1306.832031 5084.332031 1295.28125 5137.167969 1277.332031 5185.042969 C 1075.667969 5722.957031 882.746094 6264.265625 673.242188 6799.089844 C 524.898438 7177.78125 377.347656 7556.734375 232.90625 7936.917969 C 229.363281 7946.238281 225.023438 7955.257812 221.121094 7964.441406 C 213.332031 7982.773438 207.332031 8005.183594 182.910156 8004.96875 C 156.746094 8004.738281 154.917969 7980.109375 149.292969 7961.742188 C 103.261719 7811.4375 59.003906 7660.574219 11.65625 7510.691406 C -77.644531 7227.996094 -169.820312 6946.210938 -258.601562 6663.355469 C -341.917969 6397.921875 -421.648438 6131.367188 -504.5625 5865.808594 C -529.382812 5786.320312 -531.933594 5786.886719 -613.484375 5816.285156 C -857.664062 5904.300781 -1106.773438 5969.828125 -1363.367188 6014.609375 C -1696.972656 6072.832031 -2031.277344 6069.949219 -2365.035156 6046.082031 C -2723.417969 6020.453125 -3064.519531 5914.082031 -3399.636719 5774.183594 M 4233.84375 3653.652344 C 4363.613281 3327.210938 4503.863281 3004.722656 4618.671875 2662.476562 C 4582.464844 2665.011719 4558.25 2663.589844 4535.546875 2668.78125 C 4314.9375 2719.238281 4105.738281 2802.027344 3901.277344 2897.199219 C 3492.476562 3087.492188 3118.8125 3336.210938 2750.253906 3593.140625 C 2393.207031 3842.046875 2058.304688 4120.316406 1709.023438 4379.527344 C 1675.265625 4404.578125 1676.480469 4434.789062 1688.410156 4469.976562 C 1718.453125 4558.570312 1746.3125 4647.90625 1776.695312 4736.378906 C 1875.011719 5022.671875 1972.441406 5309.285156 2073.183594 5594.722656 C 2266.113281 6141.34375 2446.792969 6692.070312 2629.699219 7242.0625 C 2636.875 7263.640625 2641.96875 7288.167969 2667.007812 7298.832031 C 2726.855469 7208.769531 3954.695312 4351.125 4233.84375 3653.652344 M 317.34375 6892.46875 C 357.054688 6992.667969 367.28125 7102.914062 419.230469 7211.703125 C 433.273438 7182.054688 442.90625 7164.789062 449.882812 7146.511719 C 533.117188 6928.472656 616.285156 6710.410156 698.832031 6492.109375 C 892.101562 5980.988281 1083.367188 5469.097656 1279.722656 4959.167969 C 1312.101562 4875.085938 1275.839844 4816.472656 1245.273438 4747.296875 C 1231.128906 4753.785156 1223.445312 4756.160156 1217.046875 4760.449219 C 1192.175781 4777.113281 1167.390625 4793.949219 1143.140625 4811.507812 C 774.351562 5078.484375 401.519531 5339.210938 -5.59375 5546.117188 C -50.960938 5569.175781 -62.847656 5594.726562 -47.316406 5645.875 C 16.269531 5855.304688 74.429688 6066.375 135.574219 6276.554688 C 194.488281 6479.050781 254.617188 6681.191406 317.34375 6892.46875 Z M 317.34375 6892.46875 " fill-opacity="1" fill-rule="nonzero"/></g><path fill="#000000" d="M 1628.339844 1040.203125 C 1558.0625 1058.660156 1489.539062 1070.949219 1422.617188 1089.132812 C 1251.039062 1135.75 1146.910156 1248.757812 1105.496094 1420.707031 C 1096.644531 1457.472656 1089.867188 1494.789062 1079.703125 1531.171875 C 1073.167969 1554.546875 1074.28125 1583.460938 1033.976562 1600.589844 C 995.574219 1456.550781 981.941406 1302.339844 868.882812 1193.101562 C 757.394531 1085.382812 606.347656 1074.152344 463.0625 1044.773438 C 474.90625 1006.84375 499.5625 1009.519531 519.964844 1005.515625 C 566.777344 996.332031 613.808594 988.25 660.640625 979.15625 C 858.824219 940.664062 954.808594 804.734375 1002.21875 621.738281 C 1012.851562 580.691406 1017.117188 537.070312 1042.546875 495.765625 C 1077.765625 525.65625 1079.324219 564.144531 1087.375 599.707031 C 1118.695312 738.082031 1174.117188 860.488281 1304.902344 934.539062 C 1386.773438 980.894531 1477.015625 993.933594 1568.171875 1005.09375 C 1592.058594 1008.015625 1622.644531 1001.214844 1628.339844 1040.203125 Z M 1628.339844 1040.203125 " fill-opacity="1" fill-rule="nonzero"/></svg>