<svg xmlns="http://www.w3.org/2000/svg" xmlns:xlink="http://www.w3.org/1999/xlink" width="2797" zoomAndPan="magnify" viewBox="0 0 2097.75 2097.749898" height="2797" preserveAspectRatio="xMidYMid meet" version="1.0"><defs><clipPath id="e68dcf2597"><path d="M 0 0 L 2097.5 0 L 2097.5 2097.5 L 0 2097.5 Z M 0 0 " clip-rule="nonzero"/></clipPath><clipPath id="7a976217e0"><path d="M 0 0 L 2097.5 0 L 2097.5 2097.5 L 0 2097.5 Z M 0 0 " clip-rule="nonzero"/></clipPath><clipPath id="2aa913d4a8"><path d="M 1048.75 0 C 469.542969 0 0 469.542969 0 1048.75 C 0 1627.957031 469.542969 2097.5 1048.75 2097.5 C 1627.957031 2097.5 2097.5 1627.957031 2097.5 1048.75 C 2097.5 469.542969 1627.957031 0 1048.75 0 Z M 1048.75 0 " clip-rule="nonzero"/></clipPath><clipPath id="f8de680850"><path d="M 0 0 L 2097.5 0 L 2097.5 2097.5 L 0 2097.5 Z M 0 0 " clip-rule="nonzero"/></clipPath><clipPath id="da1aa99cfd"><path d="M 1048.75 0 C 469.542969 0 0 469.542969 0 1048.75 C 0 1627.957031 469.542969 2097.5 1048.75 2097.5 C 1627.957031 2097.5 2097.5 1627.957031 2097.5 1048.75 C 2097.5 469.542969 1627.957031 0 1048.75 0 Z M 1048.75 0 " clip-rule="nonzero"/></clipPath><clipPath id="5e584e33e0"><rect x="0" width="2098" y="0" height="2098"/></clipPath><clipPath id="654ba1da1a"><path d="M 372.992188 407.511719 L 1724.402344 407.511719 L 1724.402344 1689.929688 L 372.992188 1689.929688 Z M 372.992188 407.511719 " clip-rule="nonzero"/></clipPath><clipPath id="38e1225db6"><rect x="0" width="2098" y="0" height="2098"/></clipPath></defs><g clip-path="url(#e68dcf2597)"><g transform="matrix(1, 0, 0, 1, 0, 0)"><g clip-path="url(#38e1225db6)"><g clip-path="url(#7a976217e0)"><g clip-path="url(#2aa913d4a8)"><g transform="matrix(1, 0, 0, 1, 0, 0)"><g clip-path="url(#5e584e33e0)"><g clip-path="url(#f8de680850)"><g clip-path="url(#da1aa99cfd)"><path fill="#391125" d="M 0 0 L 2097.5 0 L 2097.5 2097.5 L 0 2097.5 Z M 0 0 " fill-opacity="1" fill-rule="nonzero"/></g></g></g></g></g></g><g clip-path="url(#654ba1da1a)"><path fill="#e6b6c6" d="M -4047.058594 6463.085938 C -4348.605469 6326.898438 -4632.703125 6171.921875 -4887.496094 5966.464844 C -5233.199219 5687.699219 -5521.238281 5366.652344 -5664.550781 4935.347656 C -5736.339844 4719.300781 -5763.992188 4498.65625 -5724.25 4274.441406 C -5650.964844 3860.996094 -5409.480469 3574.226562 -5038.371094 3389.738281 C -4878.894531 3310.457031 -4710.195312 3265.507812 -4532.644531 3253.511719 C -4523.710938 3252.90625 -4514.199219 3253.523438 -4505.722656 3256.097656 C -4499.996094 3257.835938 -4495.621094 3264.015625 -4490.769531 3268.097656 C -4490.917969 3304.089844 -4518.449219 3305.464844 -4541.890625 3313.238281 C -4913.949219 3436.632812 -5137.621094 3700.113281 -5243.003906 4068.867188 C -5386.226562 4570.039062 -5267.796875 5028.207031 -4988.597656 5450.121094 C -4714.769531 5863.917969 -4328.777344 6146.617188 -3884.8125 6357.835938 C -3523.957031 6529.515625 -3145.25 6643.316406 -2748.925781 6675.84375 C -2423.742188 6702.53125 -2095.816406 6702.210938 -1770.484375 6647.984375 C -1468.101562 6597.582031 -1171.59375 6527.148438 -883.507812 6421.765625 C -790.949219 6387.902344 -786.417969 6377.296875 -815.78125 6281.105469 C -908.269531 5978.128906 -991.128906 5671.953125 -1092.429688 5371.988281 C -1211.851562 5018.363281 -1283.128906 4647.597656 -1458.242188 4313.605469 C -1594.40625 4053.90625 -1792.269531 3846.40625 -2020.585938 3665.738281 C -2384.539062 3377.742188 -2797.082031 3166.722656 -3191.179688 2926.605469 C -3496.476562 2740.597656 -3796.484375 2548.878906 -4043.585938 2285.550781 C -4300.226562 2012.054688 -4451.097656 1692.679688 -4435.457031 1314.183594 C -4420.898438 961.875 -4284.417969 653.34375 -4043.316406 393.78125 C -3833.761719 168.1875 -3584.765625 3.253906 -3290.082031 -90.019531 C -2975.183594 -189.6875 -2654.953125 -207.710938 -2328.617188 -159.90625 C -1944.84375 -103.683594 -1593.207031 34.113281 -1265.882812 239.496094 C -1216.800781 270.289062 -1192.5625 305.597656 -1189.074219 365.617188 C -1173.917969 626.363281 -1186.394531 887.242188 -1180.722656 1147.972656 C -1180.152344 1174.074219 -1175.628906 1204.285156 -1210.085938 1216.960938 C -1241.148438 1205.609375 -1235.785156 1177.015625 -1242.261719 1154.042969 C -1375.414062 681.984375 -1620.367188 293.949219 -2069.996094 62.59375 C -2261.734375 -36.066406 -2465.402344 -82.527344 -2682.964844 -87.03125 C -2945.492188 -92.460938 -3192.808594 -49.007812 -3420.152344 85.316406 C -3706.367188 254.421875 -3913.597656 486.417969 -3975.632812 822.648438 C -4034.816406 1143.382812 -3975.851562 1438.3125 -3771.972656 1701.867188 C -3588.746094 1938.722656 -3345.480469 2101.6875 -3099.332031 2259.152344 C -2814.410156 2441.417969 -2519.652344 2608.238281 -2231.175781 2785.046875 C -1930.683594 2969.21875 -1638.589844 3164.996094 -1382.964844 3410.765625 C -1096.167969 3686.503906 -900.296875 4016.46875 -780.519531 4394.289062 C -625.363281 4883.699219 -479.199219 5375.773438 -338.003906 5869.359375 C -319.824219 5932.914062 -299.359375 5995.8125 -279.941406 6059.011719 C -256.175781 6136.359375 -251.480469 6139.96875 -182.320312 6103.871094 C -46.488281 6032.96875 87.0625 5957.925781 217.296875 5877.007812 C 547.699219 5671.726562 864.558594 5446.546875 1182.871094 5223.417969 C 1227.929688 5191.832031 1239.582031 5161.222656 1220.734375 5108.367188 C 1123.378906 4835.390625 1029.722656 4561.097656 933.738281 4287.625 C 866.515625 4096.09375 791.75 3906.988281 731.101562 3713.433594 C 667.925781 3511.792969 543.542969 3388.957031 332.417969 3358.019531 C 319.109375 3356.070312 306.167969 3350.675781 293.535156 3345.679688 C 290.261719 3344.382812 288.800781 3338.507812 284.410156 3331.292969 C 298.898438 3301.351562 328.269531 3306.210938 353.875 3306.179688 C 795.488281 3305.695312 1237.101562 3305.605469 1678.714844 3305.800781 C 1704.78125 3305.8125 1733.679688 3302.242188 1749.75 3332.527344 C 1729.734375 3366.773438 1697.449219 3361.234375 1669.507812 3363.773438 C 1602.058594 3369.894531 1539.5625 3392.414062 1482.03125 3425.445312 C 1373.179688 3487.941406 1332.992188 3600.867188 1371.359375 3742.375 C 1433.480469 3971.480469 1517.683594 4193.542969 1592.8125 4418.5 C 1626.816406 4520.308594 1659.839844 4622.453125 1694.707031 4723.964844 C 1719.773438 4796.953125 1732.957031 4801.207031 1794.253906 4753.695312 C 2030.976562 4570.203125 2264.714844 4382.78125 2503.757812 4202.375 C 3117.832031 3738.929688 3745.441406 3295.480469 4457.4375 2991.1875 C 4713.140625 2881.90625 4977.75 2795.398438 5259.589844 2771.785156 C 5598.789062 2743.363281 5917.710938 2904.097656 6040.066406 3170 C 6209.195312 3537.558594 6054.878906 3953.78125 5761.921875 4172.546875 C 5684.664062 4230.242188 5601.339844 4278.238281 5510.089844 4310.703125 C 5474.671875 4323.304688 5432.316406 4347.808594 5414.132812 4289.699219 C 5398.675781 4240.304688 5439.214844 4225.394531 5473.648438 4214.121094 C 5568.671875 4183.003906 5651.136719 4130.390625 5729.878906 4070.875 C 5973.113281 3887.023438 6075.058594 3488.644531 5943.535156 3215.046875 C 5836.429688 2992.253906 5651.261719 2882.371094 5406.917969 2872.917969 C 5260.320312 2867.242188 5262.160156 2871 5212.035156 3006.226562 C 5027.730469 3503.445312 4828.535156 3994.769531 4625.570312 4484.613281 C 4287.773438 5299.878906 3939.242188 6110.519531 3585.457031 6918.964844 C 3310.550781 7547.164062 3039.0625 8176.847656 2749.847656 8798.679688 C 2721.925781 8858.71875 2696.027344 8919.707031 2669.457031 8980.367188 C 2661.960938 8997.488281 2654.605469 9015.453125 2633.109375 9017.085938 C 2606.539062 9019.105469 2599.660156 8996.152344 2591.269531 8978.242188 C 2533.945312 8855.886719 2500.328125 8724.898438 2454.0625 8598.488281 C 2343.558594 8296.546875 2232.589844 7994.753906 2125.058594 7691.75 C 1998.398438 7334.839844 1876.097656 6976.386719 1750.183594 6619.207031 C 1634.925781 6292.261719 1517.390625 5966.117188 1400.59375 5639.710938 C 1399.230469 5635.898438 1394.308594 5633.359375 1386.269531 5625.636719 C 1345.152344 5672.722656 1331.917969 5733.257812 1311.355469 5788.105469 C 1080.304688 6404.398438 859.273438 7024.578125 619.246094 7637.324219 C 449.289062 8071.195312 280.242188 8505.359375 114.753906 8940.9375 C 110.695312 8951.617188 105.722656 8961.949219 101.25 8972.472656 C 92.324219 8993.472656 85.453125 9019.148438 57.472656 9018.90625 C 27.496094 9018.640625 25.398438 8990.425781 18.957031 8969.378906 C -33.78125 8797.175781 -84.484375 8624.332031 -138.730469 8452.609375 C -241.042969 8128.726562 -346.652344 7805.882812 -448.371094 7481.816406 C -543.824219 7177.707031 -635.171875 6872.3125 -730.167969 6568.0625 C -758.601562 6476.996094 -761.523438 6477.644531 -854.957031 6511.324219 C -1134.714844 6612.164062 -1420.117188 6687.242188 -1714.101562 6738.546875 C -2096.3125 6805.25 -2479.324219 6801.945312 -2861.714844 6774.601562 C -3272.3125 6745.238281 -3663.117188 6623.371094 -4047.058594 6463.085938 M 4698.636719 4033.59375 C 4847.316406 3659.585938 5007.996094 3290.113281 5139.535156 2898 C 5098.050781 2900.90625 5070.308594 2899.277344 5044.296875 2905.222656 C 4791.546875 2963.03125 4551.863281 3057.882812 4317.613281 3166.921875 C 3849.25 3384.9375 3421.140625 3669.898438 2998.882812 3964.261719 C 2589.816406 4249.433594 2206.117188 4568.25 1805.945312 4865.226562 C 1767.265625 4893.929688 1768.660156 4928.542969 1782.328125 4968.855469 C 1816.75 5070.355469 1848.667969 5172.710938 1883.476562 5274.074219 C 1996.113281 5602.082031 2107.742188 5930.453125 2223.164062 6257.480469 C 2444.203125 6883.746094 2651.210938 7514.714844 2860.765625 8144.839844 C 2868.988281 8169.5625 2874.820312 8197.660156 2903.507812 8209.882812 C 2972.074219 8106.695312 4378.816406 4832.6875 4698.636719 4033.59375 M 211.492188 7744.308594 C 256.992188 7859.109375 268.707031 7985.417969 328.226562 8110.058594 C 344.3125 8076.089844 355.351562 8056.308594 363.34375 8035.367188 C 458.703125 7785.558594 553.992188 7535.722656 648.566406 7285.617188 C 869.992188 6700.023438 1089.125 6113.550781 1314.09375 5529.324219 C 1351.1875 5432.988281 1309.644531 5365.835938 1274.625 5286.582031 C 1258.421875 5294.015625 1249.617188 5296.734375 1242.285156 5301.648438 C 1213.789062 5320.746094 1185.390625 5340.03125 1157.609375 5360.148438 C 735.089844 5666.023438 307.933594 5964.738281 -158.496094 6201.792969 C -210.472656 6228.207031 -224.089844 6257.480469 -206.296875 6316.085938 C -133.445312 6556.03125 -66.8125 6797.855469 3.242188 7038.65625 C 70.738281 7270.65625 139.625 7502.25 211.492188 7744.308594 Z M 211.492188 7744.308594 " fill-opacity="1" fill-rule="nonzero"/></g><path fill="#e6b6c6" d="M 1713.507812 1039.355469 C 1632.984375 1060.503906 1554.480469 1074.582031 1477.804688 1095.414062 C 1281.230469 1148.824219 1161.929688 1278.296875 1114.484375 1475.296875 C 1104.339844 1517.421875 1096.578125 1560.175781 1084.929688 1601.863281 C 1077.445312 1628.640625 1078.71875 1661.765625 1032.542969 1681.390625 C 988.546875 1516.367188 972.921875 1339.6875 843.394531 1214.53125 C 715.664062 1091.117188 542.605469 1078.25 378.445312 1044.589844 C 392.015625 1001.136719 420.261719 1004.203125 443.636719 999.617188 C 497.273438 989.09375 551.152344 979.832031 604.808594 969.414062 C 831.871094 925.3125 941.839844 769.578125 996.15625 559.921875 C 1008.339844 512.890625 1013.222656 462.914062 1042.363281 415.589844 C 1082.710938 449.835938 1084.496094 493.9375 1093.71875 534.679688 C 1129.605469 693.214844 1193.097656 833.453125 1342.945312 918.296875 C 1436.742188 971.40625 1540.132812 986.34375 1644.570312 999.128906 C 1671.9375 1002.480469 1706.980469 994.683594 1713.507812 1039.355469 Z M 1713.507812 1039.355469 " fill-opacity="1" fill-rule="nonzero"/></g></g></g></svg>