<svg xmlns="http://www.w3.org/2000/svg" xmlns:xlink="http://www.w3.org/1999/xlink" width="2797" zoomAndPan="magnify" viewBox="0 0 2097.1199 2097.749898" height="2797" preserveAspectRatio="xMidYMid meet" version="1.0"><path fill="#000000" d="M 1795.40625 1656.523438 C 1804.648438 1684.339844 1815.265625 1710.410156 1821.875 1737.457031 C 1829.984375 1770.636719 1841.085938 1802.960938 1847.671875 1836.652344 C 1851.796875 1857.726562 1848.386719 1877.320312 1842.226562 1895.640625 C 1827.667969 1938.960938 1814.476562 1982.644531 1801.558594 2026.445312 C 1800.289062 2030.746094 1797.773438 2034.769531 1795.347656 2038.613281 C 1792.902344 2042.476562 1789.992188 2046.59375 1784.652344 2046.015625 C 1778.589844 2045.355469 1776.1875 2040.417969 1774.785156 2035.351562 C 1767.921875 2010.585938 1761.851562 1985.585938 1754.402344 1961.003906 C 1742.011719 1920.113281 1728.597656 1879.539062 1715.976562 1838.71875 C 1707.890625 1812.570312 1700.5 1786.210938 1692.726562 1759.96875 C 1681.066406 1720.632812 1665.910156 1682.488281 1652.914062 1643.644531 C 1640.648438 1606.972656 1628.828125 1570.042969 1616.726562 1533.328125 C 1603.773438 1494.023438 1596.523438 1453 1579.648438 1414.816406 C 1574.066406 1402.183594 1572.628906 1387.496094 1566.472656 1374.546875 C 1564.234375 1369.84375 1562.8125 1364.949219 1556.660156 1361.636719 C 1548.917969 1388.433594 1541.160156 1414.847656 1533.667969 1441.335938 C 1524.816406 1472.625 1516.496094 1504.0625 1507.398438 1535.273438 C 1495.75 1575.234375 1482.914062 1614.855469 1471.769531 1654.953125 C 1460.296875 1696.234375 1446.140625 1736.652344 1433.886719 1777.652344 C 1417.511719 1832.4375 1391.027344 1883.410156 1375.324219 1938.46875 C 1366.261719 1970.242188 1353.960938 2001.09375 1342.964844 2032.308594 C 1340.460938 2039.414062 1335.210938 2043.921875 1327.488281 2043.832031 C 1320.210938 2043.75 1318.777344 2037.578125 1317.042969 2032.011719 C 1299.546875 1975.898438 1282.605469 1919.605469 1264.285156 1863.761719 C 1252.578125 1828.078125 1238.371094 1793.222656 1226.128906 1757.703125 C 1217.40625 1732.402344 1210.3125 1706.546875 1202.082031 1681.070312 C 1193.359375 1654.058594 1184.078125 1627.226562 1175.175781 1600.269531 C 1170.167969 1585.109375 1164.535156 1570.070312 1160.867188 1554.574219 C 1157.914062 1542.085938 1153.601562 1537.738281 1140.816406 1543.832031 C 1088.121094 1568.941406 1033.128906 1588.289062 977.011719 1603.789062 C 951.84375 1610.742188 925.90625 1615.914062 899.578125 1618.652344 C 831.386719 1625.738281 763.058594 1626.074219 695.414062 1616.558594 C 636.652344 1608.292969 579.40625 1592.574219 523.78125 1570.347656 C 476.84375 1551.589844 432.105469 1529.222656 388.953125 1503.34375 C 378.226562 1496.910156 368.621094 1488.625 358.476562 1481.222656 C 298.25 1437.285156 244.476562 1386.65625 207.695312 1321.269531 C 179.109375 1270.453125 161.128906 1214.710938 165.554688 1155.824219 C 172.652344 1061.410156 212.113281 983.523438 293.785156 930.6875 C 299.363281 927.078125 305.769531 921.296875 311.910156 928.914062 C 317.269531 935.570312 311.042969 940.777344 307.207031 945.382812 C 254.5 1008.636719 243.355469 1084.816406 254.4375 1160.9375 C 272.347656 1283.957031 326.597656 1388.867188 430.191406 1465.46875 C 490.394531 1509.984375 554.546875 1544.460938 625.582031 1566.445312 C 703.113281 1590.441406 782.742188 1596.730469 863.359375 1590.136719 C 926.863281 1584.941406 988.570312 1570.746094 1048.132812 1548.140625 C 1075.347656 1537.8125 1101.988281 1525.878906 1128.503906 1513.828125 C 1143.957031 1506.800781 1145.222656 1495.328125 1137.691406 1470.976562 C 1124.09375 1427 1110.019531 1383.148438 1096.453125 1339.179688 C 1084.449219 1300.277344 1072.449219 1261.175781 1059.859375 1222.398438 C 1050.640625 1194 1043.257812 1164.4375 1034.5625 1135.746094 C 1020.984375 1090.945312 998.195312 1050.046875 968.253906 1013.277344 C 925.382812 960.632812 872.242188 919.976562 815.910156 883.761719 C 748.152344 840.199219 681.246094 795.421875 615.503906 748.984375 C 558.183594 708.496094 504.976562 663.132812 472.570312 598.730469 C 439.351562 532.71875 424.871094 464.621094 440.621094 389.933594 C 458.277344 306.21875 502.804688 242.117188 570.488281 192.984375 C 605.898438 167.277344 646.621094 153.097656 689.054688 141.339844 C 738.835938 127.546875 788.566406 129.691406 837.433594 136.882812 C 880.980469 143.292969 924.535156 153.726562 965.59375 172.691406 C 994.65625 186.113281 1023.367188 199.917969 1051.464844 215.207031 C 1060.582031 220.171875 1065.242188 226.722656 1066.171875 236.609375 C 1066.441406 239.460938 1067.125 242.289062 1067.210938 245.140625 C 1068.886719 300.730469 1070.804688 356.316406 1071.851562 411.917969 C 1072.039062 421.734375 1076.332031 437.3125 1060.8125 438.304688 C 1046.050781 439.25 1048.1875 423.976562 1045.429688 413.832031 C 1035.652344 377.878906 1022.015625 343.167969 1000.589844 312.738281 C 980.230469 283.816406 959.15625 255.292969 933.84375 229.988281 C 889.25 185.414062 835.714844 159.433594 773.4375 158.570312 C 685.742188 157.351562 613.234375 190.589844 568.328125 269.40625 C 545.453125 309.546875 532.113281 353.929688 535.214844 400.867188 C 538.472656 450.257812 554.59375 495.613281 584.128906 536.0625 C 627.707031 595.75 684.167969 640.242188 745.597656 680.28125 C 804.394531 718.601562 863.792969 756.039062 921.445312 796.203125 C 976.238281 834.378906 1026.890625 876.941406 1070.816406 926.921875 C 1100.359375 960.535156 1120.863281 1000.148438 1138.5625 1041.476562 C 1154.316406 1078.269531 1165.054688 1116.617188 1176.453125 1154.613281 C 1185.695312 1185.417969 1194.5 1216.613281 1200.769531 1248.464844 C 1206.117188 1275.628906 1216.234375 1301.871094 1224.476562 1328.445312 C 1233.378906 1357.152344 1243.273438 1385.570312 1251.371094 1414.496094 C 1257.234375 1435.425781 1263.96875 1438.769531 1281.6875 1426.484375 C 1362.394531 1370.53125 1434.347656 1304.097656 1507.339844 1238.84375 C 1524.695312 1223.332031 1516.941406 1205.257812 1512.375 1191.203125 C 1502.730469 1161.535156 1496.582031 1130.847656 1485.25 1101.636719 C 1478.429688 1084.0625 1467.207031 1073.007812 1450.425781 1066.605469 C 1442.671875 1063.652344 1436.457031 1059.019531 1438.207031 1050.433594 C 1440.003906 1041.636719 1448.476562 1042.796875 1455.253906 1043 C 1505.117188 1044.5 1554.976562 1046.042969 1604.828125 1047.808594 C 1611.628906 1048.046875 1618.585938 1048.863281 1625.101562 1050.710938 C 1631.421875 1052.507812 1634.832031 1057.210938 1630.648438 1063.898438 C 1622.941406 1076.222656 1625.941406 1089.628906 1627.3125 1102.460938 C 1628.800781 1116.382812 1636.253906 1119.226562 1647.183594 1110.328125 C 1669.828125 1091.890625 1691.765625 1072.582031 1714.273438 1053.96875 C 1735.453125 1036.449219 1756.816406 1019.136719 1778.472656 1002.214844 C 1785.355469 996.839844 1794.324219 992.226562 1801.515625 1000.773438 C 1808.523438 1009.101562 1801.136719 1016.105469 1795.515625 1021.429688 C 1767.222656 1048.21875 1738.097656 1074.082031 1707.785156 1098.605469 C 1688.589844 1114.136719 1671.519531 1131.949219 1654.257812 1149.554688 C 1649.011719 1154.910156 1645.878906 1160.554688 1648.117188 1168 C 1656.792969 1196.886719 1666.433594 1225.511719 1674.140625 1254.648438 C 1681.882812 1283.90625 1692.429688 1312.269531 1699.621094 1341.734375 C 1706.488281 1369.871094 1716.941406 1397.121094 1725.457031 1424.871094 C 1734.128906 1453.128906 1742.3125 1481.539062 1750.804688 1509.851562 C 1758.648438 1536.011719 1766.03125 1562.328125 1774.714844 1588.207031 C 1782.148438 1610.359375 1789.636719 1632.449219 1795.40625 1656.523438 M 1542.601562 1309.308594 C 1547.652344 1299.171875 1538.988281 1292.007812 1536.789062 1283.492188 C 1531.367188 1262.472656 1528.617188 1261.605469 1512.882812 1276.898438 C 1442.925781 1344.886719 1367.3125 1405.917969 1286.671875 1460.695312 C 1275.832031 1468.058594 1272.871094 1476.28125 1275.472656 1488.292969 C 1285.75 1535.679688 1302.738281 1581.105469 1316.125 1627.585938 C 1332.042969 1682.847656 1349.628906 1737.640625 1366.90625 1792.503906 C 1371.320312 1806.515625 1374.644531 1821.324219 1385.621094 1835.730469 C 1387.972656 1829.347656 1389.316406 1826.269531 1390.253906 1823.074219 C 1398.960938 1793.515625 1407.398438 1763.878906 1416.296875 1734.378906 C 1431.632812 1683.53125 1447.480469 1632.832031 1462.644531 1581.933594 C 1471.105469 1553.515625 1477.125 1524.292969 1486.957031 1496.386719 C 1497.960938 1465.140625 1504.019531 1432.617188 1514.488281 1401.320312 C 1524.402344 1371.6875 1529.015625 1340.472656 1542.601562 1309.308594 Z M 1542.601562 1309.308594 " fill-opacity="1" fill-rule="nonzero"/><path fill="#000000" d="M 1538.273438 538.558594 C 1532.042969 523.8125 1526.410156 510.117188 1520.75 496.433594 C 1503.332031 454.335938 1464.757812 444.070312 1426.261719 433.773438 C 1422.972656 432.890625 1419.402344 433.097656 1416.058594 432.363281 C 1411.492188 431.355469 1406.511719 429.8125 1406.425781 424.21875 C 1406.339844 418.695312 1411.320312 416.394531 1415.707031 415.542969 C 1428.613281 413.039062 1441.445312 410.695312 1454.226562 407.214844 C 1494.652344 396.199219 1519.390625 371.671875 1526.558594 329.8125 C 1528.191406 320.289062 1532.144531 311.179688 1534.730469 301.796875 C 1536.121094 296.761719 1536.773438 290.839844 1543.21875 290.433594 C 1550.75 289.964844 1552.460938 296.523438 1553.511719 302.019531 C 1556.957031 320.066406 1562.28125 337.4375 1568.980469 354.558594 C 1583.527344 391.75 1616.011719 403.675781 1650.167969 413.5 C 1652.882812 414.28125 1655.914062 413.945312 1658.675781 414.617188 C 1664.65625 416.078125 1672.617188 416.484375 1672.773438 424.457031 C 1672.914062 431.640625 1665.425781 431.8125 1660.054688 433.574219 C 1645.425781 438.375 1630.652344 442.867188 1616.371094 448.570312 C 1579.511719 463.296875 1566.945312 496.894531 1553.75 530.082031 C 1551.457031 535.851562 1551.777344 549.074219 1538.273438 538.558594 Z M 1538.273438 538.558594 " fill-opacity="1" fill-rule="nonzero"/></svg>