<svg xmlns="http://www.w3.org/2000/svg" xmlns:xlink="http://www.w3.org/1999/xlink" width="2031" zoomAndPan="magnify" viewBox="37 752 2031 671" height="671" preserveAspectRatio="xMidYMid meet" version="1.0"><path fill="#000000" d="M 159.640625 1237.027344 C 137.71875 1227.125 117.0625 1215.859375 98.539062 1200.921875 C 73.402344 1180.652344 52.460938 1157.3125 42.042969 1125.953125 C 36.824219 1110.246094 34.8125 1094.203125 37.703125 1077.902344 C 43.03125 1047.84375 60.585938 1026.992188 87.570312 1013.582031 C 99.164062 1007.816406 111.429688 1004.546875 124.335938 1003.675781 C 124.988281 1003.632812 125.679688 1003.675781 126.292969 1003.863281 C 126.710938 1003.992188 127.03125 1004.441406 127.382812 1004.738281 C 127.371094 1007.355469 125.371094 1007.453125 123.664062 1008.019531 C 96.613281 1016.988281 80.351562 1036.144531 72.691406 1062.957031 C 62.277344 1099.394531 70.886719 1132.703125 91.1875 1163.378906 C 111.097656 1193.464844 139.160156 1214.019531 171.4375 1229.375 C 197.671875 1241.855469 225.207031 1250.128906 254.023438 1252.496094 C 277.664062 1254.4375 301.503906 1254.414062 325.160156 1250.46875 C 347.144531 1246.804688 368.699219 1241.683594 389.644531 1234.023438 C 396.375 1231.5625 396.703125 1230.789062 394.570312 1223.796875 C 387.847656 1201.769531 381.820312 1179.507812 374.457031 1157.699219 C 365.773438 1131.988281 360.59375 1105.03125 347.859375 1080.75 C 337.960938 1061.867188 323.574219 1046.78125 306.976562 1033.648438 C 280.515625 1012.707031 250.519531 997.367188 221.867188 979.910156 C 199.671875 966.386719 177.859375 952.445312 159.894531 933.300781 C 141.234375 913.417969 130.265625 890.195312 131.402344 862.679688 C 132.460938 837.0625 142.382812 814.632812 159.914062 795.761719 C 175.148438 779.359375 193.253906 767.367188 214.675781 760.585938 C 237.570312 753.339844 260.855469 752.03125 284.582031 755.503906 C 312.480469 759.59375 338.046875 769.613281 361.847656 784.542969 C 365.414062 786.78125 367.175781 789.351562 367.429688 793.714844 C 368.53125 812.671875 367.625 831.636719 368.039062 850.59375 C 368.078125 852.492188 368.40625 854.6875 365.902344 855.609375 C 363.644531 854.785156 364.035156 852.707031 363.5625 851.035156 C 353.882812 816.714844 336.074219 788.503906 303.382812 771.683594 C 289.441406 764.507812 274.636719 761.132812 258.816406 760.804688 C 239.730469 760.410156 221.75 763.570312 205.222656 773.335938 C 184.410156 785.628906 169.34375 802.496094 164.835938 826.941406 C 160.53125 850.261719 164.820312 871.703125 179.640625 890.863281 C 192.964844 908.085938 210.648438 919.933594 228.546875 931.382812 C 249.261719 944.632812 270.691406 956.761719 291.664062 969.617188 C 313.511719 983.007812 334.75 997.242188 353.332031 1015.109375 C 374.183594 1035.15625 388.425781 1059.148438 397.132812 1086.617188 C 408.414062 1122.199219 419.042969 1157.972656 429.308594 1193.859375 C 430.628906 1198.480469 432.117188 1203.054688 433.527344 1207.648438 C 435.257812 1213.273438 435.597656 1213.535156 440.625 1210.910156 C 450.5 1205.753906 460.210938 1200.300781 469.679688 1194.417969 C 493.703125 1179.492188 516.738281 1163.121094 539.882812 1146.898438 C 543.15625 1144.601562 544.003906 1142.375 542.632812 1138.53125 C 535.554688 1118.6875 528.746094 1098.742188 521.769531 1078.859375 C 516.878906 1064.9375 511.445312 1051.1875 507.035156 1037.113281 C 502.441406 1022.453125 493.398438 1013.523438 478.050781 1011.273438 C 477.082031 1011.132812 476.140625 1010.742188 475.222656 1010.378906 C 474.984375 1010.28125 474.878906 1009.855469 474.558594 1009.332031 C 475.613281 1007.15625 477.746094 1007.507812 479.609375 1007.503906 C 511.714844 1007.46875 543.824219 1007.464844 575.929688 1007.476562 C 577.828125 1007.480469 579.925781 1007.21875 581.097656 1009.421875 C 579.640625 1011.910156 577.292969 1011.507812 575.261719 1011.691406 C 570.359375 1012.136719 565.8125 1013.773438 561.632812 1016.175781 C 553.71875 1020.71875 550.796875 1028.929688 553.585938 1039.21875 C 558.101562 1055.875 564.222656 1072.019531 569.6875 1088.375 C 572.15625 1095.777344 574.558594 1103.203125 577.09375 1110.585938 C 578.917969 1115.890625 579.875 1116.199219 584.332031 1112.746094 C 601.542969 1099.40625 618.535156 1085.78125 635.914062 1072.664062 C 680.5625 1038.96875 726.191406 1006.726562 777.957031 984.605469 C 796.546875 976.660156 815.785156 970.371094 836.277344 968.652344 C 860.9375 966.585938 884.125 978.273438 893.019531 997.605469 C 905.316406 1024.328125 894.097656 1054.589844 872.800781 1070.496094 C 867.183594 1074.6875 861.125 1078.179688 854.488281 1080.539062 C 851.914062 1081.457031 848.835938 1083.238281 847.511719 1079.011719 C 846.390625 1075.421875 849.335938 1074.335938 851.839844 1073.515625 C 858.75 1071.253906 864.746094 1067.429688 870.46875 1063.101562 C 888.152344 1049.734375 895.566406 1020.773438 886.003906 1000.878906 C 878.214844 984.683594 864.753906 976.691406 846.988281 976.003906 C 836.332031 975.59375 836.464844 975.867188 832.820312 985.699219 C 819.421875 1021.847656 804.9375 1057.570312 790.179688 1093.183594 C 765.621094 1152.457031 740.28125 1211.394531 714.558594 1270.171875 C 694.574219 1315.84375 674.835938 1361.625 653.808594 1406.835938 C 651.777344 1411.199219 649.894531 1415.632812 647.960938 1420.042969 C 647.417969 1421.289062 646.882812 1422.59375 645.320312 1422.714844 C 643.386719 1422.859375 642.886719 1421.191406 642.277344 1419.890625 C 638.109375 1410.996094 635.667969 1401.472656 632.300781 1392.28125 C 624.269531 1370.328125 616.199219 1348.386719 608.382812 1326.355469 C 599.171875 1300.40625 590.28125 1274.347656 581.128906 1248.378906 C 572.746094 1224.605469 564.203125 1200.894531 555.710938 1177.164062 C 555.613281 1176.886719 555.253906 1176.703125 554.667969 1176.140625 C 551.679688 1179.5625 550.71875 1183.964844 549.222656 1187.953125 C 532.425781 1232.761719 516.355469 1277.851562 498.902344 1322.398438 C 486.546875 1353.945312 474.257812 1385.507812 462.222656 1417.179688 C 461.929688 1417.953125 461.566406 1418.707031 461.242188 1419.472656 C 460.59375 1420.996094 460.09375 1422.863281 458.058594 1422.847656 C 455.878906 1422.828125 455.726562 1420.777344 455.257812 1419.246094 C 451.425781 1406.726562 447.738281 1394.160156 443.792969 1381.675781 C 436.355469 1358.125 428.679688 1334.652344 421.28125 1311.09375 C 414.34375 1288.984375 407.703125 1266.78125 400.792969 1244.660156 C 398.726562 1238.039062 398.515625 1238.085938 391.722656 1240.535156 C 371.382812 1247.867188 350.632812 1253.324219 329.257812 1257.054688 C 301.46875 1261.902344 273.621094 1261.664062 245.820312 1259.675781 C 215.96875 1257.539062 187.554688 1248.679688 159.640625 1237.027344 M 795.492188 1060.390625 C 806.304688 1033.199219 817.984375 1006.335938 827.546875 977.828125 C 824.53125 978.039062 822.515625 977.921875 820.625 978.355469 C 802.25 982.558594 784.824219 989.453125 767.792969 997.382812 C 733.738281 1013.230469 702.613281 1033.949219 671.914062 1055.351562 C 642.171875 1076.085938 614.277344 1099.265625 585.179688 1120.855469 C 582.371094 1122.941406 582.472656 1125.457031 583.464844 1128.390625 C 585.96875 1135.769531 588.289062 1143.210938 590.820312 1150.582031 C 599.007812 1174.429688 607.125 1198.300781 615.515625 1222.078125 C 631.585938 1267.609375 646.636719 1313.484375 661.871094 1359.296875 C 662.46875 1361.09375 662.894531 1363.136719 664.980469 1364.027344 C 669.964844 1356.523438 772.242188 1118.488281 795.492188 1060.390625 M 469.257812 1330.175781 C 472.566406 1338.523438 473.417969 1347.707031 477.746094 1356.769531 C 478.914062 1354.300781 479.714844 1352.863281 480.296875 1351.339844 C 487.230469 1333.175781 494.160156 1315.011719 501.035156 1296.828125 C 517.132812 1254.253906 533.066406 1211.613281 549.421875 1169.136719 C 552.117188 1162.132812 549.097656 1157.253906 546.550781 1151.488281 C 545.375 1152.03125 544.734375 1152.226562 544.199219 1152.585938 C 542.128906 1153.972656 540.066406 1155.375 538.042969 1156.839844 C 507.324219 1179.078125 476.269531 1200.796875 442.359375 1218.03125 C 438.578125 1219.949219 437.589844 1222.078125 438.882812 1226.339844 C 444.179688 1243.785156 449.023438 1261.367188 454.117188 1278.875 C 459.023438 1295.742188 464.03125 1312.578125 469.257812 1330.175781 Z M 469.257812 1330.175781 " fill-opacity="1" fill-rule="nonzero"/><path fill="#000000" d="M 578.460938 842.699219 C 572.605469 844.234375 566.898438 845.257812 561.324219 846.773438 C 547.03125 850.65625 538.359375 860.070312 534.910156 874.390625 C 534.171875 877.453125 533.605469 880.5625 532.761719 883.59375 C 532.214844 885.542969 532.308594 887.949219 528.953125 889.375 C 525.753906 877.378906 524.617188 864.53125 515.199219 855.433594 C 505.914062 846.460938 493.332031 845.523438 481.394531 843.078125 C 482.382812 839.917969 484.4375 840.140625 486.136719 839.808594 C 490.035156 839.042969 493.953125 838.371094 497.855469 837.613281 C 514.363281 834.40625 522.355469 823.082031 526.304688 807.839844 C 527.191406 804.421875 527.546875 800.789062 529.664062 797.347656 C 532.597656 799.835938 532.730469 803.042969 533.398438 806.003906 C 536.007812 817.53125 540.625 827.726562 551.519531 833.894531 C 558.339844 837.757812 565.855469 838.84375 573.449219 839.773438 C 575.4375 840.015625 577.988281 839.449219 578.460938 842.699219 Z M 578.460938 842.699219 " fill-opacity="1" fill-rule="nonzero"/><path fill="#000000" d="M 997.789062 1258.902344 C 998.28125 1266.785156 1001.132812 1271.882812 1006.339844 1274.195312 C 1007.078125 1274.558594 1008.445312 1275.078125 1010.433594 1275.761719 C 1012.4375 1276.425781 1013.925781 1277.03125 1014.890625 1277.582031 C 1015.859375 1278.109375 1016.34375 1278.800781 1016.34375 1279.65625 C 1016.34375 1281.363281 1014.398438 1282.394531 1010.515625 1282.753906 C 1010.289062 1282.753906 1008.925781 1282.65625 1006.425781 1282.46875 C 1003.945312 1282.296875 1000.972656 1282.117188 997.503906 1281.929688 C 994.058594 1281.738281 991.066406 1281.644531 988.527344 1281.644531 C 985.988281 1281.644531 983.109375 1281.738281 979.890625 1281.929688 C 976.667969 1282.117188 973.941406 1282.296875 971.707031 1282.46875 C 969.472656 1282.65625 968.230469 1282.753906 967.988281 1282.753906 C 963.988281 1282.394531 961.992188 1281.363281 961.992188 1279.65625 C 961.992188 1278.800781 962.476562 1278.109375 963.4375 1277.582031 C 964.40625 1277.03125 965.886719 1276.425781 967.871094 1275.761719 C 969.878906 1275.078125 971.253906 1274.558594 971.992188 1274.195312 C 978.050781 1271.523438 980.894531 1266.425781 980.515625 1258.902344 L 978.15625 1201.59375 C 978.042969 1199.546875 977.257812 1198.828125 975.796875 1199.433594 C 974.832031 1199.90625 974.046875 1200.816406 973.441406 1202.164062 L 948.894531 1258.5625 C 947.929688 1260.742188 946.195312 1264.171875 943.695312 1268.851562 C 941.214844 1273.515625 939.613281 1275.84375 938.894531 1275.84375 C 937.925781 1275.84375 936.953125 1275.117188 935.964844 1273.65625 C 935.003906 1272.195312 933.609375 1269.167969 931.792969 1264.558594 L 909.433594 1207.25 C 908.582031 1205.070312 907.824219 1203.734375 907.160156 1203.242188 C 906.496094 1202.75 905.976562 1202.902344 905.597656 1203.699219 C 905.238281 1204.492188 905 1205.734375 904.886719 1207.421875 L 901.789062 1258.191406 C 901.542969 1261.226562 901.875 1264.40625 902.785156 1267.746094 C 903.695312 1271.078125 905.246094 1273.230469 907.445312 1274.195312 C 908.164062 1274.558594 909.519531 1275.078125 911.503906 1275.761719 C 913.515625 1276.425781 915.003906 1277.03125 915.964844 1277.582031 C 916.953125 1278.109375 917.445312 1278.800781 917.445312 1279.65625 C 917.445312 1281.363281 915.503906 1282.394531 911.621094 1282.753906 C 911.375 1282.753906 910.339844 1282.65625 908.523438 1282.46875 C 906.707031 1282.296875 904.402344 1282.117188 901.621094 1281.929688 C 898.835938 1281.738281 896.164062 1281.644531 893.609375 1281.644531 C 891.070312 1281.644531 888.519531 1281.738281 885.964844 1281.929688 C 883.429688 1282.117188 881.335938 1282.296875 879.6875 1282.46875 C 878.058594 1282.65625 877.121094 1282.753906 876.875 1282.753906 C 872.878906 1282.394531 870.878906 1281.363281 870.878906 1279.65625 C 870.878906 1278.800781 871.335938 1278.109375 872.242188 1277.582031 C 873.152344 1277.03125 874.640625 1276.425781 876.703125 1275.761719 C 878.769531 1275.078125 880.160156 1274.558594 880.878906 1274.195312 C 886.46875 1271.769531 889.980469 1265.402344 891.417969 1255.09375 L 897.613281 1206.710938 C 898.332031 1200.757812 898.210938 1196.449219 897.246094 1193.773438 C 896.277344 1191.101562 894.460938 1188.554688 891.789062 1186.128906 C 891.070312 1185.410156 889.800781 1184.472656 887.980469 1183.316406 C 886.164062 1182.15625 884.707031 1181.097656 883.609375 1180.128906 C 882.53125 1179.164062 881.988281 1178.253906 881.988281 1177.402344 C 881.988281 1175.714844 884.042969 1174.871094 888.152344 1174.871094 C 890.21875 1174.871094 893.371094 1175.023438 897.613281 1175.328125 C 901.855469 1175.628906 905.4375 1175.78125 908.351562 1175.78125 C 910.777344 1175.78125 912.863281 1176.660156 914.601562 1178.425781 C 916.363281 1180.167969 918.097656 1183.105469 919.800781 1187.238281 L 941.082031 1239.460938 C 941.554688 1240.785156 941.914062 1241.628906 942.160156 1241.988281 C 942.40625 1242.347656 942.738281 1242.746094 943.15625 1243.179688 C 943.589844 1243.601562 944.113281 1243.476562 944.71875 1242.8125 C 945.324219 1242.148438 945.988281 1240.964844 946.707031 1239.257812 L 975.257812 1179.960938 C 976.226562 1178.007812 977.3125 1176.824219 978.527344 1176.40625 C 979.738281 1175.988281 981.738281 1175.78125 984.523438 1175.78125 C 985.980469 1175.78125 989.671875 1175.480469 995.601562 1174.871094 C 1001.550781 1174.265625 1005.554688 1173.960938 1007.617188 1173.960938 C 1009.550781 1173.960938 1010.515625 1174.984375 1010.515625 1177.03125 C 1010.515625 1177.886719 1010.0625 1178.585938 1009.152344 1179.132812 C 1008.242188 1179.683594 1005.792969 1180.800781 1001.792969 1182.488281 C 998.898438 1183.703125 996.925781 1185.464844 995.882812 1187.777344 C 994.859375 1190.089844 994.472656 1193.785156 994.71875 1198.863281 Z M 997.789062 1258.902344 " fill-opacity="1" fill-rule="nonzero"/><path fill="#000000" d="M 1190.492188 1192.863281 L 1190.492188 1236.902344 C 1190.492188 1250.960938 1186.308594 1262.238281 1177.9375 1270.730469 C 1169.582031 1279.21875 1158.671875 1283.464844 1145.207031 1283.464844 C 1129.941406 1283.464844 1119.304688 1279.558594 1113.304688 1271.753906 C 1107.300781 1263.925781 1104.296875 1252.429688 1104.296875 1237.269531 L 1104.296875 1194.683594 C 1104.296875 1190.441406 1103.636719 1187.625 1102.308594 1186.242188 C 1100.984375 1184.839844 1097.402344 1183.171875 1091.570312 1181.238281 C 1089.636719 1180.632812 1088.671875 1179.601562 1088.671875 1178.140625 C 1088.671875 1177.171875 1089.332031 1176.390625 1090.660156 1175.78125 C 1092.003906 1175.175781 1093.460938 1174.871094 1095.035156 1174.871094 C 1097.457031 1174.871094 1099.910156 1175.023438 1102.394531 1175.328125 C 1104.875 1175.628906 1107.203125 1175.78125 1109.382812 1175.78125 C 1111.578125 1175.78125 1115.0625 1175.628906 1119.839844 1175.328125 C 1124.628906 1175.023438 1128.058594 1174.871094 1130.121094 1174.871094 C 1131.695312 1174.871094 1133.140625 1175.175781 1134.46875 1175.78125 C 1135.8125 1176.390625 1136.484375 1177.171875 1136.484375 1178.140625 C 1136.484375 1179.601562 1135.574219 1180.632812 1133.757812 1181.238281 C 1129.648438 1182.566406 1126.589844 1184.203125 1124.582031 1186.15625 C 1122.574219 1188.089844 1121.570312 1190.808594 1121.570312 1194.3125 L 1121.570312 1230.703125 C 1121.570312 1246.109375 1123.484375 1257.242188 1127.308594 1264.105469 C 1131.136719 1270.949219 1138.378906 1274.367188 1149.042969 1274.367188 C 1160.804688 1274.367188 1168.917969 1270.367188 1173.390625 1262.371094 C 1177.878906 1254.375 1180.121094 1242.601562 1180.121094 1227.0625 L 1180.121094 1193.234375 C 1180.121094 1190.089844 1179.753906 1187.789062 1179.015625 1186.328125 C 1178.296875 1184.867188 1177.539062 1183.960938 1176.742188 1183.597656 C 1175.964844 1183.238281 1173.882812 1182.507812 1170.492188 1181.410156 C 1168.429688 1180.691406 1167.394531 1179.601562 1167.394531 1178.140625 C 1167.394531 1177.171875 1168.058594 1176.390625 1169.386719 1175.78125 C 1170.730469 1175.175781 1172.1875 1174.871094 1173.761719 1174.871094 C 1174.722656 1174.871094 1176.722656 1175.023438 1179.753906 1175.328125 C 1182.785156 1175.628906 1184.726562 1175.78125 1185.578125 1175.78125 C 1186.429688 1175.78125 1188.375 1175.628906 1191.402344 1175.328125 C 1194.433594 1175.023438 1196.375 1174.871094 1197.226562 1174.871094 C 1198.796875 1174.871094 1200.246094 1175.175781 1201.574219 1175.78125 C 1202.917969 1176.390625 1203.589844 1177.171875 1203.589844 1178.140625 C 1203.589844 1179.464844 1202.558594 1180.5 1200.492188 1181.238281 C 1196.25 1182.566406 1193.523438 1183.960938 1192.3125 1185.417969 C 1191.101562 1186.878906 1190.492188 1189.359375 1190.492188 1192.863281 Z M 1190.492188 1192.863281 " fill-opacity="1" fill-rule="nonzero"/><path fill="#000000" d="M 1332.285156 1194.886719 L 1332.285156 1256.910156 C 1332.285156 1266.007812 1332.007812 1273.617188 1331.460938 1279.738281 C 1330.910156 1285.859375 1330.027344 1290.683594 1328.816406 1294.210938 C 1327.605469 1297.734375 1326.515625 1300.253906 1325.550781 1301.773438 C 1324.582031 1303.289062 1323.191406 1305.070312 1321.375 1307.117188 C 1315.066406 1314.035156 1307.066406 1317.492188 1297.367188 1317.492188 C 1291.914062 1317.492188 1287.699219 1316.515625 1284.722656 1314.5625 C 1281.75 1312.628906 1280.261719 1310.574219 1280.261719 1308.394531 C 1280.261719 1305.96875 1280.964844 1303.667969 1282.367188 1301.488281 C 1283.765625 1299.308594 1285.253906 1298.21875 1286.828125 1298.21875 C 1290.824219 1298.21875 1293.851562 1299.792969 1295.917969 1302.9375 C 1298.949219 1307.542969 1301.800781 1309.84375 1304.46875 1309.84375 C 1308.464844 1309.84375 1311.222656 1307.476562 1312.734375 1302.738281 C 1314.25 1298.019531 1315.007812 1290.875 1315.007812 1281.304688 L 1315.007812 1194.886719 C 1315.007812 1193.671875 1314.972656 1192.609375 1314.894531 1191.699219 C 1314.839844 1190.789062 1314.632812 1189.976562 1314.269531 1189.253906 C 1313.910156 1188.515625 1313.636719 1187.871094 1313.445312 1187.320312 C 1313.273438 1186.773438 1312.824219 1186.261719 1312.082031 1185.789062 C 1311.363281 1185.292969 1310.878906 1184.925781 1310.632812 1184.679688 C 1310.386719 1184.433594 1309.6875 1184.101562 1308.53125 1183.683594 C 1307.394531 1183.269531 1306.636719 1183 1306.261719 1182.886719 C 1305.898438 1182.753906 1304.902344 1182.480469 1303.273438 1182.0625 C 1301.648438 1181.628906 1300.585938 1181.351562 1300.09375 1181.238281 C 1298.160156 1180.632812 1297.195312 1179.601562 1297.195312 1178.140625 C 1297.195312 1177.171875 1297.859375 1176.390625 1299.183594 1175.78125 C 1300.511719 1175.175781 1301.96875 1174.871094 1303.558594 1174.871094 C 1305.984375 1174.871094 1309.402344 1175.023438 1313.816406 1175.328125 C 1318.246094 1175.628906 1321.554688 1175.78125 1323.734375 1175.78125 C 1325.910156 1175.78125 1329.273438 1175.628906 1333.816406 1175.328125 C 1338.363281 1175.023438 1341.667969 1174.871094 1343.734375 1174.871094 C 1345.304688 1174.871094 1346.753906 1175.175781 1348.078125 1175.78125 C 1349.425781 1176.390625 1350.097656 1177.171875 1350.097656 1178.140625 C 1350.097656 1179.601562 1349.1875 1180.632812 1347.371094 1181.238281 C 1346.761719 1181.351562 1345.703125 1181.628906 1344.1875 1182.0625 C 1342.671875 1182.480469 1341.695312 1182.753906 1341.261719 1182.886719 C 1340.84375 1183 1340.054688 1183.269531 1338.902344 1183.683594 C 1337.765625 1184.101562 1337.046875 1184.433594 1336.742188 1184.679688 C 1336.441406 1184.925781 1335.917969 1185.292969 1335.179688 1185.789062 C 1334.460938 1186.261719 1334.003906 1186.773438 1333.816406 1187.320312 C 1333.644531 1187.871094 1333.371094 1188.515625 1332.992188 1189.253906 C 1332.632812 1189.976562 1332.425781 1190.789062 1332.367188 1191.699219 C 1332.3125 1192.609375 1332.285156 1193.671875 1332.285156 1194.886719 Z M 1332.285156 1194.886719 " fill-opacity="1" fill-rule="nonzero"/><path fill="#000000" d="M 1491.152344 1217.625 C 1491.152344 1221.378906 1492.546875 1223.253906 1495.328125 1223.253906 L 1510.953125 1223.253906 C 1512.773438 1223.253906 1514.382812 1223.015625 1515.785156 1222.542969 C 1517.183594 1222.050781 1518.21875 1221.53125 1518.882812 1220.980469 C 1519.542969 1220.429688 1520.605469 1219.492188 1522.066406 1218.164062 C 1522.425781 1217.804688 1522.992188 1217.171875 1523.769531 1216.261719 C 1524.5625 1215.351562 1525.261719 1214.691406 1525.871094 1214.269531 C 1526.476562 1213.835938 1527.082031 1213.617188 1527.6875 1213.617188 C 1529.03125 1213.617188 1529.707031 1214.832031 1529.707031 1217.253906 C 1529.707031 1217.617188 1529.582031 1219.226562 1529.335938 1222.089844 C 1529.089844 1224.933594 1528.96875 1226.835938 1528.96875 1227.804688 C 1528.96875 1228.769531 1528.996094 1230.589844 1529.054688 1233.261719 C 1529.109375 1235.933594 1529.136719 1237.570312 1529.136719 1238.179688 C 1529.136719 1241.324219 1528.351562 1242.898438 1526.78125 1242.898438 C 1526.304688 1242.898438 1525.824219 1242.71875 1525.332031 1242.359375 C 1524.839844 1242 1524.382812 1241.515625 1523.964844 1240.910156 C 1523.550781 1240.300781 1523.191406 1239.761719 1522.886719 1239.285156 C 1522.582031 1238.796875 1522.214844 1238.152344 1521.777344 1237.355469 C 1521.363281 1236.558594 1521.089844 1236.105469 1520.953125 1235.992188 C 1519.382812 1233.453125 1517.261719 1232.179688 1514.59375 1232.179688 L 1495.5 1232.179688 C 1493.8125 1232.179688 1492.667969 1232.484375 1492.0625 1233.089844 C 1491.457031 1233.699219 1491.152344 1234.84375 1491.152344 1236.53125 L 1491.152344 1267.089844 C 1491.152344 1269.515625 1491.664062 1271.308594 1492.6875 1272.460938 C 1493.726562 1273.617188 1495.519531 1274.195312 1498.058594 1274.195312 L 1523.515625 1274.195312 C 1526.902344 1274.195312 1529.6875 1273.921875 1531.863281 1273.371094 C 1534.0625 1272.820312 1536.003906 1271.609375 1537.6875 1269.734375 C 1539.394531 1267.859375 1540.632812 1266.226562 1541.410156 1264.84375 C 1542.207031 1263.441406 1543.457031 1260.921875 1545.160156 1257.28125 C 1546.242188 1254.972656 1547.871094 1253.8125 1550.046875 1253.8125 C 1551.753906 1253.8125 1552.605469 1255.332031 1552.605469 1258.363281 C 1552.605469 1260.675781 1551.695312 1264.351562 1549.878906 1269.394531 C 1548.058594 1274.414062 1546.667969 1277.710938 1545.699219 1279.285156 C 1545.09375 1280.386719 1544.667969 1281.113281 1544.425781 1281.476562 C 1544.175781 1281.835938 1543.75 1282.136719 1543.144531 1282.386719 C 1542.539062 1282.628906 1541.75 1282.753906 1540.785156 1282.753906 C 1539.574219 1282.753906 1531.324219 1282.601562 1516.042969 1282.296875 C 1500.773438 1281.996094 1489.382812 1281.84375 1481.863281 1281.84375 C 1479.324219 1281.84375 1476.445312 1281.910156 1473.226562 1282.042969 C 1470.027344 1282.15625 1467.300781 1282.296875 1465.046875 1282.46875 C 1462.808594 1282.65625 1461.570312 1282.753906 1461.320312 1282.753906 C 1457.328125 1282.394531 1455.328125 1281.363281 1455.328125 1279.65625 C 1455.328125 1278.800781 1455.8125 1278.109375 1456.777344 1277.582031 C 1457.742188 1277.03125 1459.230469 1276.425781 1461.238281 1275.761719 C 1463.246094 1275.078125 1464.609375 1274.558594 1465.328125 1274.195312 C 1468.359375 1272.871094 1470.535156 1271.203125 1471.863281 1269.195312 C 1473.207031 1267.183594 1473.878906 1264.484375 1473.878906 1261.09375 L 1473.878906 1194.683594 C 1473.878906 1193.605469 1473.839844 1192.609375 1473.765625 1191.699219 C 1473.710938 1190.789062 1473.5 1189.9375 1473.140625 1189.140625 C 1472.78125 1188.34375 1472.507812 1187.710938 1472.316406 1187.238281 C 1472.148438 1186.742188 1471.691406 1186.261719 1470.953125 1185.789062 C 1470.234375 1185.292969 1469.75 1184.925781 1469.503906 1184.679688 C 1469.257812 1184.433594 1468.558594 1184.101562 1467.402344 1183.683594 C 1466.265625 1183.269531 1465.480469 1183 1465.046875 1182.886719 C 1464.628906 1182.753906 1463.660156 1182.480469 1462.148438 1182.0625 C 1460.632812 1181.628906 1459.570312 1181.351562 1458.964844 1181.238281 C 1457.03125 1180.632812 1456.066406 1179.601562 1456.066406 1178.140625 C 1456.066406 1175.960938 1458.1875 1174.871094 1462.429688 1174.871094 L 1514.59375 1174.871094 C 1517.507812 1174.871094 1521.667969 1174.71875 1527.066406 1174.417969 C 1532.460938 1174.113281 1535.519531 1173.960938 1536.242188 1173.960938 C 1539.023438 1173.960938 1540.59375 1174.804688 1540.957031 1176.492188 C 1542.054688 1180.871094 1542.605469 1185.84375 1542.605469 1191.417969 C 1542.605469 1194.5625 1541.640625 1196.132812 1539.707031 1196.132812 C 1537.398438 1196.132812 1535.207031 1193.832031 1533.144531 1189.226562 C 1531.210938 1185.230469 1526.308594 1183.230469 1518.425781 1183.230469 L 1496.777344 1183.230469 C 1494.488281 1183.230469 1492.96875 1183.53125 1492.234375 1184.140625 C 1491.511719 1184.742188 1491.152344 1185.710938 1491.152344 1187.035156 Z M 1491.152344 1217.625 " fill-opacity="1" fill-rule="nonzero"/><path fill="#000000" d="M 1706.253906 1237.640625 C 1717.636719 1254.621094 1728.964844 1267.167969 1740.234375 1275.277344 C 1742.183594 1276.738281 1745.640625 1277.710938 1750.601562 1278.203125 C 1752.667969 1278.453125 1753.699219 1279.484375 1753.699219 1281.304688 C 1753.699219 1282.875 1752.421875 1284.175781 1749.863281 1285.199219 C 1747.328125 1286.242188 1744.363281 1286.761719 1740.972656 1286.761719 C 1730.914062 1286.761719 1723.214844 1283.910156 1717.875 1278.203125 C 1706.851562 1266.683594 1697.277344 1254.070312 1689.152344 1240.371094 C 1686.726562 1236.351562 1681.699219 1234.339844 1674.066406 1234.339844 C 1672.113281 1234.339844 1670.78125 1234.710938 1670.0625 1235.449219 C 1669.339844 1236.171875 1668.980469 1237.441406 1668.980469 1239.257812 L 1668.980469 1261.09375 C 1668.980469 1264.484375 1669.644531 1267.183594 1670.96875 1269.195312 C 1672.292969 1271.203125 1674.472656 1272.871094 1677.503906 1274.195312 C 1678.242188 1274.558594 1679.605469 1275.078125 1681.59375 1275.761719 C 1683.601562 1276.425781 1685.089844 1277.03125 1686.054688 1277.582031 C 1687.023438 1278.109375 1687.503906 1278.800781 1687.503906 1279.65625 C 1687.503906 1281.363281 1685.574219 1282.394531 1681.707031 1282.753906 C 1681.460938 1282.753906 1680.089844 1282.65625 1677.589844 1282.46875 C 1675.109375 1282.296875 1672.144531 1282.117188 1668.695312 1281.929688 C 1665.25 1281.738281 1662.246094 1281.644531 1659.691406 1281.644531 C 1657.398438 1281.644531 1654.699219 1281.738281 1651.59375 1281.929688 C 1648.507812 1282.117188 1645.808594 1282.296875 1643.496094 1282.46875 C 1641.203125 1282.65625 1639.9375 1282.753906 1639.691406 1282.753906 C 1635.691406 1282.394531 1633.695312 1281.363281 1633.695312 1279.65625 C 1633.695312 1278.800781 1634.179688 1278.109375 1635.144531 1277.582031 C 1636.109375 1277.03125 1637.597656 1276.425781 1639.605469 1275.761719 C 1641.613281 1275.078125 1642.976562 1274.558594 1643.695312 1274.195312 C 1646.726562 1272.871094 1648.90625 1271.203125 1650.230469 1269.195312 C 1651.574219 1267.183594 1652.246094 1264.484375 1652.246094 1261.09375 L 1652.246094 1195.425781 C 1652.246094 1194.324219 1652.207031 1193.320312 1652.132812 1192.410156 C 1652.078125 1191.503906 1651.867188 1190.660156 1651.507812 1189.878906 C 1651.148438 1189.085938 1650.875 1188.449219 1650.683594 1187.976562 C 1650.511719 1187.484375 1650.058594 1187 1649.320312 1186.523438 C 1648.601562 1186.035156 1648.117188 1185.664062 1647.871094 1185.417969 C 1647.625 1185.171875 1646.921875 1184.839844 1645.769531 1184.421875 C 1644.632812 1183.988281 1643.847656 1183.710938 1643.410156 1183.597656 C 1642.996094 1183.464844 1642.027344 1183.191406 1640.511719 1182.773438 C 1639 1182.359375 1637.9375 1182.082031 1637.332031 1181.949219 C 1635.398438 1181.34375 1634.433594 1180.308594 1634.433594 1178.851562 C 1634.433594 1176.917969 1636.554688 1175.828125 1640.796875 1175.582031 C 1656.0625 1174.367188 1669.273438 1173.765625 1680.429688 1173.765625 C 1690.734375 1173.765625 1699.757812 1175.980469 1707.503906 1180.414062 C 1715.269531 1184.832031 1719.152344 1191.28125 1719.152344 1199.773438 C 1719.152344 1209.855469 1714.363281 1218.347656 1704.777344 1225.246094 C 1704.304688 1225.625 1703.820312 1225.964844 1703.328125 1226.269531 C 1702.855469 1226.570312 1702.523438 1226.820312 1702.335938 1227.007812 C 1702.144531 1227.179688 1701.996094 1227.386719 1701.878906 1227.632812 C 1701.765625 1227.859375 1701.710938 1228.164062 1701.710938 1228.542969 C 1701.710938 1230.113281 1703.226562 1233.148438 1706.253906 1237.640625 Z M 1676.421875 1227.804688 C 1679.09375 1227.804688 1681.792969 1227.445312 1684.523438 1226.722656 C 1687.25 1225.984375 1689.035156 1225.128906 1689.890625 1224.164062 C 1697.277344 1217.855469 1700.96875 1210.632812 1700.96875 1202.503906 C 1700.96875 1196.570312 1698.699219 1191.632812 1694.152344 1187.691406 C 1689.605469 1183.75 1684.246094 1181.777344 1678.074219 1181.777344 C 1675.515625 1181.777344 1673.355469 1182.386719 1671.59375 1183.597656 C 1669.851562 1184.808594 1668.980469 1186.261719 1668.980469 1187.945312 L 1668.980469 1223.085938 C 1668.980469 1226.230469 1671.460938 1227.804688 1676.421875 1227.804688 Z M 1676.421875 1227.804688 " fill-opacity="1" fill-rule="nonzero"/><path fill="#000000" d="M 1870.617188 1217.625 C 1870.617188 1221.378906 1872.007812 1223.253906 1874.792969 1223.253906 L 1890.417969 1223.253906 C 1892.234375 1223.253906 1893.847656 1223.015625 1895.246094 1222.542969 C 1896.648438 1222.050781 1897.679688 1221.53125 1898.34375 1220.980469 C 1899.007812 1220.429688 1900.066406 1219.492188 1901.527344 1218.164062 C 1901.886719 1217.804688 1902.453125 1217.171875 1903.230469 1216.261719 C 1904.027344 1215.351562 1904.726562 1214.691406 1905.332031 1214.269531 C 1905.9375 1213.835938 1906.542969 1213.617188 1907.152344 1213.617188 C 1908.496094 1213.617188 1909.167969 1214.832031 1909.167969 1217.253906 C 1909.167969 1217.617188 1909.046875 1219.226562 1908.796875 1222.089844 C 1908.550781 1224.933594 1908.429688 1226.835938 1908.429688 1227.804688 C 1908.429688 1228.769531 1908.460938 1230.589844 1908.515625 1233.261719 C 1908.570312 1235.933594 1908.601562 1237.570312 1908.601562 1238.179688 C 1908.601562 1241.324219 1907.8125 1242.898438 1906.242188 1242.898438 C 1905.769531 1242.898438 1905.285156 1242.71875 1904.792969 1242.359375 C 1904.300781 1242 1903.847656 1241.515625 1903.429688 1240.910156 C 1903.011719 1240.300781 1902.652344 1239.761719 1902.347656 1239.285156 C 1902.046875 1238.796875 1901.679688 1238.152344 1901.242188 1237.355469 C 1900.824219 1236.558594 1900.550781 1236.105469 1900.417969 1235.992188 C 1898.847656 1233.453125 1896.722656 1232.179688 1894.054688 1232.179688 L 1874.960938 1232.179688 C 1873.277344 1232.179688 1872.128906 1232.484375 1871.527344 1233.089844 C 1870.917969 1233.699219 1870.617188 1234.84375 1870.617188 1236.53125 L 1870.617188 1267.089844 C 1870.617188 1269.515625 1871.128906 1271.308594 1872.148438 1272.460938 C 1873.191406 1273.617188 1874.980469 1274.195312 1877.519531 1274.195312 L 1902.972656 1274.195312 C 1906.363281 1274.195312 1909.148438 1273.921875 1911.328125 1273.371094 C 1913.523438 1272.820312 1915.464844 1271.609375 1917.152344 1269.734375 C 1918.855469 1267.859375 1920.097656 1266.226562 1920.871094 1264.84375 C 1921.667969 1263.441406 1922.917969 1260.921875 1924.625 1257.28125 C 1925.703125 1254.972656 1927.332031 1253.8125 1929.511719 1253.8125 C 1931.214844 1253.8125 1932.066406 1255.332031 1932.066406 1258.363281 C 1932.066406 1260.675781 1931.160156 1264.351562 1929.339844 1269.394531 C 1927.523438 1274.414062 1926.128906 1277.710938 1925.164062 1279.285156 C 1924.558594 1280.386719 1924.128906 1281.113281 1923.882812 1281.476562 C 1923.640625 1281.835938 1923.210938 1282.136719 1922.605469 1282.386719 C 1922 1282.628906 1921.214844 1282.753906 1920.25 1282.753906 C 1919.035156 1282.753906 1910.789062 1282.601562 1895.503906 1282.296875 C 1880.238281 1281.996094 1868.84375 1281.84375 1861.324219 1281.84375 C 1858.785156 1281.84375 1855.910156 1281.910156 1852.6875 1282.042969 C 1849.488281 1282.15625 1846.761719 1282.296875 1844.503906 1282.46875 C 1842.273438 1282.65625 1841.03125 1282.753906 1840.785156 1282.753906 C 1836.789062 1282.394531 1834.789062 1281.363281 1834.789062 1279.65625 C 1834.789062 1278.800781 1835.273438 1278.109375 1836.238281 1277.582031 C 1837.207031 1277.03125 1838.691406 1276.425781 1840.699219 1275.761719 C 1842.707031 1275.078125 1844.070312 1274.558594 1844.792969 1274.195312 C 1847.820312 1272.871094 1850 1271.203125 1851.324219 1269.195312 C 1852.667969 1267.183594 1853.34375 1264.484375 1853.34375 1261.09375 L 1853.34375 1194.683594 C 1853.34375 1193.605469 1853.304688 1192.609375 1853.230469 1191.699219 C 1853.171875 1190.789062 1852.964844 1189.9375 1852.605469 1189.140625 C 1852.246094 1188.34375 1851.96875 1187.710938 1851.78125 1187.238281 C 1851.609375 1186.742188 1851.15625 1186.261719 1850.414062 1185.789062 C 1849.695312 1185.292969 1849.214844 1184.925781 1848.964844 1184.679688 C 1848.722656 1184.433594 1848.019531 1184.101562 1846.863281 1183.683594 C 1845.730469 1183.269531 1844.941406 1183 1844.503906 1182.886719 C 1844.089844 1182.753906 1843.125 1182.480469 1841.609375 1182.0625 C 1840.09375 1181.628906 1839.03125 1181.351562 1838.425781 1181.238281 C 1836.492188 1180.632812 1835.527344 1179.601562 1835.527344 1178.140625 C 1835.527344 1175.960938 1837.648438 1174.871094 1841.890625 1174.871094 L 1894.054688 1174.871094 C 1896.972656 1174.871094 1901.128906 1174.71875 1906.527344 1174.417969 C 1911.921875 1174.113281 1914.984375 1173.960938 1915.703125 1173.960938 C 1918.488281 1173.960938 1920.058594 1174.804688 1920.417969 1176.492188 C 1921.519531 1180.871094 1922.066406 1185.84375 1922.066406 1191.417969 C 1922.066406 1194.5625 1921.101562 1196.132812 1919.167969 1196.132812 C 1916.859375 1196.132812 1914.671875 1193.832031 1912.605469 1189.226562 C 1910.675781 1185.230469 1905.769531 1183.230469 1897.890625 1183.230469 L 1876.242188 1183.230469 C 1873.949219 1183.230469 1872.433594 1183.53125 1871.695312 1184.140625 C 1870.976562 1184.742188 1870.617188 1185.710938 1870.617188 1187.035156 Z M 1870.617188 1217.625 " fill-opacity="1" fill-rule="nonzero"/><path fill="#000000" d="M 2039.078125 1173.050781 C 2045.5 1173.050781 2051.617188 1174.625 2057.429688 1177.773438 C 2060.824219 1179.589844 2062.640625 1181.351562 2062.886719 1183.058594 C 2063.378906 1185.597656 2063.625 1189.046875 2063.625 1193.40625 C 2063.625 1196.683594 2062.414062 1198.324219 2059.988281 1198.324219 C 2057.429688 1198.324219 2055.007812 1195.539062 2052.714844 1189.964844 C 2051.863281 1187.898438 2049.976562 1186.289062 2047.0625 1185.132812 C 2044.164062 1183.976562 2041.257812 1183.398438 2038.339844 1183.398438 C 2034.34375 1183.398438 2030.859375 1184.800781 2027.882812 1187.609375 C 2024.910156 1190.390625 2023.425781 1193.785156 2023.425781 1197.785156 C 2023.425781 1202.75 2026.519531 1207.847656 2032.714844 1213.078125 L 2058.339844 1234.710938 C 2064.15625 1239.5625 2067.0625 1245.75 2067.0625 1253.273438 C 2067.0625 1261.878906 2063.332031 1269.210938 2055.867188 1275.277344 C 2048.425781 1281.339844 2039.980469 1284.375 2030.527344 1284.375 C 2023.613281 1284.375 2017.25 1283.046875 2011.4375 1280.394531 C 2007.914062 1278.800781 2005.640625 1277.617188 2004.617188 1276.839844 C 2003.59375 1276.046875 2003.082031 1275.039062 2003.082031 1273.828125 C 2003.082031 1270.191406 2003.441406 1266.011719 2004.160156 1261.289062 C 2004.65625 1258.371094 2005.808594 1256.910156 2007.628906 1256.910156 C 2010.050781 1256.910156 2012.109375 1259.765625 2013.792969 1265.46875 C 2014.890625 1268.863281 2017.164062 1271.6875 2020.609375 1273.941406 C 2024.078125 1276.175781 2028.351562 1277.292969 2033.425781 1277.292969 C 2037.914062 1277.292969 2041.671875 1275.542969 2044.703125 1272.035156 C 2047.734375 1268.511719 2049.25 1264.4375 2049.25 1259.8125 C 2049.25 1254.242188 2046.824219 1249.390625 2041.976562 1245.257812 L 2017.429688 1224.535156 C 2010.289062 1218.582031 2006.71875 1211.609375 2006.71875 1203.609375 C 2006.71875 1195.121094 2009.863281 1187.910156 2016.152344 1181.976562 C 2022.457031 1176.027344 2030.101562 1173.050781 2039.078125 1173.050781 Z M 2039.078125 1173.050781 " fill-opacity="1" fill-rule="nonzero"/></svg>