<svg xmlns="http://www.w3.org/2000/svg" xmlns:xlink="http://www.w3.org/1999/xlink" width="2797" zoomAndPan="magnify" viewBox="0 0 2097.75 2097.749898" height="2797" preserveAspectRatio="xMidYMid meet" version="1.0"><defs><clipPath id="2d8f538aa7"><path d="M 0 586 L 2097.5 586 L 2097.5 1511 L 0 1511 Z M 0 586 " clip-rule="nonzero"/></clipPath><clipPath id="a176cfce9f"><rect x="0" width="2098" y="0" height="925"/></clipPath></defs><g clip-path="url(#2d8f538aa7)"><g transform="matrix(1, 0, 0, 1, 0, 586)"><g clip-path="url(#a176cfce9f)"><path fill="#000000" d="M 120.691406 585.304688 C 100.875 576.355469 82.207031 566.171875 65.464844 552.671875 C 42.75 534.355469 23.820312 513.257812 14.402344 484.917969 C 9.6875 470.71875 7.867188 456.21875 10.480469 441.488281 C 15.296875 414.320312 31.164062 395.472656 55.550781 383.351562 C 66.03125 378.140625 77.117188 375.1875 88.78125 374.398438 C 89.371094 374.359375 89.996094 374.402344 90.550781 374.570312 C 90.929688 374.683594 91.214844 375.089844 91.535156 375.359375 C 91.523438 377.722656 89.714844 377.8125 88.175781 378.324219 C 63.726562 386.433594 49.027344 403.746094 42.105469 427.976562 C 32.691406 460.910156 40.476562 491.019531 58.820312 518.742188 C 76.816406 545.933594 102.179688 564.511719 131.351562 578.390625 C 155.066406 589.671875 179.949219 597.148438 205.992188 599.285156 C 227.363281 601.039062 248.910156 601.019531 270.289062 597.457031 C 290.160156 594.144531 309.644531 589.515625 328.574219 582.589844 C 334.65625 580.367188 334.953125 579.667969 333.023438 573.347656 C 326.945312 553.4375 321.5 533.320312 314.84375 513.609375 C 306.996094 490.371094 302.3125 466.007812 290.808594 444.058594 C 281.859375 426.996094 268.855469 413.359375 253.855469 401.488281 C 229.9375 382.5625 202.828125 368.695312 176.933594 352.917969 C 156.871094 340.695312 137.15625 328.097656 120.917969 310.792969 C 104.054688 292.820312 94.140625 271.835938 95.167969 246.964844 C 96.125 223.8125 105.09375 203.539062 120.9375 186.480469 C 134.707031 171.65625 151.070312 160.820312 170.433594 154.691406 C 191.125 148.140625 212.167969 146.957031 233.613281 150.097656 C 258.832031 153.792969 281.9375 162.847656 303.449219 176.34375 C 306.671875 178.367188 308.265625 180.6875 308.496094 184.632812 C 309.492188 201.765625 308.671875 218.910156 309.042969 236.042969 C 309.082031 237.757812 309.378906 239.742188 307.113281 240.574219 C 305.074219 239.828125 305.425781 237.949219 305 236.441406 C 296.25 205.421875 280.152344 179.921875 250.609375 164.71875 C 238.007812 158.238281 224.625 155.183594 210.328125 154.886719 C 193.078125 154.53125 176.824219 157.386719 161.886719 166.210938 C 143.078125 177.324219 129.460938 192.570312 125.386719 214.664062 C 121.496094 235.738281 125.371094 255.121094 138.769531 272.4375 C 150.808594 288.003906 166.792969 298.710938 182.96875 309.058594 C 201.691406 321.035156 221.058594 331.996094 240.015625 343.617188 C 259.761719 355.71875 278.957031 368.582031 295.753906 384.734375 C 314.597656 402.851562 327.46875 424.535156 335.339844 449.363281 C 345.535156 481.523438 355.140625 513.855469 364.417969 546.292969 C 365.613281 550.46875 366.960938 554.601562 368.234375 558.753906 C 369.796875 563.835938 370.105469 564.074219 374.648438 561.703125 C 383.574219 557.042969 392.351562 552.113281 400.910156 546.792969 C 422.621094 533.304688 443.441406 518.507812 464.359375 503.84375 C 467.320312 501.769531 468.085938 499.757812 466.847656 496.285156 C 460.449219 478.347656 454.296875 460.324219 447.988281 442.351562 C 443.570312 429.765625 438.65625 417.339844 434.671875 404.621094 C 430.519531 391.371094 422.347656 383.300781 408.472656 381.265625 C 407.597656 381.140625 406.75 380.785156 405.917969 380.457031 C 405.703125 380.371094 405.609375 379.984375 405.320312 379.511719 C 406.269531 377.542969 408.203125 377.863281 409.882812 377.859375 C 438.902344 377.828125 467.921875 377.824219 496.941406 377.835938 C 498.65625 377.835938 500.554688 377.601562 501.609375 379.59375 C 500.292969 381.84375 498.171875 381.480469 496.335938 381.644531 C 491.90625 382.046875 487.796875 383.527344 484.015625 385.699219 C 476.863281 389.804688 474.222656 397.226562 476.746094 406.523438 C 480.828125 421.578125 486.359375 436.171875 491.296875 450.953125 C 493.53125 457.644531 495.703125 464.355469 497.992188 471.027344 C 499.640625 475.820312 500.507812 476.101562 504.535156 472.980469 C 520.089844 460.921875 535.449219 448.605469 551.15625 436.75 C 591.507812 406.296875 632.75 377.15625 679.535156 357.164062 C 696.339844 349.980469 713.726562 344.296875 732.246094 342.746094 C 754.535156 340.878906 775.492188 351.4375 783.53125 368.914062 C 794.648438 393.066406 784.507812 420.414062 765.253906 434.792969 C 760.179688 438.582031 754.703125 441.738281 748.707031 443.871094 C 746.378906 444.699219 743.597656 446.308594 742.402344 442.488281 C 741.386719 439.242188 744.050781 438.265625 746.3125 437.523438 C 752.558594 435.476562 757.976562 432.019531 763.148438 428.109375 C 779.132812 416.027344 785.832031 389.851562 777.191406 371.871094 C 770.152344 357.230469 757.984375 350.011719 741.929688 349.390625 C 732.292969 349.019531 732.414062 349.265625 729.121094 358.152344 C 717.011719 390.824219 703.921875 423.109375 690.585938 455.296875 C 668.386719 508.871094 645.484375 562.140625 622.238281 615.261719 C 604.171875 656.542969 586.332031 697.921875 567.328125 738.78125 C 565.492188 742.726562 563.789062 746.734375 562.042969 750.722656 C 561.550781 751.847656 561.070312 753.027344 559.65625 753.132812 C 557.910156 753.265625 557.457031 751.757812 556.90625 750.582031 C 553.140625 742.542969 550.929688 733.933594 547.890625 725.628906 C 540.628906 705.785156 533.335938 685.953125 526.273438 666.042969 C 517.949219 642.589844 509.910156 619.035156 501.636719 595.566406 C 494.0625 574.082031 486.339844 552.648438 478.664062 531.199219 C 478.574219 530.949219 478.253906 530.785156 477.722656 530.277344 C 475.023438 533.371094 474.152344 537.347656 472.800781 540.953125 C 457.617188 581.449219 443.09375 622.203125 427.320312 662.46875 C 416.152344 690.976562 405.046875 719.507812 394.171875 748.128906 C 393.90625 748.832031 393.578125 749.511719 393.285156 750.203125 C 392.699219 751.582031 392.246094 753.269531 390.40625 753.253906 C 388.4375 753.234375 388.300781 751.382812 387.875 750 C 384.410156 738.683594 381.078125 727.324219 377.515625 716.042969 C 370.792969 694.757812 363.851562 673.542969 357.167969 652.25 C 350.894531 632.265625 344.890625 612.199219 338.648438 592.203125 C 336.78125 586.21875 336.589844 586.261719 330.449219 588.476562 C 312.066406 595.101562 293.3125 600.035156 273.992188 603.40625 C 248.878906 607.789062 223.710938 607.574219 198.582031 605.777344 C 171.601562 603.847656 145.921875 595.839844 120.691406 585.304688 M 695.386719 425.660156 C 705.15625 401.082031 715.714844 376.804688 724.359375 351.039062 C 721.632812 351.230469 719.808594 351.121094 718.097656 351.511719 C 701.492188 355.3125 685.742188 361.542969 670.347656 368.710938 C 639.570312 383.035156 611.4375 401.761719 583.691406 421.105469 C 556.8125 439.84375 531.597656 460.792969 505.300781 480.308594 C 502.761719 482.195312 502.851562 484.46875 503.75 487.117188 C 506.011719 493.789062 508.109375 500.511719 510.398438 507.175781 C 517.796875 528.726562 525.132812 550.304688 532.71875 571.796875 C 547.242188 612.949219 560.847656 654.410156 574.617188 695.816406 C 575.15625 697.441406 575.539062 699.289062 577.425781 700.089844 C 581.929688 693.3125 674.371094 478.171875 695.386719 425.660156 M 400.527344 669.496094 C 403.519531 677.042969 404.289062 685.339844 408.199219 693.53125 C 409.253906 691.300781 409.980469 690 410.507812 688.625 C 416.773438 672.207031 423.035156 655.792969 429.25 639.355469 C 443.800781 600.875 458.199219 562.335938 472.980469 523.945312 C 475.417969 517.617188 472.6875 513.203125 470.386719 507.996094 C 469.324219 508.484375 468.746094 508.664062 468.261719 508.988281 C 466.390625 510.242188 464.523438 511.507812 462.699219 512.832031 C 434.933594 532.929688 406.867188 552.558594 376.214844 568.136719 C 372.800781 569.871094 371.90625 571.796875 373.074219 575.648438 C 377.863281 591.414062 382.238281 607.304688 386.84375 623.128906 C 391.277344 638.375 395.804688 653.589844 400.527344 669.496094 Z M 400.527344 669.496094 " fill-opacity="1" fill-rule="nonzero"/><path fill="#000000" d="M 499.226562 228.902344 C 493.9375 230.292969 488.777344 231.21875 483.738281 232.585938 C 470.820312 236.097656 462.984375 244.605469 459.863281 257.550781 C 459.199219 260.320312 458.6875 263.128906 457.921875 265.867188 C 457.429688 267.628906 457.515625 269.804688 454.480469 271.09375 C 451.589844 260.25 450.5625 248.640625 442.050781 240.414062 C 433.65625 232.304688 422.285156 231.460938 411.5 229.25 C 412.390625 226.390625 414.246094 226.59375 415.78125 226.292969 C 419.308594 225.601562 422.847656 224.992188 426.375 224.308594 C 441.292969 221.410156 448.519531 211.175781 452.089844 197.398438 C 452.890625 194.308594 453.210938 191.023438 455.125 187.914062 C 457.777344 190.164062 457.894531 193.0625 458.5 195.742188 C 460.859375 206.160156 465.03125 215.375 474.878906 220.949219 C 481.042969 224.4375 487.835938 225.421875 494.699219 226.261719 C 496.496094 226.480469 498.800781 225.96875 499.226562 228.902344 Z M 499.226562 228.902344 " fill-opacity="1" fill-rule="nonzero"/><path fill="#000000" d="M 1020.472656 562.378906 C 1020.957031 570.171875 1023.777344 575.210938 1028.925781 577.492188 C 1029.65625 577.851562 1031.003906 578.367188 1032.96875 579.039062 C 1034.953125 579.695312 1036.421875 580.296875 1037.375 580.839844 C 1038.332031 581.363281 1038.808594 582.046875 1038.808594 582.890625 C 1038.808594 584.574219 1036.890625 585.597656 1033.050781 585.953125 C 1032.828125 585.953125 1031.480469 585.859375 1029.007812 585.671875 C 1026.554688 585.503906 1023.617188 585.324219 1020.191406 585.136719 C 1016.785156 584.949219 1013.824219 584.855469 1011.316406 584.855469 C 1008.808594 584.855469 1005.964844 584.949219 1002.78125 585.136719 C 999.597656 585.324219 996.902344 585.503906 994.695312 585.671875 C 992.488281 585.859375 991.257812 585.953125 991.015625 585.953125 C 987.066406 585.597656 985.09375 584.574219 985.09375 582.890625 C 985.09375 582.046875 985.570312 581.363281 986.523438 580.839844 C 987.476562 580.296875 988.9375 579.695312 990.902344 579.039062 C 992.886719 578.367188 994.246094 577.851562 994.976562 577.492188 C 1000.964844 574.855469 1003.773438 569.816406 1003.398438 562.378906 L 1001.070312 505.734375 C 1000.957031 503.710938 1000.179688 503 998.738281 503.597656 C 997.785156 504.066406 997.007812 504.964844 996.40625 506.296875 L 972.144531 562.039062 C 971.191406 564.195312 969.480469 567.585938 967.007812 572.210938 C 964.554688 576.820312 962.972656 579.125 962.261719 579.125 C 961.308594 579.125 960.34375 578.402344 959.367188 576.960938 C 958.414062 575.515625 957.039062 572.523438 955.242188 567.96875 L 933.144531 511.324219 C 932.300781 509.171875 931.550781 507.851562 930.894531 507.367188 C 930.242188 506.878906 929.726562 507.027344 929.351562 507.816406 C 928.996094 508.601562 928.761719 509.828125 928.648438 511.496094 L 925.589844 561.675781 C 925.347656 564.671875 925.671875 567.820312 926.570312 571.117188 C 927.472656 574.414062 929.003906 576.539062 931.179688 577.492188 C 931.890625 577.851562 933.226562 578.367188 935.191406 579.039062 C 937.175781 579.695312 938.648438 580.296875 939.601562 580.839844 C 940.574219 581.363281 941.0625 582.046875 941.0625 582.890625 C 941.0625 584.574219 939.140625 585.597656 935.304688 585.953125 C 935.0625 585.953125 934.039062 585.859375 932.246094 585.671875 C 930.449219 585.503906 928.171875 585.324219 925.421875 585.136719 C 922.667969 584.949219 920.027344 584.855469 917.503906 584.855469 C 914.992188 584.855469 912.476562 584.949219 909.949219 585.136719 C 907.441406 585.324219 905.371094 585.503906 903.742188 585.671875 C 902.132812 585.859375 901.207031 585.953125 900.964844 585.953125 C 897.011719 585.597656 895.039062 584.574219 895.039062 582.890625 C 895.039062 582.046875 895.488281 581.363281 896.386719 580.839844 C 897.285156 580.296875 898.753906 579.695312 900.792969 579.039062 C 902.835938 578.367188 904.210938 577.851562 904.921875 577.492188 C 910.445312 575.097656 913.917969 568.804688 915.339844 558.613281 L 921.460938 510.792969 C 922.171875 504.910156 922.050781 500.648438 921.097656 498.007812 C 920.140625 495.367188 918.34375 492.847656 915.707031 490.449219 C 914.992188 489.738281 913.738281 488.8125 911.941406 487.667969 C 910.144531 486.523438 908.703125 485.476562 907.617188 484.523438 C 906.550781 483.566406 906.015625 482.667969 906.015625 481.824219 C 906.015625 480.15625 908.050781 479.324219 912.109375 479.324219 C 914.152344 479.324219 917.269531 479.472656 921.460938 479.773438 C 925.65625 480.074219 929.195312 480.222656 932.074219 480.222656 C 934.472656 480.222656 936.53125 481.09375 938.253906 482.835938 C 939.996094 484.558594 941.707031 487.460938 943.390625 491.546875 L 964.425781 543.160156 C 964.894531 544.472656 965.25 545.304688 965.492188 545.660156 C 965.734375 546.015625 966.0625 546.410156 966.472656 546.839844 C 966.90625 547.253906 967.421875 547.132812 968.019531 546.476562 C 968.617188 545.820312 969.273438 544.648438 969.984375 542.964844 L 998.203125 484.351562 C 999.160156 482.421875 1000.234375 481.253906 1001.433594 480.839844 C 1002.632812 480.425781 1004.609375 480.222656 1007.359375 480.222656 C 1008.800781 480.222656 1012.449219 479.925781 1018.308594 479.324219 C 1024.1875 478.722656 1028.148438 478.425781 1030.1875 478.425781 C 1032.097656 478.425781 1033.050781 479.4375 1033.050781 481.457031 C 1033.050781 482.304688 1032.601562 482.996094 1031.703125 483.539062 C 1030.804688 484.082031 1028.382812 485.183594 1024.429688 486.851562 C 1021.566406 488.050781 1019.621094 489.792969 1018.589844 492.078125 C 1017.578125 494.367188 1017.195312 498.015625 1017.4375 503.039062 Z M 1020.472656 562.378906 " fill-opacity="1" fill-rule="nonzero"/><path fill="#000000" d="M 1210.9375 497.109375 L 1210.9375 540.632812 C 1210.9375 554.527344 1206.800781 565.675781 1198.527344 574.066406 C 1190.269531 582.457031 1179.488281 586.652344 1166.175781 586.652344 C 1151.089844 586.652344 1140.578125 582.796875 1134.644531 575.078125 C 1128.710938 567.34375 1125.742188 555.980469 1125.742188 540.996094 L 1125.742188 498.90625 C 1125.742188 494.710938 1125.089844 491.929688 1123.777344 490.5625 C 1122.464844 489.175781 1118.925781 487.527344 1113.164062 485.617188 C 1111.253906 485.019531 1110.296875 484 1110.296875 482.554688 C 1110.296875 481.597656 1110.953125 480.824219 1112.261719 480.222656 C 1113.59375 479.621094 1115.035156 479.324219 1116.589844 479.324219 C 1118.984375 479.324219 1121.40625 479.472656 1123.859375 479.773438 C 1126.3125 480.074219 1128.617188 480.222656 1130.769531 480.222656 C 1132.941406 480.222656 1136.382812 480.074219 1141.101562 479.773438 C 1145.839844 479.472656 1149.226562 479.324219 1151.265625 479.324219 C 1152.820312 479.324219 1154.25 479.621094 1155.5625 480.222656 C 1156.890625 480.824219 1157.558594 481.597656 1157.558594 482.554688 C 1157.558594 484 1156.65625 485.019531 1154.859375 485.617188 C 1150.796875 486.925781 1147.777344 488.546875 1145.792969 490.476562 C 1143.808594 492.390625 1142.8125 495.074219 1142.8125 498.539062 L 1142.8125 534.503906 C 1142.8125 549.734375 1144.707031 560.738281 1148.488281 567.519531 C 1152.269531 574.28125 1159.429688 577.664062 1169.96875 577.664062 C 1181.59375 577.664062 1189.613281 573.710938 1194.035156 565.808594 C 1198.46875 557.902344 1200.6875 546.269531 1200.6875 530.910156 L 1200.6875 497.476562 C 1200.6875 494.367188 1200.324219 492.089844 1199.59375 490.644531 C 1198.882812 489.203125 1198.132812 488.304688 1197.347656 487.949219 C 1196.578125 487.59375 1194.519531 486.871094 1191.167969 485.785156 C 1189.128906 485.074219 1188.105469 484 1188.105469 482.554688 C 1188.105469 481.597656 1188.765625 480.824219 1190.074219 480.222656 C 1191.402344 479.621094 1192.84375 479.324219 1194.398438 479.324219 C 1195.351562 479.324219 1197.328125 479.472656 1200.324219 479.773438 C 1203.316406 480.074219 1205.238281 480.222656 1206.078125 480.222656 C 1206.921875 480.222656 1208.839844 480.074219 1211.835938 479.773438 C 1214.832031 479.472656 1216.75 479.324219 1217.59375 479.324219 C 1219.144531 479.324219 1220.578125 479.621094 1221.890625 480.222656 C 1223.21875 480.824219 1223.882812 481.597656 1223.882812 482.554688 C 1223.882812 483.867188 1222.863281 484.886719 1220.820312 485.617188 C 1216.628906 486.925781 1213.933594 488.304688 1212.734375 489.746094 C 1211.539062 491.191406 1210.9375 493.644531 1210.9375 497.109375 Z M 1210.9375 497.109375 " fill-opacity="1" fill-rule="nonzero"/><path fill="#000000" d="M 1351.078125 499.105469 L 1351.078125 560.410156 C 1351.078125 569.402344 1350.808594 576.921875 1350.265625 582.972656 C 1349.722656 589.023438 1348.851562 593.789062 1347.652344 597.273438 C 1346.453125 600.757812 1345.378906 603.25 1344.425781 604.75 C 1343.46875 606.246094 1342.09375 608.007812 1340.296875 610.03125 C 1334.0625 616.867188 1326.152344 620.285156 1316.570312 620.285156 C 1311.179688 620.285156 1307.011719 619.320312 1304.074219 617.394531 C 1301.132812 615.480469 1299.664062 613.449219 1299.664062 611.296875 C 1299.664062 608.898438 1300.355469 606.625 1301.742188 604.46875 C 1303.125 602.3125 1304.597656 601.234375 1306.152344 601.234375 C 1310.101562 601.234375 1313.09375 602.792969 1315.136719 605.902344 C 1318.132812 610.453125 1320.949219 612.726562 1323.589844 612.726562 C 1327.539062 612.726562 1330.261719 610.386719 1331.757812 605.703125 C 1333.257812 601.039062 1334.003906 593.980469 1334.003906 584.519531 L 1334.003906 499.105469 C 1334.003906 497.90625 1333.96875 496.855469 1333.894531 495.957031 C 1333.835938 495.058594 1333.632812 494.253906 1333.273438 493.539062 C 1332.917969 492.808594 1332.648438 492.171875 1332.460938 491.628906 C 1332.292969 491.085938 1331.84375 490.582031 1331.113281 490.113281 C 1330.402344 489.625 1329.925781 489.261719 1329.683594 489.015625 C 1329.4375 488.773438 1328.746094 488.445312 1327.605469 488.035156 C 1326.480469 487.621094 1325.730469 487.359375 1325.359375 487.246094 C 1325 487.113281 1324.019531 486.84375 1322.410156 486.433594 C 1320.796875 486 1319.75 485.730469 1319.265625 485.617188 C 1317.355469 485.019531 1316.398438 484 1316.398438 482.554688 C 1316.398438 481.597656 1317.054688 480.824219 1318.367188 480.222656 C 1319.675781 479.621094 1321.117188 479.324219 1322.6875 479.324219 C 1325.085938 479.324219 1328.464844 479.472656 1332.828125 479.773438 C 1337.207031 480.074219 1340.472656 480.222656 1342.628906 480.222656 C 1344.78125 480.222656 1348.101562 480.074219 1352.59375 479.773438 C 1357.085938 479.472656 1360.355469 479.324219 1362.394531 479.324219 C 1363.949219 479.324219 1365.382812 479.621094 1366.691406 480.222656 C 1368.019531 480.824219 1368.6875 481.597656 1368.6875 482.554688 C 1368.6875 484 1367.785156 485.019531 1365.992188 485.617188 C 1365.390625 485.730469 1364.34375 486 1362.84375 486.433594 C 1361.347656 486.84375 1360.382812 487.113281 1359.953125 487.246094 C 1359.539062 487.359375 1358.761719 487.621094 1357.621094 488.035156 C 1356.496094 488.445312 1355.789062 488.773438 1355.484375 489.015625 C 1355.1875 489.261719 1354.671875 489.625 1353.941406 490.113281 C 1353.230469 490.582031 1352.78125 491.085938 1352.59375 491.628906 C 1352.425781 492.171875 1352.152344 492.808594 1351.78125 493.539062 C 1351.425781 494.253906 1351.21875 495.058594 1351.164062 495.957031 C 1351.105469 496.855469 1351.078125 497.90625 1351.078125 499.105469 Z M 1351.078125 499.105469 " fill-opacity="1" fill-rule="nonzero"/><path fill="#000000" d="M 1508.101562 521.582031 C 1508.101562 525.292969 1509.476562 527.144531 1512.230469 527.144531 L 1527.675781 527.144531 C 1529.472656 527.144531 1531.0625 526.910156 1532.449219 526.441406 C 1533.832031 525.953125 1534.851562 525.441406 1535.507812 524.898438 C 1536.164062 524.355469 1537.210938 523.425781 1538.65625 522.113281 C 1539.011719 521.757812 1539.574219 521.132812 1540.339844 520.234375 C 1541.125 519.332031 1541.816406 518.679688 1542.417969 518.265625 C 1543.015625 517.835938 1543.613281 517.621094 1544.214844 517.621094 C 1545.542969 517.621094 1546.207031 518.820312 1546.207031 521.214844 C 1546.207031 521.574219 1546.085938 523.164062 1545.84375 525.992188 C 1545.601562 528.804688 1545.480469 530.683594 1545.480469 531.640625 C 1545.480469 532.597656 1545.507812 534.394531 1545.5625 537.035156 C 1545.617188 539.675781 1545.644531 541.296875 1545.644531 541.894531 C 1545.644531 545.003906 1544.871094 546.5625 1543.316406 546.5625 C 1542.847656 546.5625 1542.371094 546.382812 1541.882812 546.027344 C 1541.394531 545.671875 1540.945312 545.191406 1540.535156 544.59375 C 1540.125 543.992188 1539.769531 543.460938 1539.46875 542.992188 C 1539.167969 542.503906 1538.804688 541.867188 1538.371094 541.082031 C 1537.960938 540.292969 1537.691406 539.84375 1537.558594 539.734375 C 1536.003906 537.222656 1533.910156 535.964844 1531.269531 535.964844 L 1512.398438 535.964844 C 1510.734375 535.964844 1509.601562 536.269531 1509 536.867188 C 1508.402344 537.464844 1508.101562 538.597656 1508.101562 540.265625 L 1508.101562 570.46875 C 1508.101562 572.867188 1508.609375 574.636719 1509.621094 575.78125 C 1510.648438 576.921875 1512.417969 577.492188 1514.925781 577.492188 L 1540.085938 577.492188 C 1543.4375 577.492188 1546.1875 577.222656 1548.339844 576.679688 C 1550.511719 576.136719 1552.429688 574.9375 1554.097656 573.085938 C 1555.78125 571.230469 1557.007812 569.617188 1557.777344 568.25 C 1558.5625 566.863281 1559.796875 564.371094 1561.484375 560.777344 C 1562.550781 558.492188 1564.160156 557.347656 1566.3125 557.347656 C 1568 557.347656 1568.839844 558.847656 1568.839844 561.84375 C 1568.839844 564.128906 1567.941406 567.761719 1566.144531 572.746094 C 1564.347656 577.710938 1562.972656 580.96875 1562.015625 582.527344 C 1561.417969 583.613281 1560.996094 584.332031 1560.753906 584.6875 C 1560.507812 585.042969 1560.089844 585.34375 1559.488281 585.585938 C 1558.890625 585.832031 1558.113281 585.953125 1557.160156 585.953125 C 1555.960938 585.953125 1547.808594 585.800781 1532.703125 585.503906 C 1517.613281 585.203125 1506.351562 585.050781 1498.921875 585.050781 C 1496.414062 585.050781 1493.566406 585.117188 1490.386719 585.25 C 1487.222656 585.363281 1484.527344 585.503906 1482.296875 585.671875 C 1480.085938 585.859375 1478.863281 585.953125 1478.617188 585.953125 C 1474.667969 585.597656 1472.695312 584.574219 1472.695312 582.890625 C 1472.695312 582.046875 1473.171875 581.363281 1474.125 580.839844 C 1475.082031 580.296875 1476.550781 579.695312 1478.535156 579.039062 C 1480.519531 578.367188 1481.867188 577.851562 1482.578125 577.492188 C 1485.574219 576.183594 1487.726562 574.535156 1489.035156 572.550781 C 1490.363281 570.5625 1491.03125 567.894531 1491.03125 564.542969 L 1491.03125 498.90625 C 1491.03125 497.839844 1490.992188 496.855469 1490.917969 495.957031 C 1490.863281 495.058594 1490.65625 494.214844 1490.300781 493.425781 C 1489.945312 492.640625 1489.671875 492.011719 1489.484375 491.546875 C 1489.316406 491.058594 1488.867188 490.582031 1488.136719 490.113281 C 1487.425781 489.625 1486.949219 489.261719 1486.703125 489.015625 C 1486.460938 488.773438 1485.769531 488.445312 1484.628906 488.035156 C 1483.503906 487.621094 1482.726562 487.359375 1482.296875 487.246094 C 1481.886719 487.113281 1480.929688 486.84375 1479.433594 486.433594 C 1477.9375 486 1476.886719 485.730469 1476.289062 485.617188 C 1474.378906 485.019531 1473.421875 484 1473.421875 482.554688 C 1473.421875 480.402344 1475.519531 479.324219 1479.714844 479.324219 L 1531.269531 479.324219 C 1534.152344 479.324219 1538.261719 479.171875 1543.597656 478.875 C 1548.929688 478.574219 1551.953125 478.425781 1552.667969 478.425781 C 1555.417969 478.425781 1556.96875 479.257812 1557.328125 480.925781 C 1558.414062 485.253906 1558.957031 490.167969 1558.957031 495.675781 C 1558.957031 498.785156 1558.003906 500.339844 1556.089844 500.339844 C 1553.808594 500.339844 1551.644531 498.0625 1549.605469 493.511719 C 1547.695312 489.558594 1542.847656 487.585938 1535.058594 487.585938 L 1513.664062 487.585938 C 1511.398438 487.585938 1509.898438 487.882812 1509.171875 488.484375 C 1508.457031 489.082031 1508.101562 490.039062 1508.101562 491.347656 Z M 1508.101562 521.582031 " fill-opacity="1" fill-rule="nonzero"/><path fill="#000000" d="M 1720.703125 541.363281 C 1731.957031 558.148438 1743.148438 570.546875 1754.289062 578.5625 C 1756.21875 580.003906 1759.632812 580.96875 1764.535156 581.457031 C 1766.578125 581.699219 1767.597656 582.722656 1767.597656 584.519531 C 1767.597656 586.074219 1766.335938 587.355469 1763.808594 588.367188 C 1761.296875 589.398438 1758.367188 589.914062 1755.019531 589.914062 C 1745.078125 589.914062 1737.46875 587.09375 1732.1875 581.457031 C 1721.292969 570.066406 1711.832031 557.601562 1703.800781 544.0625 C 1701.40625 540.085938 1696.433594 538.101562 1688.890625 538.101562 C 1686.960938 538.101562 1685.640625 538.464844 1684.929688 539.199219 C 1684.21875 539.910156 1683.863281 541.164062 1683.863281 542.964844 L 1683.863281 564.542969 C 1683.863281 567.894531 1684.519531 570.5625 1685.832031 572.550781 C 1687.140625 574.535156 1689.292969 576.183594 1692.289062 577.492188 C 1693.019531 577.851562 1694.363281 578.367188 1696.328125 579.039062 C 1698.316406 579.695312 1699.785156 580.296875 1700.738281 580.839844 C 1701.695312 581.363281 1702.171875 582.046875 1702.171875 582.890625 C 1702.171875 584.574219 1700.261719 585.597656 1696.441406 585.953125 C 1696.199219 585.953125 1694.839844 585.859375 1692.371094 585.671875 C 1689.921875 585.503906 1686.992188 585.324219 1683.582031 585.136719 C 1680.175781 584.949219 1677.207031 584.855469 1674.679688 584.855469 C 1672.417969 584.855469 1669.746094 584.949219 1666.679688 585.136719 C 1663.628906 585.324219 1660.957031 585.503906 1658.675781 585.671875 C 1656.410156 585.859375 1655.15625 585.953125 1654.914062 585.953125 C 1650.960938 585.597656 1648.988281 584.574219 1648.988281 582.890625 C 1648.988281 582.046875 1649.464844 581.363281 1650.417969 580.839844 C 1651.375 580.296875 1652.84375 579.695312 1654.828125 579.039062 C 1656.8125 578.367188 1658.160156 577.851562 1658.871094 577.492188 C 1661.867188 576.183594 1664.019531 574.535156 1665.328125 572.550781 C 1666.660156 570.5625 1667.324219 567.894531 1667.324219 564.542969 L 1667.324219 499.636719 C 1667.324219 498.550781 1667.285156 497.558594 1667.210938 496.660156 C 1667.15625 495.761719 1666.949219 494.925781 1666.59375 494.160156 C 1666.238281 493.371094 1665.96875 492.746094 1665.78125 492.277344 C 1665.609375 491.789062 1665.160156 491.3125 1664.433594 490.84375 C 1663.71875 490.355469 1663.242188 489.992188 1663 489.746094 C 1662.753906 489.503906 1662.0625 489.175781 1660.921875 488.765625 C 1659.796875 488.332031 1659.019531 488.0625 1658.589844 487.949219 C 1658.179688 487.816406 1657.222656 487.546875 1655.726562 487.132812 C 1654.230469 486.722656 1653.183594 486.449219 1652.582031 486.320312 C 1650.671875 485.71875 1649.71875 484.699219 1649.71875 483.257812 C 1649.71875 481.347656 1651.816406 480.269531 1656.007812 480.023438 C 1671.097656 478.828125 1684.152344 478.230469 1695.179688 478.230469 C 1705.363281 478.230469 1714.28125 480.417969 1721.9375 484.804688 C 1729.613281 489.167969 1733.453125 495.542969 1733.453125 503.9375 C 1733.453125 513.902344 1728.71875 522.292969 1719.246094 529.113281 C 1718.773438 529.488281 1718.296875 529.824219 1717.8125 530.125 C 1717.34375 530.421875 1717.015625 530.667969 1716.832031 530.855469 C 1716.640625 531.023438 1716.492188 531.226562 1716.382812 531.472656 C 1716.269531 531.695312 1716.210938 531.996094 1716.210938 532.371094 C 1716.210938 533.925781 1717.710938 536.921875 1720.703125 541.363281 Z M 1691.21875 531.640625 C 1693.859375 531.640625 1696.527344 531.285156 1699.222656 530.574219 C 1701.917969 529.84375 1703.6875 529 1704.53125 528.042969 C 1711.832031 521.804688 1715.480469 514.671875 1715.480469 506.632812 C 1715.480469 500.769531 1713.234375 495.890625 1708.742188 491.996094 C 1704.25 488.097656 1698.953125 486.148438 1692.847656 486.148438 C 1690.324219 486.148438 1688.1875 486.75 1686.445312 487.949219 C 1684.722656 489.148438 1683.863281 490.582031 1683.863281 492.246094 L 1683.863281 526.976562 C 1683.863281 530.085938 1686.316406 531.640625 1691.21875 531.640625 Z M 1691.21875 531.640625 " fill-opacity="1" fill-rule="nonzero"/><path fill="#000000" d="M 1883.15625 521.582031 C 1883.15625 525.292969 1884.53125 527.144531 1887.28125 527.144531 L 1902.726562 527.144531 C 1904.523438 527.144531 1906.113281 526.910156 1907.5 526.441406 C 1908.886719 525.953125 1909.90625 525.441406 1910.558594 524.898438 C 1911.214844 524.355469 1912.265625 523.425781 1913.707031 522.113281 C 1914.0625 521.757812 1914.621094 521.132812 1915.390625 520.234375 C 1916.175781 519.332031 1916.867188 518.679688 1917.46875 518.265625 C 1918.066406 517.835938 1918.664062 517.621094 1919.265625 517.621094 C 1920.59375 517.621094 1921.261719 518.820312 1921.261719 521.214844 C 1921.261719 521.574219 1921.136719 523.164062 1920.894531 525.992188 C 1920.652344 528.804688 1920.527344 530.683594 1920.527344 531.640625 C 1920.527344 532.597656 1920.558594 534.394531 1920.613281 537.035156 C 1920.667969 539.675781 1920.699219 541.296875 1920.699219 541.894531 C 1920.699219 545.003906 1919.921875 546.5625 1918.367188 546.5625 C 1917.898438 546.5625 1917.421875 546.382812 1916.9375 546.027344 C 1916.449219 545.671875 1916 545.191406 1915.585938 544.59375 C 1915.175781 543.992188 1914.820312 543.460938 1914.519531 542.992188 C 1914.21875 542.503906 1913.855469 541.867188 1913.425781 541.082031 C 1913.011719 540.292969 1912.742188 539.84375 1912.609375 539.734375 C 1911.058594 537.222656 1908.960938 535.964844 1906.320312 535.964844 L 1887.453125 535.964844 C 1885.785156 535.964844 1884.652344 536.269531 1884.054688 536.867188 C 1883.453125 537.464844 1883.15625 538.597656 1883.15625 540.265625 L 1883.15625 570.46875 C 1883.15625 572.867188 1883.660156 574.636719 1884.671875 575.78125 C 1885.699219 576.921875 1887.46875 577.492188 1889.980469 577.492188 L 1915.136719 577.492188 C 1918.488281 577.492188 1921.238281 577.222656 1923.394531 576.679688 C 1925.566406 576.136719 1927.484375 574.9375 1929.148438 573.085938 C 1930.835938 571.230469 1932.0625 569.617188 1932.828125 568.25 C 1933.613281 566.863281 1934.851562 564.371094 1936.535156 560.777344 C 1937.601562 558.492188 1939.210938 557.347656 1941.363281 557.347656 C 1943.050781 557.347656 1943.890625 558.847656 1943.890625 561.84375 C 1943.890625 564.128906 1942.996094 567.761719 1941.195312 572.746094 C 1939.398438 577.710938 1938.023438 580.96875 1937.066406 582.527344 C 1936.46875 583.613281 1936.046875 584.332031 1935.804688 584.6875 C 1935.5625 585.042969 1935.140625 585.34375 1934.542969 585.585938 C 1933.941406 585.832031 1933.164062 585.953125 1932.210938 585.953125 C 1931.011719 585.953125 1922.859375 585.800781 1907.753906 585.503906 C 1892.664062 585.203125 1881.402344 585.050781 1873.972656 585.050781 C 1871.464844 585.050781 1868.621094 585.117188 1865.4375 585.25 C 1862.273438 585.363281 1859.578125 585.503906 1857.347656 585.671875 C 1855.140625 585.859375 1853.914062 585.953125 1853.667969 585.953125 C 1849.722656 585.597656 1847.746094 584.574219 1847.746094 582.890625 C 1847.746094 582.046875 1848.222656 581.363281 1849.175781 580.839844 C 1850.132812 580.296875 1851.601562 579.695312 1853.585938 579.039062 C 1855.570312 578.367188 1856.917969 577.851562 1857.632812 577.492188 C 1860.625 576.183594 1862.777344 574.535156 1864.089844 572.550781 C 1865.417969 570.5625 1866.082031 567.894531 1866.082031 564.542969 L 1866.082031 498.90625 C 1866.082031 497.839844 1866.042969 496.855469 1865.96875 495.957031 C 1865.914062 495.058594 1865.707031 494.214844 1865.351562 493.425781 C 1864.996094 492.640625 1864.726562 492.011719 1864.539062 491.546875 C 1864.371094 491.058594 1863.921875 490.582031 1863.1875 490.113281 C 1862.480469 489.625 1862.003906 489.261719 1861.757812 489.015625 C 1861.515625 488.773438 1860.820312 488.445312 1859.679688 488.035156 C 1858.558594 487.621094 1857.78125 487.359375 1857.347656 487.246094 C 1856.9375 487.113281 1855.984375 486.84375 1854.484375 486.433594 C 1852.988281 486 1851.9375 485.730469 1851.339844 485.617188 C 1849.429688 485.019531 1848.476562 484 1848.476562 482.554688 C 1848.476562 480.402344 1850.570312 479.324219 1854.765625 479.324219 L 1906.320312 479.324219 C 1909.203125 479.324219 1913.3125 479.171875 1918.648438 478.875 C 1923.984375 478.574219 1927.007812 478.425781 1927.71875 478.425781 C 1930.46875 478.425781 1932.023438 479.257812 1932.378906 480.925781 C 1933.464844 485.253906 1934.007812 490.167969 1934.007812 495.675781 C 1934.007812 498.785156 1933.050781 500.339844 1931.144531 500.339844 C 1928.859375 500.339844 1926.699219 498.0625 1924.65625 493.511719 C 1922.75 489.558594 1917.898438 487.585938 1910.113281 487.585938 L 1888.714844 487.585938 C 1886.449219 487.585938 1884.953125 487.882812 1884.21875 488.484375 C 1883.511719 489.082031 1883.15625 490.039062 1883.15625 491.347656 Z M 1883.15625 521.582031 " fill-opacity="1" fill-rule="nonzero"/><path fill="#000000" d="M 2049.660156 477.523438 C 2056.007812 477.523438 2062.050781 479.082031 2067.796875 482.191406 C 2071.152344 483.988281 2072.949219 485.730469 2073.191406 487.414062 C 2073.679688 489.925781 2073.921875 493.332031 2073.921875 497.644531 C 2073.921875 500.882812 2072.722656 502.503906 2070.324219 502.503906 C 2067.796875 502.503906 2065.402344 499.75 2063.136719 494.242188 C 2062.296875 492.199219 2060.433594 490.609375 2057.550781 489.464844 C 2054.6875 488.324219 2051.8125 487.753906 2048.929688 487.753906 C 2044.980469 487.753906 2041.535156 489.136719 2038.59375 491.914062 C 2035.65625 494.664062 2034.1875 498.015625 2034.1875 501.96875 C 2034.1875 506.878906 2037.25 511.914062 2043.371094 517.085938 L 2068.699219 538.46875 C 2074.445312 543.261719 2077.316406 549.378906 2077.316406 556.816406 C 2077.316406 565.320312 2073.632812 572.566406 2066.253906 578.5625 C 2058.898438 584.554688 2050.550781 587.554688 2041.207031 587.554688 C 2034.375 587.554688 2028.082031 586.242188 2022.339844 583.621094 C 2018.855469 582.046875 2016.609375 580.875 2015.597656 580.109375 C 2014.585938 579.320312 2014.082031 578.328125 2014.082031 577.128906 C 2014.082031 573.535156 2014.4375 569.402344 2015.148438 564.738281 C 2015.636719 561.855469 2016.777344 560.410156 2018.574219 560.410156 C 2020.96875 560.410156 2023.003906 563.230469 2024.667969 568.867188 C 2025.753906 572.222656 2028 575.015625 2031.40625 577.242188 C 2034.832031 579.453125 2039.054688 580.554688 2044.070312 580.554688 C 2048.507812 580.554688 2052.222656 578.824219 2055.21875 575.359375 C 2058.214844 571.875 2059.710938 567.847656 2059.710938 563.277344 C 2059.710938 557.769531 2057.316406 552.976562 2052.523438 548.890625 L 2028.261719 528.410156 C 2021.207031 522.527344 2017.675781 515.632812 2017.675781 507.730469 C 2017.675781 499.339844 2020.785156 492.210938 2027 486.347656 C 2033.234375 480.464844 2040.785156 477.523438 2049.660156 477.523438 Z M 2049.660156 477.523438 " fill-opacity="1" fill-rule="nonzero"/></g></g></g></svg>