<svg xmlns="http://www.w3.org/2000/svg" xmlns:xlink="http://www.w3.org/1999/xlink" width="2797" zoomAndPan="magnify" viewBox="0 0 2097.1199 2097.749898" height="2797" preserveAspectRatio="xMidYMid meet" version="1.0"><path fill="#000000" d="M 339.199219 1365.707031 C 287.894531 1342.535156 239.558594 1316.167969 196.207031 1281.210938 C 137.390625 1233.78125 88.382812 1179.15625 64 1105.773438 C 51.785156 1069.015625 47.078125 1031.476562 53.839844 993.328125 C 66.308594 922.984375 107.394531 874.191406 170.539062 842.804688 C 197.671875 829.3125 226.375 821.667969 256.582031 819.625 C 258.101562 819.523438 259.722656 819.628906 261.164062 820.066406 C 262.136719 820.359375 262.882812 821.414062 263.707031 822.105469 C 263.683594 828.230469 258.996094 828.464844 255.007812 829.789062 C 191.707031 850.78125 153.652344 895.609375 135.722656 958.351562 C 111.351562 1043.621094 131.503906 1121.574219 179.003906 1193.359375 C 225.59375 1263.765625 291.269531 1311.863281 366.804688 1347.800781 C 428.203125 1377.007812 492.636719 1396.371094 560.066406 1401.90625 C 615.394531 1406.445312 671.1875 1406.390625 726.539062 1397.164062 C 777.988281 1388.589844 828.4375 1376.605469 877.453125 1358.675781 C 893.199219 1352.914062 893.96875 1351.109375 888.972656 1334.746094 C 873.238281 1283.195312 859.140625 1231.101562 841.90625 1180.066406 C 821.585938 1119.898438 809.460938 1056.816406 779.664062 999.992188 C 756.5 955.804688 722.832031 920.5 683.988281 889.761719 C 622.0625 840.761719 551.875 804.859375 484.820312 764.003906 C 432.878906 732.359375 381.832031 699.738281 339.792969 654.933594 C 296.125 608.402344 270.457031 554.0625 273.117188 489.664062 C 275.59375 429.722656 298.816406 377.230469 339.835938 333.066406 C 375.492188 294.683594 417.855469 266.621094 467.992188 250.753906 C 521.570312 233.792969 576.054688 230.726562 631.578125 238.863281 C 696.875 248.425781 756.703125 271.871094 812.394531 306.816406 C 820.746094 312.054688 824.867188 318.0625 825.460938 328.273438 C 828.039062 372.640625 825.917969 417.023438 826.882812 461.386719 C 826.980469 465.828125 827.75 470.96875 821.886719 473.125 C 816.601562 471.191406 817.515625 466.328125 816.414062 462.417969 C 793.757812 382.101562 752.082031 316.082031 675.582031 276.71875 C 642.957031 259.933594 608.304688 252.027344 571.289062 251.261719 C 526.621094 250.335938 484.542969 257.730469 445.863281 280.585938 C 397.167969 309.355469 361.910156 348.828125 351.351562 406.035156 C 341.285156 460.605469 351.316406 510.785156 386.003906 555.625 C 417.179688 595.925781 458.566406 623.652344 500.449219 650.445312 C 548.925781 681.457031 599.074219 709.835938 648.15625 739.921875 C 699.285156 771.253906 748.980469 804.566406 792.472656 846.382812 C 841.269531 893.296875 874.59375 949.4375 894.972656 1013.71875 C 921.371094 1096.988281 946.242188 1180.710938 970.265625 1264.691406 C 973.355469 1275.503906 976.839844 1286.203125 980.144531 1296.957031 C 984.1875 1310.117188 984.984375 1310.730469 996.753906 1304.589844 C 1019.863281 1292.527344 1042.585938 1279.757812 1064.742188 1265.992188 C 1120.960938 1231.0625 1174.871094 1192.75 1229.027344 1154.789062 C 1236.695312 1149.414062 1238.675781 1144.207031 1235.46875 1135.214844 C 1218.90625 1088.769531 1202.972656 1042.101562 1186.640625 995.570312 C 1175.203125 962.984375 1162.480469 930.808594 1152.164062 897.878906 C 1141.414062 863.570312 1120.25 842.671875 1084.332031 837.40625 C 1082.066406 837.074219 1079.863281 836.15625 1077.714844 835.308594 C 1077.15625 835.085938 1076.910156 834.085938 1076.164062 832.859375 C 1078.628906 827.765625 1083.625 828.589844 1087.980469 828.585938 C 1163.117188 828.503906 1238.253906 828.488281 1313.390625 828.523438 C 1317.828125 828.523438 1322.742188 827.917969 1325.476562 833.070312 C 1322.070312 838.894531 1316.578125 837.953125 1311.824219 838.386719 C 1300.347656 839.425781 1289.714844 843.257812 1279.925781 848.878906 C 1261.40625 859.511719 1254.570312 878.726562 1261.097656 902.800781 C 1271.667969 941.78125 1285.992188 979.5625 1298.777344 1017.839844 C 1304.5625 1035.160156 1310.179688 1052.539062 1316.113281 1069.808594 C 1320.378906 1082.230469 1322.621094 1082.953125 1333.050781 1074.867188 C 1373.324219 1043.648438 1413.09375 1011.761719 1453.765625 981.066406 C 1558.246094 902.214844 1665.027344 826.765625 1786.167969 774.992188 C 1829.671875 756.398438 1874.695312 741.679688 1922.644531 737.664062 C 1980.359375 732.828125 2034.621094 760.175781 2055.4375 805.417969 C 2084.214844 867.953125 2057.957031 938.769531 2008.113281 975.992188 C 1994.96875 985.808594 1980.792969 993.972656 1965.265625 999.496094 C 1959.242188 1001.640625 1952.035156 1005.8125 1948.941406 995.925781 C 1946.308594 987.519531 1953.207031 984.984375 1959.066406 983.066406 C 1975.234375 977.769531 1989.265625 968.820312 2002.660156 958.691406 C 2044.046875 927.414062 2061.390625 859.632812 2039.011719 813.082031 C 2020.789062 775.175781 1989.285156 756.480469 1947.714844 754.871094 C 1922.769531 753.90625 1923.082031 754.542969 1914.554688 777.550781 C 1883.199219 862.148438 1849.304688 945.746094 1814.773438 1029.085938 C 1757.300781 1167.796875 1698 1305.722656 1637.808594 1443.269531 C 1591.035156 1550.152344 1544.84375 1657.289062 1495.636719 1763.085938 C 1490.882812 1773.304688 1486.476562 1783.679688 1481.957031 1794 C 1480.683594 1796.914062 1479.429688 1799.96875 1475.773438 1800.246094 C 1471.253906 1800.589844 1470.082031 1796.6875 1468.65625 1793.636719 C 1458.902344 1772.820312 1453.183594 1750.535156 1445.308594 1729.027344 C 1426.507812 1677.652344 1407.628906 1626.308594 1389.332031 1574.753906 C 1367.78125 1514.027344 1346.972656 1453.039062 1325.550781 1392.269531 C 1305.941406 1336.640625 1285.945312 1281.152344 1266.070312 1225.617188 C 1265.839844 1224.96875 1265 1224.535156 1263.632812 1223.222656 C 1256.636719 1231.234375 1254.386719 1241.53125 1250.886719 1250.863281 C 1211.578125 1355.722656 1173.972656 1461.238281 1133.132812 1565.492188 C 1104.214844 1639.3125 1075.453125 1713.183594 1047.296875 1787.292969 C 1046.605469 1789.109375 1045.761719 1790.867188 1045 1792.65625 C 1043.480469 1796.230469 1042.3125 1800.597656 1037.550781 1800.558594 C 1032.449219 1800.511719 1032.09375 1795.710938 1030.996094 1792.132812 C 1022.023438 1762.832031 1013.398438 1733.425781 1004.167969 1704.207031 C 986.761719 1649.101562 968.792969 1594.171875 951.484375 1539.035156 C 935.246094 1487.292969 919.703125 1435.332031 903.539062 1383.566406 C 898.703125 1368.074219 898.207031 1368.183594 882.308594 1373.914062 C 834.710938 1391.070312 786.152344 1403.84375 736.132812 1412.574219 C 671.101562 1423.921875 605.9375 1423.359375 540.875 1418.707031 C 471.015625 1413.710938 404.523438 1392.976562 339.199219 1365.707031 M 1827.203125 952.347656 C 1852.5 888.714844 1879.839844 825.851562 1902.21875 759.136719 C 1895.160156 759.632812 1890.441406 759.355469 1886.015625 760.367188 C 1843.011719 770.203125 1802.234375 786.339844 1762.378906 804.894531 C 1682.6875 841.988281 1609.851562 890.46875 1538.007812 940.554688 C 1468.40625 989.074219 1403.125 1043.316406 1335.039062 1093.84375 C 1328.457031 1098.726562 1328.695312 1104.617188 1331.019531 1111.476562 C 1336.875 1128.746094 1342.308594 1146.160156 1348.230469 1163.40625 C 1367.394531 1219.214844 1386.386719 1275.082031 1406.023438 1330.726562 C 1443.632812 1437.277344 1478.851562 1544.632812 1514.507812 1651.84375 C 1515.90625 1656.050781 1516.898438 1660.828125 1521.78125 1662.910156 C 1533.445312 1645.351562 1772.789062 1088.308594 1827.203125 952.347656 M 1063.757812 1583.695312 C 1071.496094 1603.226562 1073.492188 1624.71875 1083.617188 1645.925781 C 1086.355469 1640.144531 1088.230469 1636.78125 1089.59375 1633.21875 C 1105.816406 1590.714844 1122.03125 1548.207031 1138.121094 1505.652344 C 1175.792969 1406.019531 1213.078125 1306.238281 1251.355469 1206.835938 C 1257.664062 1190.445312 1250.597656 1179.019531 1244.640625 1165.535156 C 1241.882812 1166.800781 1240.382812 1167.261719 1239.136719 1168.097656 C 1234.289062 1171.347656 1229.457031 1174.628906 1224.730469 1178.050781 C 1152.839844 1230.09375 1080.164062 1280.917969 1000.804688 1321.25 C 991.960938 1325.746094 989.644531 1330.726562 992.671875 1340.695312 C 1005.066406 1381.519531 1016.40625 1422.664062 1028.324219 1463.636719 C 1039.808594 1503.109375 1051.527344 1542.511719 1063.757812 1583.695312 Z M 1063.757812 1583.695312 " fill-opacity="1" fill-rule="nonzero"/><path fill="#000000" d="M 1319.3125 442.90625 C 1305.609375 446.503906 1292.253906 448.898438 1279.207031 452.445312 C 1245.761719 461.53125 1225.464844 483.558594 1217.390625 517.078125 C 1215.667969 524.246094 1214.347656 531.519531 1212.363281 538.613281 C 1211.089844 543.167969 1211.308594 548.804688 1203.449219 552.144531 C 1195.964844 524.066406 1193.308594 494.003906 1171.269531 472.710938 C 1149.535156 451.714844 1120.09375 449.523438 1092.160156 443.796875 C 1094.46875 436.402344 1099.277344 436.925781 1103.253906 436.144531 C 1112.378906 434.355469 1121.546875 432.777344 1130.675781 431.007812 C 1169.308594 423.503906 1188.019531 397.003906 1197.257812 361.335938 C 1199.332031 353.332031 1200.164062 344.828125 1205.121094 336.777344 C 1211.988281 342.605469 1212.289062 350.109375 1213.859375 357.039062 C 1219.964844 384.011719 1230.769531 407.875 1256.261719 422.308594 C 1272.222656 431.34375 1289.8125 433.886719 1307.582031 436.0625 C 1312.238281 436.632812 1318.199219 435.304688 1319.3125 442.90625 Z M 1319.3125 442.90625 " fill-opacity="1" fill-rule="nonzero"/></svg>