<svg xmlns="http://www.w3.org/2000/svg" xmlns:xlink="http://www.w3.org/1999/xlink" width="2797" zoomAndPan="magnify" viewBox="0 0 2097.1199 2097.749898" height="2797" preserveAspectRatio="xMidYMid meet" version="1.0"><path fill="#000000" d="M 339.199219 1180.222656 C 287.894531 1157.050781 239.558594 1130.683594 196.207031 1095.726562 C 137.390625 1048.296875 88.382812 993.675781 64 920.292969 C 51.785156 883.535156 47.078125 845.992188 53.839844 807.84375 C 66.308594 737.5 107.394531 688.710938 170.539062 657.320312 C 197.671875 643.832031 226.375 636.183594 256.582031 634.140625 C 258.101562 634.039062 259.722656 634.144531 261.164062 634.582031 C 262.136719 634.878906 262.882812 635.929688 263.707031 636.625 C 263.683594 642.746094 258.996094 642.980469 255.007812 644.304688 C 191.707031 665.296875 153.652344 710.128906 135.722656 772.867188 C 111.351562 858.136719 131.503906 936.089844 179.003906 1007.875 C 225.59375 1078.28125 291.269531 1126.378906 366.804688 1162.316406 C 428.203125 1191.527344 492.636719 1210.886719 560.066406 1216.421875 C 615.394531 1220.964844 671.1875 1220.910156 726.539062 1211.683594 C 777.988281 1203.105469 828.4375 1191.125 877.453125 1173.191406 C 893.199219 1167.433594 893.96875 1165.628906 888.972656 1149.261719 C 873.238281 1097.710938 859.140625 1045.621094 841.90625 994.582031 C 821.585938 934.417969 809.460938 871.332031 779.664062 814.507812 C 756.5 770.324219 722.832031 735.019531 683.988281 704.277344 C 622.0625 655.277344 551.875 619.375 484.820312 578.523438 C 432.878906 546.875 381.832031 514.253906 339.792969 469.453125 C 296.125 422.917969 270.457031 368.582031 273.117188 304.183594 C 275.59375 244.238281 298.816406 191.746094 339.835938 147.585938 C 375.492188 109.199219 417.855469 81.140625 467.992188 65.269531 C 521.570312 48.3125 576.054688 45.246094 631.578125 53.378906 C 696.875 62.945312 756.703125 86.390625 812.394531 121.332031 C 820.746094 126.574219 824.867188 132.582031 825.460938 142.792969 C 828.039062 187.15625 825.917969 231.542969 826.882812 275.902344 C 826.980469 280.34375 827.75 285.484375 821.886719 287.640625 C 816.601562 285.710938 817.515625 280.84375 816.414062 276.9375 C 793.757812 196.621094 752.082031 130.597656 675.582031 91.234375 C 642.957031 74.449219 608.304688 66.542969 571.289062 65.777344 C 526.621094 64.855469 484.542969 72.246094 445.863281 95.101562 C 397.167969 123.875 361.910156 163.34375 351.351562 220.550781 C 341.285156 275.121094 351.316406 325.300781 386.003906 370.144531 C 417.179688 410.441406 458.566406 438.167969 500.449219 464.960938 C 548.925781 495.972656 599.074219 524.355469 648.15625 554.4375 C 699.285156 585.773438 748.980469 619.082031 792.472656 660.898438 C 841.269531 707.8125 874.59375 763.953125 894.972656 828.234375 C 921.371094 911.503906 946.242188 995.226562 970.265625 1079.207031 C 973.355469 1090.019531 976.839844 1100.722656 980.144531 1111.472656 C 984.1875 1124.632812 984.984375 1125.246094 996.753906 1119.105469 C 1019.863281 1107.042969 1042.585938 1094.273438 1064.742188 1080.507812 C 1120.960938 1045.582031 1174.871094 1007.269531 1229.027344 969.304688 C 1236.695312 963.929688 1238.675781 958.722656 1235.46875 949.730469 C 1218.90625 903.285156 1202.972656 856.617188 1186.640625 810.085938 C 1175.203125 777.5 1162.480469 745.324219 1152.164062 712.394531 C 1141.414062 678.085938 1120.25 657.1875 1084.332031 651.921875 C 1082.066406 651.59375 1079.863281 650.675781 1077.714844 649.824219 C 1077.15625 649.601562 1076.910156 648.605469 1076.164062 647.375 C 1078.628906 642.28125 1083.625 643.109375 1087.980469 643.105469 C 1163.117188 643.019531 1238.253906 643.007812 1313.390625 643.039062 C 1317.828125 643.039062 1322.742188 642.433594 1325.476562 647.585938 C 1322.070312 653.414062 1316.578125 652.46875 1311.824219 652.902344 C 1300.347656 653.945312 1289.714844 657.773438 1279.925781 663.394531 C 1261.40625 674.027344 1254.570312 693.242188 1261.097656 717.316406 C 1271.667969 756.296875 1285.992188 794.082031 1298.777344 832.355469 C 1304.5625 849.675781 1310.179688 867.054688 1316.113281 884.328125 C 1320.378906 896.746094 1322.621094 897.46875 1333.050781 889.386719 C 1373.324219 858.164062 1413.09375 826.277344 1453.765625 795.582031 C 1558.246094 716.730469 1665.027344 641.28125 1786.167969 589.511719 C 1829.671875 570.917969 1874.695312 556.199219 1922.644531 552.179688 C 1980.359375 547.34375 2034.621094 574.691406 2055.4375 619.933594 C 2084.214844 682.46875 2057.957031 753.289062 2008.113281 790.507812 C 1994.96875 800.324219 1980.792969 808.492188 1965.265625 814.015625 C 1959.242188 816.160156 1952.035156 820.328125 1948.941406 810.441406 C 1946.308594 802.035156 1953.207031 799.5 1959.066406 797.582031 C 1975.234375 792.289062 1989.265625 783.335938 2002.660156 773.210938 C 2044.046875 741.929688 2061.390625 674.148438 2039.011719 627.597656 C 2020.789062 589.691406 1989.285156 570.996094 1947.714844 569.386719 C 1922.769531 568.421875 1923.082031 569.0625 1914.554688 592.070312 C 1883.199219 676.667969 1849.304688 760.261719 1814.773438 843.605469 C 1757.300781 982.3125 1698 1120.238281 1637.808594 1257.789062 C 1591.035156 1364.671875 1544.84375 1471.804688 1495.636719 1577.605469 C 1490.882812 1587.820312 1486.476562 1598.195312 1481.957031 1608.515625 C 1480.683594 1611.429688 1479.429688 1614.488281 1475.773438 1614.765625 C 1471.253906 1615.109375 1470.082031 1611.203125 1468.65625 1608.15625 C 1458.902344 1587.339844 1453.183594 1565.050781 1445.308594 1543.542969 C 1426.507812 1492.171875 1407.628906 1440.824219 1389.332031 1389.269531 C 1367.78125 1328.546875 1346.972656 1267.558594 1325.550781 1206.785156 C 1305.941406 1151.160156 1285.945312 1095.667969 1266.070312 1040.132812 C 1265.839844 1039.484375 1265 1039.054688 1263.632812 1037.738281 C 1256.636719 1045.75 1254.386719 1056.050781 1250.886719 1065.382812 C 1211.578125 1170.238281 1173.972656 1275.757812 1133.132812 1380.011719 C 1104.214844 1453.828125 1075.453125 1527.699219 1047.296875 1601.808594 C 1046.605469 1603.625 1045.761719 1605.382812 1045 1607.175781 C 1043.480469 1610.746094 1042.3125 1615.117188 1037.550781 1615.074219 C 1032.449219 1615.03125 1032.09375 1610.226562 1030.996094 1606.648438 C 1022.023438 1577.347656 1013.398438 1547.941406 1004.167969 1518.722656 C 986.761719 1463.617188 968.792969 1408.6875 951.484375 1353.550781 C 935.246094 1301.808594 919.703125 1249.851562 903.539062 1198.085938 C 898.703125 1182.589844 898.207031 1182.699219 882.308594 1188.429688 C 834.710938 1205.589844 786.152344 1218.363281 736.132812 1227.089844 C 671.101562 1238.441406 605.9375 1237.878906 540.875 1233.226562 C 471.015625 1228.230469 404.523438 1207.496094 339.199219 1180.222656 M 1827.203125 766.867188 C 1852.5 703.230469 1879.839844 640.371094 1902.21875 573.65625 C 1895.160156 574.148438 1890.441406 573.871094 1886.015625 574.882812 C 1843.011719 584.71875 1802.234375 600.859375 1762.378906 619.410156 C 1682.6875 656.503906 1609.851562 704.988281 1538.007812 755.070312 C 1468.40625 803.589844 1403.125 857.832031 1335.039062 908.363281 C 1328.457031 913.246094 1328.695312 919.132812 1331.019531 925.992188 C 1336.875 943.261719 1342.308594 960.675781 1348.230469 977.921875 C 1367.394531 1033.730469 1386.386719 1089.601562 1406.023438 1145.242188 C 1443.632812 1251.796875 1478.851562 1359.148438 1514.507812 1466.359375 C 1515.90625 1470.566406 1516.898438 1475.347656 1521.78125 1477.425781 C 1533.445312 1459.871094 1772.789062 902.824219 1827.203125 766.867188 M 1063.757812 1398.210938 C 1071.496094 1417.746094 1073.492188 1439.234375 1083.617188 1460.441406 C 1086.355469 1454.664062 1088.230469 1451.296875 1089.59375 1447.734375 C 1105.816406 1405.230469 1122.03125 1362.722656 1138.121094 1320.171875 C 1175.792969 1220.535156 1213.078125 1120.753906 1251.355469 1021.351562 C 1257.664062 1004.960938 1250.597656 993.535156 1244.640625 980.050781 C 1241.882812 981.316406 1240.382812 981.777344 1239.136719 982.613281 C 1234.289062 985.863281 1229.457031 989.144531 1224.730469 992.566406 C 1152.839844 1044.609375 1080.164062 1095.433594 1000.804688 1135.765625 C 991.960938 1140.261719 989.644531 1145.242188 992.671875 1155.210938 C 1005.066406 1196.039062 1016.40625 1237.179688 1028.324219 1278.152344 C 1039.808594 1317.625 1051.527344 1357.027344 1063.757812 1398.210938 Z M 1063.757812 1398.210938 " fill-opacity="1" fill-rule="nonzero"></path><path fill="#000000" d="M 1319.3125 257.421875 C 1305.609375 261.019531 1292.253906 263.417969 1279.207031 266.960938 C 1245.761719 276.046875 1225.464844 298.078125 1217.390625 331.59375 C 1215.667969 338.761719 1214.347656 346.035156 1212.363281 353.128906 C 1211.089844 357.683594 1211.308594 363.320312 1203.449219 366.660156 C 1195.964844 338.582031 1193.308594 308.519531 1171.269531 287.226562 C 1149.535156 266.230469 1120.09375 264.039062 1092.160156 258.3125 C 1094.46875 250.921875 1099.277344 251.441406 1103.253906 250.660156 C 1112.378906 248.871094 1121.546875 247.296875 1130.675781 245.523438 C 1169.308594 238.019531 1188.019531 211.523438 1197.257812 175.851562 C 1199.332031 167.851562 1200.164062 159.347656 1205.121094 151.292969 C 1211.988281 157.121094 1212.289062 164.625 1213.859375 171.554688 C 1219.964844 198.53125 1230.769531 222.390625 1256.261719 236.824219 C 1272.222656 245.863281 1289.8125 248.402344 1307.582031 250.578125 C 1312.238281 251.148438 1318.199219 249.824219 1319.3125 257.421875 Z M 1319.3125 257.421875 " fill-opacity="1" fill-rule="nonzero"></path><path fill="#000000" d="M 411.769531 1906.316406 C 412.421875 1916.792969 416.210938 1923.566406 423.128906 1926.640625 C 424.113281 1927.121094 425.925781 1927.8125 428.570312 1928.71875 C 431.234375 1929.601562 433.210938 1930.40625 434.492188 1931.136719 C 435.777344 1931.839844 436.421875 1932.761719 436.421875 1933.894531 C 436.421875 1936.160156 433.839844 1937.535156 428.679688 1938.011719 C 428.378906 1938.011719 426.566406 1937.882812 423.242188 1937.632812 C 419.949219 1937.40625 415.996094 1937.167969 411.390625 1936.917969 C 406.8125 1936.664062 402.832031 1936.535156 399.460938 1936.535156 C 396.089844 1936.535156 392.261719 1936.664062 387.984375 1936.917969 C 383.703125 1937.167969 380.078125 1937.40625 377.113281 1937.632812 C 374.144531 1937.882812 372.492188 1938.011719 372.164062 1938.011719 C 366.855469 1937.535156 364.199219 1936.160156 364.199219 1933.894531 C 364.199219 1932.761719 364.839844 1931.839844 366.125 1931.136719 C 367.40625 1930.40625 369.371094 1929.601562 372.015625 1928.71875 C 374.679688 1927.8125 376.507812 1927.121094 377.488281 1926.640625 C 385.542969 1923.089844 389.316406 1916.316406 388.8125 1906.316406 L 385.679688 1830.164062 C 385.53125 1827.441406 384.484375 1826.488281 382.546875 1827.292969 C 381.265625 1827.917969 380.21875 1829.128906 379.414062 1830.917969 L 346.796875 1905.863281 C 345.515625 1908.757812 343.210938 1913.316406 339.886719 1919.539062 C 336.589844 1925.734375 334.460938 1928.832031 333.507812 1928.832031 C 332.222656 1928.832031 330.929688 1927.863281 329.617188 1925.921875 C 328.335938 1923.980469 326.484375 1919.957031 324.070312 1913.835938 L 294.359375 1837.675781 C 293.226562 1834.785156 292.21875 1833.007812 291.335938 1832.355469 C 290.457031 1831.699219 289.765625 1831.902344 289.261719 1832.957031 C 288.78125 1834.015625 288.46875 1835.664062 288.316406 1837.90625 L 284.203125 1905.375 C 283.875 1909.402344 284.3125 1913.632812 285.523438 1918.066406 C 286.730469 1922.496094 288.792969 1925.355469 291.714844 1926.640625 C 292.671875 1927.121094 294.46875 1927.8125 297.113281 1928.71875 C 299.78125 1929.601562 301.757812 1930.40625 303.039062 1931.136719 C 304.347656 1931.839844 305.003906 1932.761719 305.003906 1933.894531 C 305.003906 1936.160156 302.421875 1937.535156 297.261719 1938.011719 C 296.9375 1938.011719 295.566406 1937.882812 293.148438 1937.632812 C 290.734375 1937.40625 287.675781 1937.167969 283.976562 1936.917969 C 280.273438 1936.664062 276.726562 1936.535156 273.328125 1936.535156 C 269.957031 1936.535156 266.570312 1936.664062 263.171875 1936.917969 C 259.800781 1937.167969 257.019531 1937.40625 254.828125 1937.632812 C 252.667969 1937.882812 251.417969 1938.011719 251.09375 1938.011719 C 245.78125 1937.535156 243.128906 1936.160156 243.128906 1933.894531 C 243.128906 1932.761719 243.730469 1931.839844 244.9375 1931.136719 C 246.148438 1930.40625 248.125 1929.601562 250.867188 1928.71875 C 253.609375 1927.8125 255.460938 1927.121094 256.417969 1926.640625 C 263.839844 1923.417969 268.511719 1914.957031 270.421875 1901.257812 L 278.652344 1836.960938 C 279.605469 1829.054688 279.445312 1823.324219 278.164062 1819.773438 C 276.878906 1816.222656 274.460938 1812.835938 270.914062 1809.609375 C 269.957031 1808.65625 268.269531 1807.410156 265.851562 1805.875 C 263.4375 1804.335938 261.5 1802.925781 260.039062 1801.640625 C 258.609375 1800.359375 257.886719 1799.148438 257.886719 1798.015625 C 257.886719 1795.773438 260.621094 1794.652344 266.078125 1794.652344 C 268.824219 1794.652344 273.015625 1794.855469 278.652344 1795.257812 C 284.289062 1795.660156 289.046875 1795.863281 292.921875 1795.863281 C 296.144531 1795.863281 298.914062 1797.03125 301.226562 1799.375 C 303.570312 1801.695312 305.871094 1805.597656 308.136719 1811.085938 L 336.414062 1880.480469 C 337.042969 1882.242188 337.519531 1883.363281 337.847656 1883.84375 C 338.175781 1884.320312 338.617188 1884.847656 339.167969 1885.425781 C 339.75 1885.980469 340.441406 1885.820312 341.246094 1884.9375 C 342.050781 1884.054688 342.933594 1882.480469 343.886719 1880.214844 L 381.828125 1801.414062 C 383.113281 1798.820312 384.558594 1797.246094 386.171875 1796.695312 C 387.78125 1796.136719 390.4375 1795.863281 394.140625 1795.863281 C 396.078125 1795.863281 400.984375 1795.460938 408.859375 1794.652344 C 416.765625 1793.847656 422.089844 1793.445312 424.828125 1793.445312 C 427.394531 1793.445312 428.679688 1794.804688 428.679688 1797.523438 C 428.679688 1798.660156 428.074219 1799.589844 426.867188 1800.320312 C 425.660156 1801.050781 422.402344 1802.535156 417.089844 1804.777344 C 413.238281 1806.386719 410.621094 1808.730469 409.238281 1811.800781 C 407.878906 1814.875 407.363281 1819.785156 407.691406 1826.535156 Z M 411.769531 1906.316406 " fill-opacity="1" fill-rule="nonzero"></path><path fill="#000000" d="M 667.839844 1818.5625 L 667.839844 1877.078125 C 667.839844 1895.765625 662.277344 1910.75 651.15625 1922.03125 C 640.054688 1933.3125 625.558594 1938.953125 607.660156 1938.953125 C 587.378906 1938.953125 573.246094 1933.765625 565.265625 1923.394531 C 557.289062 1912.992188 553.300781 1897.71875 553.300781 1877.570312 L 553.300781 1820.984375 C 553.300781 1815.34375 552.421875 1811.601562 550.65625 1809.765625 C 548.894531 1807.898438 544.136719 1805.683594 536.386719 1803.113281 C 533.820312 1802.308594 532.535156 1800.9375 532.535156 1798.996094 C 532.535156 1797.710938 533.414062 1796.667969 535.179688 1795.863281 C 536.964844 1795.054688 538.902344 1794.652344 540.992188 1794.652344 C 544.214844 1794.652344 547.472656 1794.855469 550.769531 1795.257812 C 554.066406 1795.660156 557.164062 1795.863281 560.058594 1795.863281 C 562.976562 1795.863281 567.605469 1795.660156 573.953125 1795.257812 C 580.316406 1794.855469 584.871094 1794.652344 587.613281 1794.652344 C 589.707031 1794.652344 591.628906 1795.054688 593.390625 1795.863281 C 595.179688 1796.667969 596.074219 1797.710938 596.074219 1798.996094 C 596.074219 1800.9375 594.863281 1802.308594 592.449219 1803.113281 C 586.984375 1804.875 582.921875 1807.054688 580.253906 1809.648438 C 577.589844 1812.21875 576.25 1815.832031 576.25 1820.488281 L 576.25 1868.84375 C 576.25 1889.320312 578.792969 1904.113281 583.878906 1913.230469 C 588.960938 1922.324219 598.589844 1926.867188 612.757812 1926.867188 C 628.390625 1926.867188 639.171875 1921.550781 645.113281 1910.925781 C 651.078125 1900.296875 654.058594 1884.660156 654.058594 1864.007812 L 654.058594 1819.058594 C 654.058594 1814.875 653.570312 1811.816406 652.585938 1809.875 C 651.632812 1807.9375 650.625 1806.730469 649.566406 1806.25 C 648.535156 1805.773438 645.769531 1804.800781 641.265625 1803.339844 C 638.519531 1802.386719 637.148438 1800.9375 637.148438 1798.996094 C 637.148438 1797.710938 638.03125 1796.667969 639.792969 1795.863281 C 641.578125 1795.054688 643.515625 1794.652344 645.605469 1794.652344 C 646.886719 1794.652344 649.542969 1794.855469 653.570312 1795.257812 C 657.597656 1795.660156 660.175781 1795.863281 661.308594 1795.863281 C 662.441406 1795.863281 665.023438 1795.660156 669.050781 1795.257812 C 673.074219 1794.855469 675.65625 1794.652344 676.789062 1794.652344 C 678.875 1794.652344 680.800781 1795.054688 682.566406 1795.863281 C 684.351562 1796.667969 685.246094 1797.710938 685.246094 1798.996094 C 685.246094 1800.761719 683.875 1802.132812 681.128906 1803.113281 C 675.492188 1804.875 671.867188 1806.730469 670.253906 1808.667969 C 668.648438 1810.609375 667.839844 1813.90625 667.839844 1818.5625 Z M 667.839844 1818.5625 " fill-opacity="1" fill-rule="nonzero"></path><path fill="#000000" d="M 856.257812 1821.25 L 856.257812 1903.671875 C 856.257812 1915.761719 855.890625 1925.871094 855.160156 1934.003906 C 854.429688 1942.140625 853.261719 1948.546875 851.648438 1953.234375 C 850.039062 1957.917969 848.589844 1961.269531 847.308594 1963.285156 C 846.023438 1965.296875 844.171875 1967.664062 841.757812 1970.386719 C 833.375 1979.578125 822.746094 1984.171875 809.859375 1984.171875 C 802.609375 1984.171875 797.007812 1982.875 793.058594 1980.28125 C 789.105469 1977.710938 787.128906 1974.980469 787.128906 1972.085938 C 787.128906 1968.863281 788.0625 1965.804688 789.921875 1962.902344 C 791.785156 1960.007812 793.761719 1958.558594 795.851562 1958.558594 C 801.160156 1958.558594 805.1875 1960.652344 807.933594 1964.832031 C 811.960938 1970.949219 815.746094 1974.011719 819.296875 1974.011719 C 824.605469 1974.011719 828.269531 1970.863281 830.28125 1964.566406 C 832.292969 1958.296875 833.300781 1948.800781 833.300781 1936.085938 L 833.300781 1821.25 C 833.300781 1819.636719 833.253906 1818.226562 833.148438 1817.015625 C 833.074219 1815.808594 832.800781 1814.726562 832.316406 1813.765625 C 831.839844 1812.785156 831.476562 1811.929688 831.222656 1811.199219 C 830.996094 1810.46875 830.394531 1809.789062 829.414062 1809.160156 C 828.457031 1808.503906 827.8125 1808.015625 827.488281 1807.683594 C 827.160156 1807.359375 826.230469 1806.917969 824.695312 1806.363281 C 823.183594 1805.8125 822.175781 1805.457031 821.675781 1805.304688 C 821.195312 1805.128906 819.875 1804.765625 817.710938 1804.210938 C 815.542969 1803.632812 814.136719 1803.265625 813.484375 1803.113281 C 810.914062 1802.308594 809.628906 1800.9375 809.628906 1798.996094 C 809.628906 1797.710938 810.511719 1796.667969 812.273438 1795.863281 C 814.035156 1795.054688 815.972656 1794.652344 818.085938 1794.652344 C 821.308594 1794.652344 825.851562 1794.855469 831.714844 1795.257812 C 837.605469 1795.660156 841.996094 1795.863281 844.894531 1795.863281 C 847.785156 1795.863281 852.253906 1795.660156 858.292969 1795.257812 C 864.332031 1794.855469 868.726562 1794.652344 871.46875 1794.652344 C 873.558594 1794.652344 875.484375 1795.054688 877.246094 1795.863281 C 879.03125 1796.667969 879.929688 1797.710938 879.929688 1798.996094 C 879.929688 1800.9375 878.71875 1802.308594 876.304688 1803.113281 C 875.496094 1803.265625 874.085938 1803.632812 872.074219 1804.210938 C 870.0625 1804.765625 868.765625 1805.128906 868.183594 1805.304688 C 867.632812 1805.457031 866.585938 1805.8125 865.050781 1806.363281 C 863.542969 1806.917969 862.585938 1807.359375 862.179688 1807.683594 C 861.777344 1808.015625 861.085938 1808.503906 860.105469 1809.160156 C 859.148438 1809.789062 858.542969 1810.46875 858.292969 1811.199219 C 858.066406 1811.929688 857.699219 1812.785156 857.199219 1813.765625 C 856.722656 1814.726562 856.445312 1815.808594 856.367188 1817.015625 C 856.292969 1818.226562 856.257812 1819.636719 856.257812 1821.25 Z M 856.257812 1821.25 " fill-opacity="1" fill-rule="nonzero"></path><path fill="#000000" d="M 1067.367188 1851.46875 C 1067.367188 1856.457031 1069.21875 1858.945312 1072.917969 1858.945312 L 1093.679688 1858.945312 C 1096.097656 1858.945312 1098.234375 1858.632812 1100.101562 1858.003906 C 1101.960938 1857.347656 1103.332031 1856.65625 1104.214844 1855.925781 C 1105.09375 1855.195312 1106.503906 1853.949219 1108.445312 1852.183594 C 1108.921875 1851.707031 1109.675781 1850.863281 1110.707031 1849.652344 C 1111.761719 1848.445312 1112.695312 1847.566406 1113.5 1847.007812 C 1114.304688 1846.429688 1115.113281 1846.140625 1115.917969 1846.140625 C 1117.703125 1846.140625 1118.597656 1847.753906 1118.597656 1850.976562 C 1118.597656 1851.457031 1118.433594 1853.597656 1118.109375 1857.398438 C 1117.78125 1861.175781 1117.617188 1863.707031 1117.617188 1864.992188 C 1117.617188 1866.277344 1117.65625 1868.695312 1117.730469 1872.242188 C 1117.804688 1875.796875 1117.84375 1877.972656 1117.84375 1878.777344 C 1117.84375 1882.960938 1116.800781 1885.050781 1114.710938 1885.050781 C 1114.078125 1885.050781 1113.4375 1884.8125 1112.785156 1884.332031 C 1112.128906 1883.855469 1111.523438 1883.210938 1110.972656 1882.40625 C 1110.417969 1881.597656 1109.941406 1880.882812 1109.539062 1880.25 C 1109.132812 1879.597656 1108.644531 1878.742188 1108.0625 1877.683594 C 1107.511719 1876.625 1107.148438 1876.023438 1106.96875 1875.871094 C 1104.878906 1872.496094 1102.0625 1870.808594 1098.515625 1870.808594 L 1073.144531 1870.808594 C 1070.902344 1870.808594 1069.378906 1871.210938 1068.574219 1872.015625 C 1067.769531 1872.824219 1067.367188 1874.347656 1067.367188 1876.585938 L 1067.367188 1917.195312 C 1067.367188 1920.421875 1068.046875 1922.800781 1069.40625 1924.335938 C 1070.789062 1925.871094 1073.167969 1926.640625 1076.542969 1926.640625 L 1110.371094 1926.640625 C 1114.875 1926.640625 1118.574219 1926.277344 1121.464844 1925.546875 C 1124.386719 1924.8125 1126.964844 1923.203125 1129.203125 1920.710938 C 1131.472656 1918.21875 1133.121094 1916.050781 1134.152344 1914.210938 C 1135.207031 1912.347656 1136.871094 1908.996094 1139.136719 1904.164062 C 1140.570312 1901.09375 1142.734375 1899.554688 1145.628906 1899.554688 C 1147.894531 1899.554688 1149.027344 1901.570312 1149.027344 1905.601562 C 1149.027344 1908.671875 1147.820312 1913.554688 1145.402344 1920.257812 C 1142.984375 1926.929688 1141.136719 1931.3125 1139.851562 1933.402344 C 1139.046875 1934.863281 1138.480469 1935.832031 1138.15625 1936.3125 C 1137.824219 1936.789062 1137.261719 1937.191406 1136.453125 1937.519531 C 1135.648438 1937.847656 1134.605469 1938.011719 1133.320312 1938.011719 C 1131.710938 1938.011719 1120.75 1937.808594 1100.441406 1937.40625 C 1080.152344 1937.003906 1065.015625 1936.800781 1055.023438 1936.800781 C 1051.652344 1936.800781 1047.824219 1936.890625 1043.546875 1937.066406 C 1039.292969 1937.21875 1035.667969 1937.40625 1032.675781 1937.632812 C 1029.703125 1937.882812 1028.054688 1938.011719 1027.726562 1938.011719 C 1022.417969 1937.535156 1019.761719 1936.160156 1019.761719 1933.894531 C 1019.761719 1932.761719 1020.40625 1931.839844 1021.6875 1931.136719 C 1022.972656 1930.40625 1024.949219 1929.601562 1027.613281 1928.71875 C 1030.28125 1927.8125 1032.09375 1927.121094 1033.050781 1926.640625 C 1037.078125 1924.875 1039.972656 1922.660156 1041.734375 1919.992188 C 1043.519531 1917.324219 1044.414062 1913.734375 1044.414062 1909.226562 L 1044.414062 1820.984375 C 1044.414062 1819.546875 1044.363281 1818.226562 1044.261719 1817.015625 C 1044.1875 1815.808594 1043.910156 1814.675781 1043.433594 1813.617188 C 1042.953125 1812.558594 1042.589844 1811.714844 1042.339844 1811.085938 C 1042.109375 1810.429688 1041.507812 1809.789062 1040.523438 1809.160156 C 1039.570312 1808.503906 1038.929688 1808.015625 1038.597656 1807.683594 C 1038.273438 1807.359375 1037.339844 1806.917969 1035.804688 1806.363281 C 1034.296875 1805.8125 1033.25 1805.457031 1032.675781 1805.304688 C 1032.121094 1805.128906 1030.835938 1804.765625 1028.824219 1804.210938 C 1026.808594 1803.632812 1025.402344 1803.265625 1024.59375 1803.113281 C 1022.027344 1802.308594 1020.742188 1800.9375 1020.742188 1798.996094 C 1020.742188 1796.101562 1023.5625 1794.652344 1029.199219 1794.652344 L 1098.515625 1794.652344 C 1102.390625 1794.652344 1107.914062 1794.449219 1115.089844 1794.050781 C 1122.257812 1793.648438 1126.324219 1793.445312 1127.28125 1793.445312 C 1130.980469 1793.445312 1133.066406 1794.566406 1133.546875 1796.804688 C 1135.007812 1802.625 1135.738281 1809.234375 1135.738281 1816.640625 C 1135.738281 1820.820312 1134.457031 1822.90625 1131.886719 1822.90625 C 1128.816406 1822.90625 1125.910156 1819.847656 1123.164062 1813.730469 C 1120.597656 1808.417969 1114.082031 1805.757812 1103.609375 1805.757812 L 1074.84375 1805.757812 C 1071.796875 1805.757812 1069.78125 1806.160156 1068.804688 1806.96875 C 1067.84375 1807.773438 1067.367188 1809.058594 1067.367188 1810.820312 Z M 1067.367188 1851.46875 " fill-opacity="1" fill-rule="nonzero"></path><path fill="#000000" d="M 1353.203125 1878.0625 C 1368.328125 1900.628906 1383.378906 1917.296875 1398.355469 1928.074219 C 1400.949219 1930.015625 1405.539062 1931.3125 1412.132812 1931.964844 C 1414.875 1932.292969 1416.25 1933.667969 1416.25 1936.085938 C 1416.25 1938.175781 1414.550781 1939.898438 1411.152344 1941.261719 C 1407.777344 1942.644531 1403.839844 1943.335938 1399.335938 1943.335938 C 1385.972656 1943.335938 1375.742188 1939.546875 1368.644531 1931.964844 C 1353.992188 1916.65625 1341.269531 1899.894531 1330.476562 1881.691406 C 1327.253906 1876.347656 1320.570312 1873.679688 1310.429688 1873.679688 C 1307.835938 1873.679688 1306.0625 1874.167969 1305.105469 1875.152344 C 1304.148438 1876.109375 1303.671875 1877.796875 1303.671875 1880.214844 L 1303.671875 1909.226562 C 1303.671875 1913.734375 1304.554688 1917.324219 1306.316406 1919.992188 C 1308.074219 1922.660156 1310.96875 1924.875 1314.996094 1926.640625 C 1315.980469 1927.121094 1317.789062 1927.8125 1320.433594 1928.71875 C 1323.101562 1929.601562 1325.078125 1930.40625 1326.359375 1931.136719 C 1327.644531 1931.839844 1328.285156 1932.761719 1328.285156 1933.894531 C 1328.285156 1936.160156 1325.71875 1937.535156 1320.582031 1938.011719 C 1320.257812 1938.011719 1318.429688 1937.882812 1315.113281 1937.632812 C 1311.8125 1937.40625 1307.875 1937.167969 1303.292969 1936.917969 C 1298.710938 1936.664062 1294.722656 1936.535156 1291.324219 1936.535156 C 1288.28125 1936.535156 1284.691406 1936.664062 1280.566406 1936.917969 C 1276.464844 1937.167969 1272.875 1937.40625 1269.808594 1937.632812 C 1266.761719 1937.882812 1265.074219 1938.011719 1264.75 1938.011719 C 1259.4375 1937.535156 1256.78125 1936.160156 1256.78125 1933.894531 C 1256.78125 1932.761719 1257.425781 1931.839844 1258.707031 1931.136719 C 1259.992188 1930.40625 1261.96875 1929.601562 1264.636719 1928.71875 C 1267.300781 1927.8125 1269.113281 1927.121094 1270.070312 1926.640625 C 1274.097656 1924.875 1276.992188 1922.660156 1278.753906 1919.992188 C 1280.539062 1917.324219 1281.433594 1913.734375 1281.433594 1909.226562 L 1281.433594 1821.964844 C 1281.433594 1820.503906 1281.382812 1819.167969 1281.28125 1817.960938 C 1281.207031 1816.753906 1280.929688 1815.632812 1280.453125 1814.597656 C 1279.972656 1813.539062 1279.613281 1812.695312 1279.359375 1812.066406 C 1279.132812 1811.414062 1278.527344 1810.769531 1277.546875 1810.140625 C 1276.589844 1809.488281 1275.949219 1808.996094 1275.621094 1808.667969 C 1275.292969 1808.339844 1274.359375 1807.898438 1272.828125 1807.347656 C 1271.316406 1806.765625 1270.269531 1806.398438 1269.695312 1806.25 C 1269.140625 1806.074219 1267.855469 1805.707031 1265.84375 1805.15625 C 1263.828125 1804.601562 1262.421875 1804.234375 1261.613281 1804.0625 C 1259.046875 1803.253906 1257.761719 1801.882812 1257.761719 1799.941406 C 1257.761719 1797.375 1260.582031 1795.925781 1266.21875 1795.597656 C 1286.507812 1793.984375 1304.058594 1793.179688 1318.882812 1793.179688 C 1332.578125 1793.179688 1344.570312 1796.125 1354.863281 1802.019531 C 1365.179688 1807.886719 1370.339844 1816.460938 1370.339844 1827.746094 C 1370.339844 1841.140625 1363.976562 1852.425781 1351.242188 1861.589844 C 1350.609375 1862.097656 1349.96875 1862.550781 1349.3125 1862.953125 C 1348.683594 1863.351562 1348.246094 1863.683594 1347.992188 1863.933594 C 1347.738281 1864.160156 1347.539062 1864.4375 1347.390625 1864.765625 C 1347.238281 1865.066406 1347.164062 1865.46875 1347.164062 1865.972656 C 1347.164062 1868.0625 1349.175781 1872.09375 1353.203125 1878.0625 Z M 1313.5625 1864.992188 C 1317.109375 1864.992188 1320.699219 1864.515625 1324.320312 1863.554688 C 1327.945312 1862.574219 1330.324219 1861.441406 1331.457031 1860.15625 C 1341.269531 1851.769531 1346.179688 1842.175781 1346.179688 1831.371094 C 1346.179688 1823.488281 1343.160156 1816.929688 1337.121094 1811.691406 C 1331.078125 1806.453125 1323.957031 1803.832031 1315.753906 1803.832031 C 1312.355469 1803.832031 1309.484375 1804.636719 1307.144531 1806.25 C 1304.828125 1807.859375 1303.671875 1809.789062 1303.671875 1812.027344 L 1303.671875 1858.722656 C 1303.671875 1862.898438 1306.96875 1864.992188 1313.5625 1864.992188 Z M 1313.5625 1864.992188 " fill-opacity="1" fill-rule="nonzero"></path><path fill="#000000" d="M 1571.609375 1851.46875 C 1571.609375 1856.457031 1573.460938 1858.945312 1577.160156 1858.945312 L 1597.925781 1858.945312 C 1600.339844 1858.945312 1602.480469 1858.632812 1604.339844 1858.003906 C 1606.203125 1857.347656 1607.574219 1856.65625 1608.457031 1855.925781 C 1609.339844 1855.195312 1610.746094 1853.949219 1612.683594 1852.183594 C 1613.164062 1851.707031 1613.917969 1850.863281 1614.953125 1849.652344 C 1616.007812 1848.445312 1616.9375 1847.566406 1617.746094 1847.007812 C 1618.546875 1846.429688 1619.351562 1846.140625 1620.160156 1846.140625 C 1621.945312 1846.140625 1622.839844 1847.753906 1622.839844 1850.976562 C 1622.839844 1851.457031 1622.679688 1853.597656 1622.347656 1857.398438 C 1622.023438 1861.175781 1621.859375 1863.707031 1621.859375 1864.992188 C 1621.859375 1866.277344 1621.898438 1868.695312 1621.96875 1872.242188 C 1622.046875 1875.796875 1622.085938 1877.972656 1622.085938 1878.777344 C 1622.085938 1882.960938 1621.039062 1885.050781 1618.949219 1885.050781 C 1618.320312 1885.050781 1617.679688 1884.8125 1617.027344 1884.332031 C 1616.371094 1883.855469 1615.769531 1883.210938 1615.214844 1882.40625 C 1614.660156 1881.597656 1614.179688 1880.882812 1613.777344 1880.25 C 1613.375 1879.597656 1612.886719 1878.742188 1612.304688 1877.683594 C 1611.753906 1876.625 1611.386719 1876.023438 1611.210938 1875.871094 C 1609.125 1872.496094 1606.304688 1870.808594 1602.757812 1870.808594 L 1577.386719 1870.808594 C 1575.148438 1870.808594 1573.625 1871.210938 1572.820312 1872.015625 C 1572.011719 1872.824219 1571.609375 1874.347656 1571.609375 1876.585938 L 1571.609375 1917.195312 C 1571.609375 1920.421875 1572.289062 1922.800781 1573.648438 1924.335938 C 1575.03125 1925.871094 1577.410156 1926.640625 1580.785156 1926.640625 L 1614.609375 1926.640625 C 1619.113281 1926.640625 1622.8125 1926.277344 1625.710938 1925.546875 C 1628.628906 1924.8125 1631.207031 1923.203125 1633.449219 1920.710938 C 1635.714844 1918.21875 1637.363281 1916.050781 1638.394531 1914.210938 C 1639.453125 1912.347656 1641.113281 1908.996094 1643.378906 1904.164062 C 1644.8125 1901.09375 1646.976562 1899.554688 1649.871094 1899.554688 C 1652.136719 1899.554688 1653.269531 1901.570312 1653.269531 1905.601562 C 1653.269531 1908.671875 1652.0625 1913.554688 1649.644531 1920.257812 C 1647.230469 1926.929688 1645.378906 1931.3125 1644.09375 1933.402344 C 1643.289062 1934.863281 1642.722656 1935.832031 1642.394531 1936.3125 C 1642.070312 1936.789062 1641.5 1937.191406 1640.695312 1937.519531 C 1639.894531 1937.847656 1638.847656 1938.011719 1637.566406 1938.011719 C 1635.953125 1938.011719 1624.992188 1937.808594 1604.683594 1937.40625 C 1584.398438 1937.003906 1569.253906 1936.800781 1559.265625 1936.800781 C 1555.890625 1936.800781 1552.066406 1936.890625 1547.789062 1937.066406 C 1543.535156 1937.21875 1539.910156 1937.40625 1536.914062 1937.632812 C 1533.945312 1937.882812 1532.296875 1938.011719 1531.96875 1938.011719 C 1526.660156 1937.535156 1524.003906 1936.160156 1524.003906 1933.894531 C 1524.003906 1932.761719 1524.648438 1931.839844 1525.929688 1931.136719 C 1527.214844 1930.40625 1529.1875 1929.601562 1531.855469 1928.71875 C 1534.523438 1927.8125 1536.335938 1927.121094 1537.296875 1926.640625 C 1541.320312 1924.875 1544.214844 1922.660156 1545.976562 1919.992188 C 1547.761719 1917.324219 1548.65625 1913.734375 1548.65625 1909.226562 L 1548.65625 1820.984375 C 1548.65625 1819.546875 1548.605469 1818.226562 1548.507812 1817.015625 C 1548.429688 1815.808594 1548.152344 1814.675781 1547.675781 1813.617188 C 1547.199219 1812.558594 1546.832031 1811.714844 1546.582031 1811.085938 C 1546.355469 1810.429688 1545.75 1809.789062 1544.765625 1809.160156 C 1543.8125 1808.503906 1543.171875 1808.015625 1542.84375 1807.683594 C 1542.515625 1807.359375 1541.585938 1806.917969 1540.050781 1806.363281 C 1538.539062 1805.8125 1537.496094 1805.457031 1536.914062 1805.304688 C 1536.359375 1805.128906 1535.078125 1804.765625 1533.066406 1804.210938 C 1531.054688 1803.632812 1529.640625 1803.265625 1528.835938 1803.113281 C 1526.269531 1802.308594 1524.984375 1800.9375 1524.984375 1798.996094 C 1524.984375 1796.101562 1527.804688 1794.652344 1533.441406 1794.652344 L 1602.757812 1794.652344 C 1606.632812 1794.652344 1612.15625 1794.449219 1619.328125 1794.050781 C 1626.5 1793.648438 1630.566406 1793.445312 1631.523438 1793.445312 C 1635.222656 1793.445312 1637.3125 1794.566406 1637.789062 1796.804688 C 1639.25 1802.625 1639.980469 1809.234375 1639.980469 1816.640625 C 1639.980469 1820.820312 1638.695312 1822.90625 1636.128906 1822.90625 C 1633.058594 1822.90625 1630.152344 1819.847656 1627.410156 1813.730469 C 1624.84375 1808.417969 1618.320312 1805.757812 1607.855469 1805.757812 L 1579.085938 1805.757812 C 1576.039062 1805.757812 1574.027344 1806.160156 1573.042969 1806.96875 C 1572.085938 1807.773438 1571.609375 1809.058594 1571.609375 1810.820312 Z M 1571.609375 1851.46875 " fill-opacity="1" fill-rule="nonzero"></path><path fill="#000000" d="M 1795.46875 1792.234375 C 1804 1792.234375 1812.128906 1794.328125 1819.855469 1798.507812 C 1824.363281 1800.921875 1826.777344 1803.265625 1827.105469 1805.53125 C 1827.761719 1808.90625 1828.085938 1813.488281 1828.085938 1819.285156 C 1828.085938 1823.640625 1826.476562 1825.820312 1823.253906 1825.820312 C 1819.855469 1825.820312 1816.636719 1822.117188 1813.589844 1814.710938 C 1812.460938 1811.964844 1809.953125 1809.824219 1806.078125 1808.289062 C 1802.226562 1806.753906 1798.363281 1805.984375 1794.484375 1805.984375 C 1789.179688 1805.984375 1784.546875 1807.847656 1780.59375 1811.578125 C 1776.640625 1815.277344 1774.667969 1819.785156 1774.667969 1825.097656 C 1774.667969 1831.699219 1778.78125 1838.472656 1787.011719 1845.425781 L 1821.066406 1874.171875 C 1828.792969 1880.617188 1832.65625 1888.839844 1832.65625 1898.839844 C 1832.65625 1910.269531 1827.699219 1920.015625 1817.78125 1928.074219 C 1807.890625 1936.132812 1796.664062 1940.164062 1784.105469 1940.164062 C 1774.917969 1940.164062 1766.460938 1938.402344 1758.738281 1934.875 C 1754.054688 1932.761719 1751.035156 1931.183594 1749.675781 1930.15625 C 1748.316406 1929.097656 1747.636719 1927.761719 1747.636719 1926.148438 C 1747.636719 1921.316406 1748.117188 1915.761719 1749.070312 1909.492188 C 1749.726562 1905.613281 1751.257812 1903.671875 1753.679688 1903.671875 C 1756.898438 1903.671875 1759.628906 1907.460938 1761.871094 1915.042969 C 1763.328125 1919.550781 1766.347656 1923.304688 1770.929688 1926.300781 C 1775.535156 1929.273438 1781.210938 1930.757812 1787.957031 1930.757812 C 1793.921875 1930.757812 1798.917969 1928.429688 1802.945312 1923.769531 C 1806.96875 1919.085938 1808.984375 1913.671875 1808.984375 1907.527344 C 1808.984375 1900.121094 1805.765625 1893.675781 1799.320312 1888.1875 L 1766.699219 1860.648438 C 1757.214844 1852.742188 1752.46875 1843.472656 1752.46875 1832.84375 C 1752.46875 1821.5625 1756.644531 1811.980469 1765.003906 1804.097656 C 1773.382812 1796.1875 1783.539062 1792.234375 1795.46875 1792.234375 Z M 1795.46875 1792.234375 " fill-opacity="1" fill-rule="nonzero"></path></svg>