<svg xmlns="http://www.w3.org/2000/svg" xmlns:xlink="http://www.w3.org/1999/xlink" width="2797" zoomAndPan="magnify" viewBox="0 0 2097.75 2097.749898" height="2797" preserveAspectRatio="xMidYMid meet" version="1.0"><defs><clipPath id="f788cbfc3c"><path d="M 0 0 L 2097.5 0 L 2097.5 2097.5 L 0 2097.5 Z M 0 0 " clip-rule="nonzero"/></clipPath><clipPath id="2e13de37a3"><path d="M 52.210938 78.523438 L 1981.835938 78.523438 L 1981.835938 1998.390625 L 52.210938 1998.390625 Z M 52.210938 78.523438 " clip-rule="nonzero"/></clipPath><clipPath id="df6de3cc32"><path d="M 1016.902344 78.523438 C 484.117188 78.523438 52.210938 508.214844 52.210938 1038.269531 C 52.210938 1568.320312 484.117188 1998.011719 1016.902344 1998.011719 C 1549.683594 1998.011719 1981.589844 1568.320312 1981.589844 1038.269531 C 1981.589844 508.214844 1549.683594 78.523438 1016.902344 78.523438 Z M 1016.902344 78.523438 " clip-rule="nonzero"/></clipPath><clipPath id="d9c846a574"><path d="M 1103.007812 1639.832031 L 1942.808594 1639.832031 L 1942.808594 2097.5 L 1103.007812 2097.5 Z M 1103.007812 1639.832031 " clip-rule="nonzero"/></clipPath><clipPath id="6792514e03"><path d="M 0.0078125 0.832031 L 839 0.832031 L 839 458.5 L 0.0078125 458.5 Z M 0.0078125 0.832031 " clip-rule="nonzero"/></clipPath><clipPath id="da7c7ca3cc"><rect x="0" width="840" y="0" height="459"/></clipPath><clipPath id="e416c64be3"><rect x="0" width="2098" y="0" height="2098"/></clipPath></defs><g clip-path="url(#f788cbfc3c)"><g transform="matrix(1, 0, 0, 1, 0, 0)"><g clip-path="url(#e416c64be3)"><g clip-path="url(#2e13de37a3)"><g clip-path="url(#df6de3cc32)"><path stroke-linecap="butt" transform="matrix(0.749951, 0, 0, 0.749951, 52.212145, 78.518623)" fill="none" stroke-linejoin="miter" d="M 1286.338097 0.00641916 C 575.911221 0.00641916 -0.00161045 572.965932 -0.00161045 1279.751943 C -0.00161045 1986.532746 575.911221 2559.497468 1286.338097 2559.497468 C 1996.759764 2559.497468 2572.672596 1986.532746 2572.672596 1279.751943 C 2572.672596 572.965932 1996.759764 0.00641916 1286.338097 0.00641916 Z M 1286.338097 0.00641916 " stroke="#000000" stroke-width="84" stroke-opacity="1" stroke-miterlimit="4"/></g></g><g clip-path="url(#d9c846a574)"><g transform="matrix(1, 0, 0, 1, 1103, 1639)"><g clip-path="url(#da7c7ca3cc)"><g clip-path="url(#6792514e03)"><path fill="#ffffff" d="M 0.0078125 0.832031 L 838.628906 0.832031 L 838.628906 645.535156 L 0.0078125 645.535156 Z M 0.0078125 0.832031 " fill-opacity="1" fill-rule="nonzero"/></g></g></g></g><path fill="#000000" d="M 472.621094 1474.253906 C 425.304688 1452.882812 380.722656 1428.566406 340.742188 1396.324219 C 286.496094 1352.582031 241.296875 1302.203125 218.808594 1234.523438 C 207.542969 1200.621094 203.203125 1166 209.441406 1130.816406 C 220.941406 1065.9375 258.832031 1020.9375 317.066406 991.988281 C 342.09375 979.546875 368.5625 972.496094 396.425781 970.613281 C 397.828125 970.519531 399.320312 970.613281 400.648438 971.019531 C 401.546875 971.292969 402.234375 972.261719 402.996094 972.902344 C 402.972656 978.550781 398.652344 978.765625 394.972656 979.984375 C 336.589844 999.347656 301.492188 1040.691406 284.957031 1098.558594 C 262.480469 1177.199219 281.066406 1249.09375 324.878906 1315.300781 C 367.847656 1380.234375 428.414062 1424.59375 498.082031 1457.738281 C 554.707031 1484.679688 614.132812 1502.535156 676.324219 1507.640625 C 727.351562 1511.828125 778.808594 1511.777344 829.859375 1503.269531 C 877.308594 1495.359375 923.835938 1484.308594 969.042969 1467.769531 C 983.566406 1462.457031 984.277344 1460.792969 979.671875 1445.699219 C 965.15625 1398.15625 952.15625 1350.113281 936.257812 1303.039062 C 917.519531 1247.550781 906.335938 1189.371094 878.855469 1136.960938 C 857.488281 1096.210938 826.441406 1063.648438 790.613281 1035.300781 C 733.503906 990.105469 668.769531 956.992188 606.925781 919.316406 C 559.019531 890.128906 511.941406 860.042969 473.167969 818.722656 C 432.894531 775.804688 409.222656 725.6875 411.675781 666.296875 C 413.960938 611.011719 435.375 562.597656 473.210938 521.867188 C 506.09375 486.46875 545.164062 460.585938 591.40625 445.949219 C 640.820312 430.3125 691.070312 427.484375 742.277344 434.984375 C 802.5 443.804688 857.675781 465.429688 909.042969 497.65625 C 916.742188 502.488281 920.546875 508.03125 921.09375 517.449219 C 923.472656 558.363281 921.515625 599.300781 922.40625 640.214844 C 922.492188 644.308594 923.203125 649.050781 917.796875 651.039062 C 912.921875 649.257812 913.765625 644.773438 912.746094 641.167969 C 891.851562 567.09375 853.414062 506.203125 782.859375 469.898438 C 752.773438 454.417969 720.8125 447.125 686.675781 446.421875 C 645.480469 445.566406 606.671875 452.386719 570.996094 473.464844 C 526.082031 500 493.566406 536.40625 483.832031 589.164062 C 474.542969 639.496094 483.796875 685.773438 515.789062 727.128906 C 544.539062 764.296875 582.714844 789.871094 621.339844 814.578125 C 666.046875 843.179688 712.300781 869.355469 757.570312 897.101562 C 804.722656 926 850.554688 956.722656 890.667969 995.289062 C 935.671875 1038.558594 966.410156 1090.335938 985.203125 1149.621094 C 1009.550781 1226.417969 1032.484375 1303.636719 1054.640625 1381.089844 C 1057.496094 1391.0625 1060.707031 1400.929688 1063.753906 1410.847656 C 1067.484375 1422.984375 1068.21875 1423.550781 1079.070312 1417.886719 C 1100.386719 1406.761719 1121.34375 1394.984375 1141.78125 1382.289062 C 1193.625 1350.074219 1243.347656 1314.742188 1293.296875 1279.726562 C 1300.367188 1274.769531 1302.195312 1269.96875 1299.238281 1261.675781 C 1283.960938 1218.839844 1269.265625 1175.796875 1254.203125 1132.882812 C 1243.652344 1102.828125 1231.921875 1073.15625 1222.40625 1042.78125 C 1212.492188 1011.140625 1192.972656 991.867188 1159.84375 987.011719 C 1157.753906 986.707031 1155.726562 985.859375 1153.742188 985.074219 C 1153.230469 984.871094 1153 983.949219 1152.3125 982.820312 C 1154.585938 978.121094 1159.191406 978.882812 1163.210938 978.878906 C 1232.507812 978.800781 1301.804688 978.789062 1371.101562 978.816406 C 1375.191406 978.820312 1379.726562 978.261719 1382.25 983.011719 C 1379.109375 988.386719 1374.042969 987.515625 1369.65625 987.914062 C 1359.074219 988.875 1349.269531 992.410156 1340.238281 997.59375 C 1323.160156 1007.398438 1316.851562 1025.121094 1322.875 1047.324219 C 1332.621094 1083.273438 1345.835938 1118.121094 1357.625 1153.421875 C 1362.960938 1169.398438 1368.140625 1185.425781 1373.613281 1201.355469 C 1377.546875 1212.808594 1379.613281 1213.476562 1389.234375 1206.019531 C 1426.378906 1177.226562 1463.058594 1147.816406 1500.566406 1119.507812 C 1596.925781 1046.785156 1695.410156 977.199219 1807.136719 929.449219 C 1847.261719 912.300781 1888.78125 898.726562 1933.007812 895.019531 C 1986.234375 890.5625 2036.28125 915.785156 2055.480469 957.507812 C 2082.019531 1015.183594 2057.804688 1080.5 2011.835938 1114.828125 C 1999.710938 1123.878906 1986.636719 1131.410156 1972.316406 1136.507812 C 1966.757812 1138.484375 1960.113281 1142.328125 1957.261719 1133.210938 C 1954.835938 1125.460938 1961.195312 1123.121094 1966.597656 1121.351562 C 1981.507812 1116.46875 1994.449219 1108.210938 2006.804688 1098.871094 C 2044.972656 1070.023438 2060.972656 1007.507812 2040.332031 964.578125 C 2023.527344 929.617188 1994.46875 912.375 1956.128906 910.890625 C 1933.125 910 1933.410156 910.589844 1925.546875 931.808594 C 1896.625 1009.832031 1865.367188 1086.929688 1833.519531 1163.796875 C 1780.511719 1291.726562 1725.820312 1418.929688 1670.304688 1545.789062 C 1627.167969 1644.367188 1584.566406 1743.175781 1539.183594 1840.753906 C 1534.800781 1850.175781 1530.738281 1859.742188 1526.570312 1869.261719 C 1525.394531 1871.949219 1524.238281 1874.769531 1520.867188 1875.023438 C 1516.695312 1875.339844 1515.617188 1871.738281 1514.300781 1868.929688 C 1505.304688 1849.730469 1500.03125 1829.175781 1492.769531 1809.339844 C 1475.429688 1761.957031 1458.015625 1714.601562 1441.144531 1667.054688 C 1421.265625 1611.050781 1402.074219 1554.800781 1382.316406 1498.753906 C 1364.230469 1447.449219 1345.789062 1396.269531 1327.460938 1345.050781 C 1327.246094 1344.453125 1326.472656 1344.054688 1325.210938 1342.84375 C 1318.761719 1350.230469 1316.683594 1359.730469 1313.457031 1368.339844 C 1277.203125 1465.046875 1242.519531 1562.363281 1204.851562 1658.515625 C 1178.183594 1726.597656 1151.65625 1794.726562 1125.6875 1863.074219 C 1125.050781 1864.75 1124.273438 1866.371094 1123.570312 1868.023438 C 1122.167969 1871.320312 1121.089844 1875.347656 1116.699219 1875.308594 C 1111.996094 1875.269531 1111.667969 1870.839844 1110.65625 1867.539062 C 1102.378906 1840.515625 1094.425781 1813.394531 1085.910156 1786.449219 C 1069.855469 1735.625 1053.285156 1684.964844 1037.324219 1634.113281 C 1022.34375 1586.390625 1008.011719 1538.46875 993.105469 1490.726562 C 988.644531 1476.4375 988.183594 1476.539062 973.523438 1481.824219 C 929.625 1497.648438 884.839844 1509.429688 838.707031 1517.480469 C 778.730469 1527.945312 718.628906 1527.429688 658.625 1523.136719 C 594.195312 1518.53125 532.871094 1499.40625 472.621094 1474.253906 M 1844.984375 1093.023438 C 1868.316406 1034.332031 1893.53125 976.355469 1914.171875 914.828125 C 1907.660156 915.28125 1903.308594 915.027344 1899.226562 915.960938 C 1859.5625 925.03125 1821.953125 939.914062 1785.195312 957.023438 C 1711.699219 991.234375 1644.523438 1035.953125 1578.261719 1082.144531 C 1514.070312 1126.890625 1453.863281 1176.917969 1391.066406 1223.519531 C 1385 1228.023438 1385.21875 1233.457031 1387.363281 1239.78125 C 1392.761719 1255.710938 1397.773438 1271.769531 1403.234375 1287.675781 C 1420.910156 1339.148438 1438.425781 1390.675781 1456.539062 1441.992188 C 1491.222656 1540.265625 1523.707031 1639.273438 1556.589844 1738.152344 C 1557.878906 1742.03125 1558.792969 1746.441406 1563.296875 1748.359375 C 1574.054688 1732.167969 1794.800781 1218.414062 1844.984375 1093.023438 M 1140.867188 1675.300781 C 1148.007812 1693.316406 1149.847656 1713.136719 1159.1875 1732.695312 C 1161.710938 1727.363281 1163.441406 1724.261719 1164.695312 1720.976562 C 1179.660156 1681.773438 1194.613281 1642.570312 1209.453125 1603.324219 C 1244.199219 1511.433594 1278.585938 1419.40625 1313.886719 1327.730469 C 1319.707031 1312.613281 1313.1875 1302.074219 1307.695312 1289.640625 C 1305.152344 1290.804688 1303.769531 1291.234375 1302.621094 1292.003906 C 1298.148438 1295 1293.691406 1298.027344 1289.332031 1301.183594 C 1223.03125 1349.179688 1156.003906 1396.054688 1082.808594 1433.253906 C 1074.65625 1437.398438 1072.515625 1441.992188 1075.308594 1451.1875 C 1086.742188 1488.839844 1097.195312 1526.785156 1108.191406 1564.574219 C 1118.78125 1600.976562 1129.589844 1637.320312 1140.867188 1675.300781 Z M 1140.867188 1675.300781 " fill-opacity="1" fill-rule="nonzero"/><path fill="#000000" d="M 1376.5625 623.171875 C 1363.925781 626.488281 1351.609375 628.699219 1339.578125 631.96875 C 1308.730469 640.347656 1290.011719 660.664062 1282.566406 691.578125 C 1280.972656 698.1875 1279.753906 704.898438 1277.925781 711.4375 C 1276.753906 715.640625 1276.953125 720.839844 1269.707031 723.917969 C 1262.804688 698.023438 1260.351562 670.296875 1240.027344 650.660156 C 1219.980469 631.292969 1192.828125 629.273438 1167.066406 623.992188 C 1169.195312 617.171875 1173.628906 617.65625 1177.296875 616.933594 C 1185.710938 615.285156 1194.167969 613.832031 1202.585938 612.195312 C 1238.21875 605.273438 1255.472656 580.835938 1263.996094 547.9375 C 1265.910156 540.558594 1266.675781 532.714844 1271.246094 525.289062 C 1277.578125 530.664062 1277.859375 537.585938 1279.304688 543.976562 C 1284.9375 568.855469 1294.902344 590.859375 1318.414062 604.175781 C 1333.132812 612.507812 1349.355469 614.851562 1365.746094 616.859375 C 1370.039062 617.382812 1375.539062 616.160156 1376.5625 623.171875 Z M 1376.5625 623.171875 " fill-opacity="1" fill-rule="nonzero"/></g></g></g></svg>